<svg xmlns="http://www.w3.org/2000/svg" xmlns:xlink="http://www.w3.org/1999/xlink" width="2240" zoomAndPan="magnify" viewBox="0 0 1680 944.999993" height="1260" preserveAspectRatio="xMidYMid meet" version="1.0"><defs><clipPath id="dd91329b6a"><path d="M 0 0 L 1680 0 L 1680 437.429688 L 0 437.429688 Z M 0 0 " clip-rule="nonzero"/></clipPath></defs><g clip-path="url(#dd91329b6a)"><path fill="#cdbee6" d="M 1716.65625 184.242188 C 1685.359375 202.476562 1636.433594 224.050781 1579.304688 217.667969 C 1476.898438 206.425781 1451.375 117.390625 1371.148438 112.832031 C 1273.910156 107.363281 1260.539062 234.6875 1146.28125 265.378906 C 1008.929688 302.449219 956.664062 135.925781 805.03125 150.816406 C 647.316406 166.3125 631.515625 353.199219 476.234375 365.351562 C 336.148438 376.292969 285.402344 229.519531 147.441406 241.371094 C 38.960938 250.488281 -44 350.765625 -98.089844 437.066406 C -98.089844 219.1875 -98.089844 1.308594 -98.089844 -216.570312 L 1716.960938 -216.570312 C 1716.65625 -82.863281 1716.65625 50.539062 1716.65625 184.242188 Z M 1716.65625 184.242188 " fill-opacity="1" fill-rule="nonzero"/></g></svg>