<svg xmlns="http://www.w3.org/2000/svg" xmlns:xlink="http://www.w3.org/1999/xlink" width="2240" zoomAndPan="magnify" viewBox="0 0 1680 944.999993" height="1260" preserveAspectRatio="xMidYMid meet" version="1.0"><defs><clipPath id="3016d9eb5b"><path d="M 0 0 L 1680 0 L 1680 499 L 0 499 Z M 0 0 " clip-rule="nonzero"/></clipPath><clipPath id="c5ec0e55c7"><path d="M 1625.785156 -1117.027344 L 1963.226562 459 L 200.183594 836.484375 L -137.253906 -739.546875 Z M 1625.785156 -1117.027344 " clip-rule="nonzero"/></clipPath><clipPath id="7764cb5211"><path d="M 1625.785156 -1117.027344 L 1963.226562 459 L 200.183594 836.484375 L -137.253906 -739.546875 Z M 1625.785156 -1117.027344 " clip-rule="nonzero"/></clipPath></defs><rect x="-168" width="2016" fill="#ffffff" y="-94.499999" height="1133.999992" fill-opacity="1"/><rect x="-168" width="2016" fill="#ffffff" y="-94.499999" height="1133.999992" fill-opacity="1"/><g clip-path="url(#3016d9eb5b)"><g clip-path="url(#c5ec0e55c7)"><g clip-path="url(#7764cb5211)"><path fill="#d7e5ff" d="M 888.945312 -718.015625 C 781.910156 -824.578125 633.488281 -854.660156 496.160156 -848.9375 C 343.8125 -842.546875 188.1875 -793.070312 85.3125 -670.890625 C -17.5625 -548.714844 -52.085938 -342.457031 34.457031 -192.554688 C 212.082031 115.023438 688.21875 -36.167969 880.570312 260.066406 C 916.898438 316.03125 939.410156 384.472656 985.761719 429.878906 C 1027.382812 470.765625 1082.574219 487.167969 1135.773438 494.261719 C 1544.457031 548.519531 1883.554688 88.589844 1773.890625 -370.875 C 1733.597656 -539.421875 1636.394531 -655.390625 1480.269531 -659.921875 C 1229.9375 -667.191406 1115.9375 -492.054688 888.945312 -718.015625 Z M 888.945312 -718.015625 " fill-opacity="1" fill-rule="nonzero"/></g></g></g></svg>