<svg xmlns="http://www.w3.org/2000/svg" xmlns:xlink="http://www.w3.org/1999/xlink" width="1863" zoomAndPan="magnify" viewBox="0 0 1397.25 663.000002" height="884" preserveAspectRatio="xMidYMid meet" version="1.0"><defs><clipPath id="6c795e5bf8"><path d="M 500 0 L 1395.824219 0 L 1395.824219 596 L 500 596 Z M 500 0 " clip-rule="nonzero"/></clipPath><clipPath id="0dd997770f"><path d="M 1476.394531 -436.894531 L 1783.417969 521.617188 L 710.800781 865.191406 L 403.777344 -93.320312 Z M 1476.394531 -436.894531 " clip-rule="nonzero"/></clipPath><clipPath id="4a4ace081f"><path d="M 1476.394531 -436.894531 L 1783.417969 521.617188 L 710.800781 865.191406 L 403.777344 -93.320312 Z M 1476.394531 -436.894531 " clip-rule="nonzero"/></clipPath></defs><g clip-path="url(#6c795e5bf8)"><g clip-path="url(#0dd997770f)"><g clip-path="url(#4a4ace081f)"><path fill="#d7e5ff" d="M 1043.046875 -143.355469 C 969.933594 -202.980469 875.816406 -212.511719 790.808594 -200.472656 C 696.511719 -187.085938 602.832031 -146.71875 546.433594 -64.417969 C 490.035156 17.878906 481.320312 148.21875 544.375 236.046875 C 673.785156 416.257812 960.402344 292.867188 1098.265625 465.117188 C 1124.300781 497.660156 1142.523438 538.808594 1174.140625 564.171875 C 1202.539062 587.015625 1237.855469 593.800781 1271.363281 594.921875 C 1528.746094 603.402344 1711.105469 296.566406 1614.558594 17.75 C 1579.097656 -84.527344 1511.515625 -150.605469 1414.191406 -143.777344 C 1258.140625 -132.832031 1198.097656 -16.925781 1043.046875 -143.355469 Z M 1043.046875 -143.355469 " fill-opacity="1" fill-rule="nonzero"/></g></g></g></svg>