<svg xmlns="http://www.w3.org/2000/svg" xmlns:xlink="http://www.w3.org/1999/xlink" width="2240" zoomAndPan="magnify" viewBox="0 0 1680 944.999993" height="1260" preserveAspectRatio="xMidYMid meet" version="1.0"><defs><clipPath id="6babb21117"><path d="M 0 0 L 1680 0 L 1680 550 L 0 550 Z M 0 0 " clip-rule="nonzero"/></clipPath><clipPath id="1652ae9798"><path d="M 1552.914062 -1066.039062 L 1890.355469 509.992188 L 127.3125 887.472656 L -210.128906 -688.558594 Z M 1552.914062 -1066.039062 " clip-rule="nonzero"/></clipPath><clipPath id="c1b955138b"><path d="M 1552.914062 -1066.039062 L 1890.355469 509.992188 L 127.3125 887.472656 L -210.128906 -688.558594 Z M 1552.914062 -1066.039062 " clip-rule="nonzero"/></clipPath></defs><rect x="-168" width="2016" fill="#ffffff" y="-94.499999" height="1133.999992" fill-opacity="1"/><rect x="-168" width="2016" fill="#ffffff" y="-94.499999" height="1133.999992" fill-opacity="1"/><g clip-path="url(#6babb21117)"><g clip-path="url(#1652ae9798)"><g clip-path="url(#c1b955138b)"><path fill="#d7e5ff" d="M 816.070312 -667.023438 C 709.039062 -773.585938 560.613281 -803.667969 423.285156 -797.949219 C 270.941406 -791.558594 115.316406 -742.078125 12.4375 -619.902344 C -90.4375 -497.722656 -124.957031 -291.464844 -38.417969 -141.5625 C 139.210938 166.011719 615.34375 14.820312 807.695312 311.054688 C 844.023438 367.019531 866.535156 435.460938 912.886719 480.871094 C 954.511719 521.757812 1009.703125 538.160156 1062.902344 545.25 C 1471.585938 599.511719 1810.679688 139.578125 1701.015625 -319.882812 C 1660.722656 -488.429688 1563.519531 -604.402344 1407.398438 -608.933594 C 1157.066406 -616.199219 1043.0625 -441.066406 816.070312 -667.023438 Z M 816.070312 -667.023438 " fill-opacity="1" fill-rule="nonzero"/></g></g></g></svg>