<svg xmlns="http://www.w3.org/2000/svg" xmlns:xlink="http://www.w3.org/1999/xlink" width="2240" zoomAndPan="magnify" viewBox="0 0 1680 944.999993" height="1260" preserveAspectRatio="xMidYMid meet" version="1.0"><defs><clipPath id="a5b483c9a9"><path d="M 0 0 L 1680 0 L 1680 431.339844 L 0 431.339844 Z M 0 0 " clip-rule="nonzero"/></clipPath></defs><rect x="-168" width="2016" fill="#ffffff" y="-94.499999" height="1133.999992" fill-opacity="1"/><rect x="-168" width="2016" fill="#ffffff" y="-94.499999" height="1133.999992" fill-opacity="1"/><g clip-path="url(#a5b483c9a9)"><path fill="#d0b4ff" d="M 1702.75 190.753906 C 1672.984375 208.09375 1626.460938 228.609375 1572.132812 222.542969 C 1474.746094 211.851562 1450.46875 127.179688 1374.179688 122.84375 C 1281.707031 117.640625 1268.992188 238.726562 1160.332031 267.910156 C 1029.714844 303.167969 980.007812 144.804688 835.808594 158.964844 C 685.828125 173.703125 670.800781 351.425781 523.132812 362.988281 C 389.910156 373.390625 341.652344 233.8125 210.453125 245.082031 C 107.289062 253.75 28.394531 349.117188 -23.042969 431.1875 C -23.042969 223.988281 -23.042969 16.789062 -23.042969 -190.410156 L 1703.039062 -190.410156 C 1702.75 -63.261719 1702.75 63.601562 1702.75 190.753906 Z M 1702.75 190.753906 " fill-opacity="1" fill-rule="nonzero"/></g></svg>