<svg xmlns="http://www.w3.org/2000/svg" xmlns:xlink="http://www.w3.org/1999/xlink" width="1920" zoomAndPan="magnify" viewBox="0 0 1440 809.999993" height="1080" preserveAspectRatio="xMidYMid meet" version="1.0"><defs><clipPath id="06cac3c178"><path d="M 4.335938 236 L 1431 236 L 1431 559 L 4.335938 559 Z M 4.335938 236 " clip-rule="nonzero"/></clipPath><clipPath id="313317b79c"><path d="M 4.335938 166 L 1435.335938 166 L 1435.335938 549 L 4.335938 549 Z M 4.335938 166 " clip-rule="nonzero"/></clipPath></defs><path fill="#d680b2" d="M 1423.960938 335.578125 C 1421.5 335.578125 1418.964844 335.5625 1416.363281 335.542969 C 1393.589844 335.375 1365.25 335.167969 1336.808594 347.21875 C 1323.300781 352.945312 1311.046875 362.222656 1298.074219 372.039062 C 1287.226562 380.25 1276.003906 388.742188 1263.648438 395.320312 C 1256.574219 399.085938 1248.921875 402.195312 1241.109375 404.996094 C 1246.308594 401.867188 1251.4375 398.660156 1256.316406 395.261719 C 1268.414062 386.832031 1279.585938 377.464844 1290.386719 368.410156 C 1304.460938 356.613281 1317.753906 345.472656 1331.867188 337.320312 C 1371.242188 314.589844 1405.621094 311.195312 1422.613281 311.195312 C 1423.199219 311.195312 1423.671875 310.746094 1423.671875 310.195312 C 1423.671875 309.640625 1423.199219 309.195312 1422.613281 309.195312 C 1405.402344 309.195312 1370.582031 312.625 1330.773438 335.617188 C 1316.496094 343.859375 1303.136719 355.058594 1288.988281 366.914062 C 1278.222656 375.9375 1267.089844 385.273438 1255.066406 393.652344 C 1247.601562 398.851562 1239.605469 403.667969 1231.5 408.304688 C 1230.738281 408.558594 1229.980469 408.808594 1229.21875 409.058594 C 1235.480469 404.121094 1241.683594 399.128906 1247.671875 394.082031 C 1258.238281 385.175781 1268.40625 376.039062 1278.238281 367.195312 C 1295.003906 352.121094 1310.84375 337.882812 1326.867188 326.335938 C 1364.027344 299.554688 1397.554688 284.800781 1421.273438 284.800781 C 1421.859375 284.800781 1422.332031 284.351562 1422.332031 283.800781 C 1422.332031 283.25 1421.859375 282.800781 1421.273438 282.800781 C 1397.097656 282.800781 1363.113281 297.695312 1325.589844 324.742188 C 1309.476562 336.355469 1293.59375 350.628906 1276.785156 365.746094 C 1266.964844 374.574219 1256.808594 383.703125 1246.269531 392.589844 C 1238.941406 398.765625 1231.285156 404.867188 1223.574219 410.890625 C 1223.292969 410.984375 1223.007812 411.078125 1222.726562 411.164062 C 1221.722656 411.488281 1220.707031 411.816406 1219.699219 412.144531 C 1299.941406 333.34375 1379.3125 258.417969 1419.929688 258.417969 C 1420.511719 258.417969 1420.988281 257.96875 1420.988281 257.417969 C 1420.988281 256.863281 1420.511719 256.417969 1419.929688 256.417969 C 1377.980469 256.417969 1296.832031 333.453125 1215.300781 413.582031 C 1203.667969 417.398438 1191.96875 421.554688 1181.445312 427.160156 C 1168.941406 433.816406 1157.652344 442.359375 1146.738281 450.625 C 1133.878906 460.359375 1121.730469 469.554688 1108.46875 475.175781 C 1080.441406 487.050781 1052.355469 486.839844 1029.777344 486.679688 C 1027.175781 486.664062 1024.636719 486.640625 1022.171875 486.640625 C 993.628906 486.640625 972.09375 475.144531 958.160156 452.460938 C 951.542969 441.699219 948.820312 427.839844 945.929688 413.171875 C 943.746094 402.066406 941.484375 390.585938 937.386719 379.609375 C 933.03125 367.945312 925.957031 356.746094 919.121094 345.914062 C 912.332031 335.167969 905.316406 324.050781 901.03125 312.570312 C 896.988281 301.746094 894.746094 290.339844 892.570312 279.3125 C 889.648438 264.464844 886.886719 250.441406 880.09375 239.378906 C 878.492188 236.777344 876.78125 234.34375 874.992188 232.027344 C 874.160156 229.753906 873.292969 227.515625 872.324219 225.359375 C 868.898438 217.71875 865.105469 210.878906 861.027344 204.785156 C 856.511719 192.550781 851.722656 181.957031 846.648438 173.113281 C 833.273438 132.339844 817.289062 106.273438 796.21875 106.273438 C 751.628906 106.273438 729.820312 250.738281 707.335938 406.730469 C 701.339844 419.914062 695.398438 433.46875 691.742188 447.117188 C 687.785156 461.863281 685.910156 476.84375 684.101562 491.335938 C 681.835938 509.425781 679.699219 526.511719 673.761719 540.828125 C 658.121094 578.542969 634.175781 599.3125 606.339844 599.3125 C 587.929688 599.3125 571.6875 590.027344 558.816406 572.683594 C 551.015625 521.585938 544.523438 462.917969 538.113281 404.960938 C 519.695312 238.480469 502.300781 81.242188 456.660156 81.242188 C 411.914062 81.242188 325.550781 199.15625 233.75 325.210938 C 230.644531 328.753906 227.546875 332.28125 224.472656 335.777344 C 223.433594 336.960938 222.382812 338.164062 221.339844 339.347656 C 220.316406 340.273438 219.292969 341.207031 218.277344 342.132812 C 215.175781 344.953125 212.046875 347.804688 208.921875 350.667969 C 195.6875 359.75 182.222656 369.183594 170.761719 379.910156 C 158.644531 391.25 148.238281 403.9375 138.171875 416.210938 C 126.003906 431.046875 114.511719 445.0625 101.15625 455.371094 C 61.996094 485.59375 24.832031 490.105469 6.160156 490.105469 C 5.574219 490.105469 5.101562 490.550781 5.101562 491.105469 C 5.101562 491.660156 5.574219 492.105469 6.160156 492.105469 C 25.109375 492.105469 62.820312 487.535156 102.492188 456.917969 C 116.035156 446.464844 127.601562 432.363281 139.84375 417.433594 C 149.863281 405.210938 160.226562 392.578125 172.246094 381.328125 C 180.195312 373.890625 189.152344 367.058594 198.328125 360.523438 C 191.085938 367.382812 184.003906 374.375 177.417969 381.5625 C 165.6875 394.363281 155.109375 407.78125 144.875 420.753906 C 131.265625 438.007812 118.410156 454.304688 104.285156 467.40625 C 69.480469 499.691406 32.828125 518.96875 6.25 518.96875 C 5.667969 518.96875 5.195312 519.414062 5.195312 519.96875 C 5.195312 520.523438 5.667969 520.96875 6.25 520.96875 C 33.367188 520.96875 70.566406 501.476562 105.761719 468.835938 C 120.003906 455.625 132.90625 439.269531 146.5625 421.949219 C 156.777344 409.003906 167.335938 395.617188 179.015625 382.871094 C 188.421875 372.609375 198.855469 362.695312 209.347656 353.050781 C 200.761719 362.921875 192.21875 372.894531 184.125 382.859375 C 173.914062 395.4375 164.152344 408.128906 154.707031 420.398438 C 138.21875 441.835938 122.640625 462.082031 106.628906 479.242188 C 65.34375 523.476562 29.730469 547.839844 6.347656 547.839844 C 5.761719 547.839844 5.289062 548.285156 5.289062 548.839844 C 5.289062 549.394531 5.761719 549.839844 6.347656 549.839844 C 30.34375 549.839844 66.519531 525.238281 108.210938 480.5625 C 124.285156 463.335938 139.894531 443.050781 156.414062 421.574219 C 165.847656 409.316406 175.601562 396.636719 185.800781 384.082031 C 195.636719 371.964844 206.140625 359.808594 216.589844 347.867188 C 217.015625 347.574219 217.4375 347.285156 217.863281 346.996094 C 133.421875 462.8125 48.453125 576.710938 6.445312 576.710938 C 5.859375 576.710938 5.386719 577.15625 5.386719 577.710938 C 5.386719 578.261719 5.859375 578.710938 6.445312 578.710938 C 50.164062 578.710938 133.609375 466.152344 223.042969 343.410156 C 234.128906 335.695312 245.121094 327.628906 254.707031 318.65625 C 266.824219 307.316406 277.230469 294.628906 287.292969 282.355469 C 299.464844 267.519531 310.957031 253.503906 324.316406 243.191406 C 363.476562 212.972656 400.640625 208.457031 419.3125 208.457031 C 446.933594 208.457031 469.71875 229.253906 483.476562 267.019531 C 488.65625 281.242188 489.914062 298.089844 491.242188 315.925781 C 492.304688 330.226562 493.40625 345.011719 496.597656 359.652344 C 499.867188 374.671875 505.949219 389.695312 511.832031 404.226562 C 517.6875 418.683594 523.742188 433.636719 526.976562 448.496094 C 530.136719 463.011719 531.230469 477.730469 532.292969 491.964844 C 533.632812 509.9375 534.898438 526.910156 540.171875 541.386719 C 541.457031 544.914062 542.84375 548.246094 544.285156 551.480469 C 545.09375 555.480469 545.992188 559.410156 547.046875 563.203125 C 549.476562 571.933594 552.152344 579.945312 555.011719 587.332031 C 558.507812 602.894531 562.289062 616.648438 566.339844 628.5625 C 578.722656 689.164062 594.523438 728.859375 617.449219 728.859375 C 662.976562 728.859375 684.75 578.269531 707.746094 418.578125 C 708.171875 416.660156 708.59375 414.71875 709.019531 412.8125 C 709.332031 411.402344 709.644531 409.972656 709.957031 408.554688 C 710.019531 408.363281 710.082031 408.164062 710.144531 407.972656 C 711 405.304688 711.855469 402.625 712.714844 399.933594 C 718.890625 386.386719 725.070312 372.441406 728.835938 358.398438 C 732.792969 343.648438 734.664062 328.664062 736.476562 314.171875 C 738.742188 296.078125 740.878906 278.992188 746.820312 264.675781 C 762.460938 226.957031 786.40625 206.183594 814.242188 206.183594 C 830.863281 206.183594 845.089844 210.113281 856.839844 217.847656 C 867.046875 259.652344 875.859375 308.984375 884.554688 357.667969 C 907.617188 486.789062 929.394531 608.742188 974.980469 608.742188 C 1020.121094 608.742188 1110.660156 519.535156 1198.214844 433.265625 C 1198.605469 432.878906 1199 432.488281 1199.394531 432.101562 C 1201.820312 430.238281 1204.25 428.367188 1206.65625 426.519531 C 1209.867188 424.058594 1213.101562 421.574219 1216.34375 419.074219 C 1221.675781 416.152344 1227.050781 413.167969 1232.390625 410.113281 C 1243.507812 406.4375 1254.625 402.40625 1264.679688 397.054688 C 1277.183594 390.394531 1288.46875 381.851562 1299.386719 373.589844 C 1312.25 363.851562 1324.402344 354.65625 1337.667969 349.035156 C 1365.6875 337.160156 1393.761719 337.363281 1416.34375 337.53125 C 1418.953125 337.550781 1421.488281 337.570312 1423.953125 337.570312 C 1424.535156 337.570312 1425.011719 337.125 1425.011719 336.570312 C 1425.015625 336.027344 1424.546875 335.578125 1423.960938 335.578125 Z M 1218.917969 414.507812 C 1217.660156 415.480469 1216.40625 416.460938 1215.152344 417.433594 C 1214.769531 417.640625 1214.382812 417.855469 1214.003906 418.0625 C 1213.753906 418.203125 1213.496094 418.347656 1213.242188 418.484375 C 1214.316406 417.421875 1215.394531 416.363281 1216.472656 415.308594 C 1217.289062 415.042969 1218.101562 414.773438 1218.917969 414.507812 Z M 1164.324219 457.429688 C 1153.753906 466.335938 1143.585938 475.480469 1133.753906 484.320312 C 1116.988281 499.390625 1101.148438 513.632812 1085.125 525.175781 C 1047.964844 551.964844 1014.4375 566.710938 990.714844 566.710938 C 962.097656 566.710938 942.824219 528.277344 931.691406 496.035156 C 925.511719 478.148438 921.449219 457.484375 917.148438 435.609375 C 914.925781 424.304688 912.625 412.613281 909.945312 400.867188 C 906.367188 385.195312 901.851562 369.105469 897.492188 353.546875 C 893.132812 338.015625 888.625 321.949219 885.058594 306.324219 C 882.382812 294.601562 880.085938 282.921875 877.867188 271.628906 C 874.804688 256.054688 871.847656 241.113281 868.171875 227.300781 C 869.878906 229.074219 871.527344 230.941406 873.085938 232.9375 C 877.472656 245.054688 880.140625 258.816406 882.910156 273.269531 C 885.199219 285.222656 887.574219 297.589844 891.089844 309.855469 C 895.007812 323.511719 900.777344 337.222656 906.355469 350.480469 C 911.914062 363.683594 917.660156 377.335938 921.546875 390.886719 C 925.039062 403.070312 927.402344 415.390625 929.683594 427.308594 C 933.011719 444.652344 936.152344 461.03125 942.351562 474.871094 C 957.902344 509.5625 980.660156 528.671875 1006.4375 528.671875 C 1023.648438 528.671875 1058.46875 525.238281 1098.292969 502.238281 C 1112.570312 494 1125.925781 482.804688 1140.066406 470.949219 C 1150.832031 461.921875 1161.96875 452.585938 1173.992188 444.207031 C 1182.539062 438.25 1191.78125 432.792969 1201.09375 427.546875 C 1200.046875 428.578125 1199 429.605469 1197.957031 430.636719 C 1186.609375 439.371094 1175.132812 448.320312 1164.324219 457.429688 Z M 861.253906 211.585938 C 862.269531 214.535156 863.214844 217.582031 864.128906 220.675781 C 862.433594 219.265625 860.664062 217.96875 858.851562 216.738281 C 857.371094 210.652344 855.855469 204.742188 854.316406 199.011719 C 855.980469 201.109375 857.582031 203.375 859.15625 205.714844 C 859.882812 207.691406 860.582031 209.652344 861.253906 211.585938 Z M 878.265625 240.378906 C 884.878906 251.144531 887.609375 265 890.496094 279.671875 C 892.683594 290.773438 894.941406 302.257812 899.039062 313.230469 C 903.394531 324.898438 910.46875 336.101562 917.304688 346.933594 C 924.089844 357.683594 931.105469 368.792969 935.390625 380.273438 C 939.4375 391.097656 941.679688 402.503906 943.851562 413.53125 C 946.773438 428.378906 949.53125 442.398438 956.332031 453.464844 C 970.675781 476.804688 992.828125 488.636719 1022.171875 488.636719 C 1024.628906 488.636719 1027.164062 488.660156 1029.761719 488.675781 C 1052.558594 488.84375 1080.886719 489.046875 1109.332031 476.992188 C 1122.839844 471.265625 1135.089844 461.992188 1148.058594 452.175781 C 1158.90625 443.96875 1170.125 435.472656 1182.480469 428.894531 C 1191.667969 424.003906 1201.820312 420.210938 1212.042969 416.773438 C 1210.222656 418.566406 1208.398438 420.359375 1206.578125 422.15625 C 1195.019531 428.539062 1183.386719 435.1875 1172.75 442.601562 C 1160.648438 451.03125 1149.480469 460.394531 1138.675781 469.453125 C 1124.609375 481.25 1111.316406 492.386719 1097.207031 500.535156 C 1057.816406 523.277344 1023.433594 526.671875 1006.445312 526.671875 C 981.570312 526.671875 959.5 508 944.304688 474.09375 C 938.195312 460.457031 935.074219 444.183594 931.769531 426.953125 C 929.480469 415 927.109375 402.632812 923.589844 390.367188 C 919.675781 376.707031 913.90625 362.996094 908.324219 349.742188 C 902.765625 336.535156 897.019531 322.882812 893.132812 309.332031 C 889.640625 297.148438 887.277344 284.828125 884.996094 272.914062 C 882.691406 260.910156 880.457031 249.390625 877.253906 238.832031 C 877.589844 239.355469 877.941406 239.847656 878.265625 240.378906 Z M 870.722656 226.960938 C 869.546875 225.691406 868.328125 224.476562 867.085938 223.3125 C 866.175781 220.09375 865.214844 216.949219 864.207031 213.871094 C 866.371094 217.707031 868.4375 221.792969 870.382812 226.136719 C 870.5 226.402344 870.601562 226.691406 870.722656 226.960938 Z M 856.207031 198.09375 C 855.160156 196.765625 854.097656 195.503906 853.019531 194.273438 C 852.105469 190.988281 851.179688 187.765625 850.242188 184.617188 C 852.386719 189.035156 854.375 193.5625 856.207031 198.09375 Z M 849.667969 190.660156 C 837.457031 178.191406 823.378906 171.554688 808.238281 171.554688 C 782.058594 171.554688 758.550781 199.464844 742.042969 250.140625 C 736.339844 267.648438 733.570312 287.660156 730.640625 308.847656 C 728.519531 324.160156 726.332031 339.988281 722.898438 355.839844 C 720.738281 365.816406 717.925781 375.902344 714.890625 385.921875 C 717.144531 375.304688 719.300781 364.667969 721.175781 354.191406 C 723.863281 339.167969 726.128906 324.261719 728.320312 309.847656 C 732.339844 283.414062 736.132812 258.449219 741.949219 236.402344 C 753.433594 192.84375 773.214844 140.914062 802.230469 140.914062 C 819.722656 140.914062 833.71875 155.285156 844.503906 173.8125 C 846.265625 179.183594 847.988281 184.808594 849.667969 190.660156 Z M 796.21875 108.269531 C 814.464844 108.269531 829.039062 130.289062 841.417969 164.832031 C 829.667969 147.644531 816.570312 138.910156 802.226562 138.910156 C 777.839844 138.910156 756.867188 171.546875 739.894531 235.910156 C 734.054688 258.054688 730.253906 283.074219 726.226562 309.558594 C 724.039062 323.960938 721.773438 338.851562 719.089844 353.851562 C 716.980469 365.644531 714.503906 377.648438 711.941406 389.597656 C 732.664062 246.8125 755.140625 108.269531 796.21875 108.269531 Z M 606.335938 601.308594 C 622.996094 601.308594 654.164062 593.542969 675.730469 541.550781 C 681.761719 526.996094 683.914062 509.785156 686.199219 491.558594 C 688 477.132812 689.867188 462.21875 693.785156 447.597656 C 696.558594 437.25 700.683594 426.921875 705.140625 416.753906 C 700.691406 430.761719 696.367188 445.042969 693.3125 459.144531 C 689.863281 475.0625 687.671875 490.933594 685.546875 506.277344 C 682.625 527.375 679.871094 547.308594 674.21875 564.652344 C 658.007812 614.417969 635.21875 641.828125 610.042969 641.828125 C 592.363281 641.828125 576.410156 627.816406 563.542969 601.726562 C 562.144531 593.714844 560.789062 585.445312 559.46875 576.957031 C 572.351562 592.855469 588.332031 601.308594 606.335938 601.308594 Z M 702.765625 431.542969 C 699.90625 444.738281 697.132812 458.039062 694.800781 471.085938 C 692.113281 486.109375 689.847656 501.011719 687.660156 515.425781 C 683.640625 541.855469 679.84375 566.820312 674.03125 588.867188 C 662.546875 632.425781 642.765625 684.347656 613.75 684.347656 C 593.859375 684.347656 579.132812 658.988281 568.601562 628.453125 C 567.277344 622.011719 565.996094 615.34375 564.746094 608.464844 C 577.46875 631.5 592.9375 643.832031 610.042969 643.832031 C 636.222656 643.832031 659.730469 615.921875 676.238281 565.242188 C 681.941406 547.734375 684.710938 527.722656 687.640625 506.535156 C 689.757812 491.226562 691.949219 475.394531 695.382812 459.546875 C 697.394531 450.261719 699.972656 440.882812 702.765625 431.542969 Z M 556.667969 585.113281 C 555.484375 579.761719 554.421875 574.234375 553.441406 568.578125 C 554.5 570.214844 555.582031 571.804688 556.695312 573.324219 C 557.765625 580.375 558.859375 587.269531 559.984375 593.992188 C 558.988281 591.691406 558.015625 589.328125 557.066406 586.875 C 556.933594 586.289062 556.796875 585.695312 556.667969 585.113281 Z M 456.660156 83.246094 C 500.398438 83.246094 518.5 246.898438 536.007812 405.164062 C 542.382812 462.820312 548.640625 519.363281 555.988281 568.65625 C 554.808594 566.882812 553.65625 565.035156 552.539062 563.109375 C 549.851562 546.449219 547.804688 528.65625 545.695312 510.128906 C 544.007812 495.324219 542.269531 480.019531 540.101562 464.574219 C 537.320312 444.734375 533.609375 424.277344 530.015625 404.492188 C 526.429688 384.722656 522.722656 364.285156 519.949219 344.484375 C 517.785156 329.058594 516.039062 313.761719 514.355469 298.972656 C 511.28125 271.976562 508.378906 246.476562 503.359375 223.808594 C 488.539062 156.90625 468.636719 122.984375 444.210938 122.984375 C 420.214844 122.984375 384.039062 147.589844 342.34375 192.261719 C 326.265625 209.492188 310.660156 229.78125 294.136719 251.261719 C 284.707031 263.519531 274.953125 276.195312 264.753906 288.75 C 260.023438 294.578125 255.109375 300.410156 250.148438 306.230469 C 332.960938 192.773438 415.464844 83.246094 456.660156 83.246094 Z M 549.539062 557.628906 C 548.429688 555.464844 547.355469 553.230469 546.324219 550.910156 C 543.402344 536.390625 541.875 520.542969 540.300781 503.957031 C 538.832031 488.488281 537.3125 472.484375 534.539062 456.382812 C 531.535156 438.972656 526.65625 421.207031 521.929688 404.03125 C 517.21875 386.894531 512.351562 369.171875 509.363281 351.855469 C 506.597656 335.820312 505.082031 319.855469 503.617188 304.417969 C 501.597656 283.140625 499.6875 263.039062 494.761719 245.34375 C 480.277344 193.355469 457.910156 164.726562 431.769531 164.726562 C 404.652344 164.726562 367.449219 184.214844 332.257812 216.859375 C 318.015625 230.070312 305.113281 246.425781 291.453125 263.746094 C 281.242188 276.691406 270.683594 290.078125 259.003906 302.824219 C 251.707031 310.792969 243.78125 318.539062 235.695312 326.121094 C 246.125 314.207031 256.609375 302.070312 266.4375 289.96875 C 276.652344 277.394531 286.410156 264.703125 295.851562 252.433594 C 312.34375 230.996094 327.921875 210.746094 343.9375 193.585938 C 385.222656 149.347656 420.835938 124.984375 444.21875 124.984375 C 473.230469 124.984375 491.273438 178.945312 501.296875 224.214844 C 506.296875 246.785156 509.195312 272.234375 512.265625 299.179688 C 513.949219 313.984375 515.691406 329.292969 517.859375 344.742188 C 520.640625 364.578125 524.351562 385.039062 527.941406 404.824219 C 531.527344 424.59375 535.238281 445.03125 538.011719 464.828125 C 540.175781 480.253906 541.921875 495.546875 543.601562 510.335938 C 545.46875 526.761719 547.28125 542.613281 549.539062 557.628906 Z M 542.171875 540.746094 C 536.988281 526.523438 535.738281 509.671875 534.40625 491.835938 C 533.339844 477.535156 532.238281 462.746094 529.046875 448.105469 C 525.777344 433.082031 519.691406 418.054688 513.808594 403.519531 C 507.957031 389.066406 501.90625 374.121094 498.667969 359.261719 C 495.507812 344.75 494.414062 330.03125 493.355469 315.796875 C 492.015625 297.828125 490.75 280.851562 485.476562 266.378906 C 471.402344 227.746094 447.90625 206.46875 419.316406 206.46875 C 400.363281 206.46875 362.652344 211.039062 322.984375 241.65625 C 309.441406 252.109375 297.875 266.210938 285.628906 281.140625 C 275.605469 293.363281 265.242188 306 253.222656 317.246094 C 245.171875 324.785156 236.078125 331.695312 226.773438 338.308594 C 227.605469 337.164062 228.4375 336.019531 229.269531 334.875 C 240.085938 324.949219 250.871094 314.742188 260.589844 304.136719 C 272.320312 291.335938 282.902344 277.917969 293.136719 264.945312 C 306.746094 247.6875 319.597656 231.390625 333.726562 218.289062 C 368.53125 186.003906 405.179688 166.730469 431.757812 166.730469 C 456.851562 166.730469 478.496094 194.832031 492.707031 245.855469 C 497.589844 263.390625 499.492188 283.40625 501.503906 304.597656 C 502.972656 320.074219 504.492188 336.074219 507.269531 352.179688 C 510.269531 369.589844 515.152344 387.355469 519.875 404.535156 C 524.585938 421.671875 529.453125 439.390625 532.441406 456.707031 C 535.207031 472.738281 536.722656 488.699219 538.1875 504.136719 C 539.421875 517.160156 540.621094 529.734375 542.496094 541.589844 C 542.394531 541.300781 542.28125 541.035156 542.171875 540.746094 Z M 548.410156 560.007812 C 549.09375 561.292969 549.800781 562.535156 550.511719 563.765625 C 550.988281 566.714844 551.488281 569.628906 552.015625 572.503906 C 551.011719 569.332031 550.035156 566.078125 549.097656 562.707031 C 548.851562 561.824219 548.640625 560.902344 548.410156 560.007812 Z M 559.96875 599.0625 C 560.414062 600.027344 560.875 600.949219 561.332031 601.878906 C 561.746094 604.265625 562.164062 606.628906 562.589844 608.96875 C 561.671875 605.667969 560.796875 602.359375 559.96875 599.0625 Z M 617.457031 726.871094 C 597.789062 726.871094 583.304688 693.761719 571.726562 642.945312 C 583.6875 671.792969 597.746094 686.351562 613.75 686.351562 C 638.136719 686.351562 659.109375 653.714844 676.082031 589.351562 C 681.921875 567.207031 685.722656 542.195312 689.746094 515.710938 C 691.9375 501.3125 694.199219 486.417969 696.882812 471.421875 C 698.199219 464.070312 699.675781 456.628906 701.203125 449.175781 C 680.628906 590.667969 658.183594 726.871094 617.457031 726.871094 Z M 814.25 204.195312 C 797.589844 204.195312 766.417969 211.960938 744.859375 263.953125 C 738.824219 278.507812 736.667969 295.722656 734.390625 313.949219 C 732.582031 328.375 730.71875 343.296875 726.796875 357.914062 C 724.585938 366.164062 721.511719 374.398438 718.101562 382.554688 C 720.695312 373.785156 723.074219 364.976562 724.96875 356.238281 C 728.417969 340.316406 730.609375 324.449219 732.734375 309.105469 C 735.652344 288.003906 738.410156 268.074219 744.058594 250.730469 C 760.273438 200.964844 783.066406 173.554688 808.238281 173.554688 C 823.902344 173.554688 838.449219 180.972656 850.875 194.925781 C 852.671875 201.371094 854.421875 208.058594 856.136719 214.96875 C 844.429688 207.816406 830.441406 204.195312 814.25 204.195312 Z M 974.988281 606.753906 C 931.1875 606.753906 908.542969 479.960938 886.644531 357.347656 C 877.894531 308.347656 869.324219 260.386719 859.570312 219.722656 C 861.527344 221.160156 863.394531 222.734375 865.203125 224.398438 C 869.300781 239.078125 872.480469 255.171875 875.789062 272 C 878.011719 283.308594 880.316406 295 882.996094 306.75 C 886.574219 322.425781 891.085938 338.511719 895.449219 354.066406 C 899.804688 369.605469 904.3125 385.667969 907.882812 401.296875 C 910.558594 413.019531 912.851562 424.691406 915.070312 435.984375 C 919.390625 457.925781 923.460938 478.652344 929.683594 496.664062 C 946.191406 544.476562 966.722656 568.71875 990.714844 568.71875 C 1014.898438 568.71875 1048.878906 553.824219 1086.40625 526.773438 C 1102.519531 515.160156 1118.398438 500.890625 1135.207031 485.777344 C 1145.027344 476.945312 1155.183594 467.816406 1165.726562 458.933594 C 1172.15625 453.511719 1178.828125 448.148438 1185.574219 442.847656 C 1101.875 525.242188 1017.351562 606.753906 974.988281 606.753906 Z M 974.988281 606.753906 " fill-opacity="1" fill-rule="nonzero"/><g clip-path="url(#06cac3c178)"><path fill="#d5a79a" d="M 1429.335938 441.136719 C 1415.921875 441.136719 1403.539062 432.152344 1391.566406 423.464844 C 1382.0625 416.570312 1372.234375 409.441406 1361.953125 406.902344 C 1350.886719 404.167969 1337.980469 406.371094 1325.5 408.503906 C 1311.613281 410.878906 1297.257812 413.328125 1285.699219 408.875 C 1284.484375 408.40625 1283.308594 407.835938 1282.152344 407.21875 C 1282.449219 407.257812 1282.742188 407.332031 1283.042969 407.367188 C 1295.507812 408.679688 1308.585938 404.140625 1321.234375 399.75 C 1333.132812 395.621094 1345.410156 391.355469 1356.871094 392.164062 C 1368.246094 392.976562 1379.703125 398.753906 1390.78125 404.34375 C 1402.871094 410.445312 1415.375 416.753906 1427.996094 416.753906 C 1428.582031 416.753906 1429.054688 416.308594 1429.054688 415.753906 C 1429.054688 415.199219 1428.582031 414.753906 1427.996094 414.753906 C 1415.902344 414.753906 1403.636719 408.566406 1391.777344 402.582031 C 1380.503906 396.890625 1368.847656 391.011719 1357.03125 390.171875 C 1345.128906 389.316406 1332.617188 393.671875 1320.507812 397.875 C 1308.089844 402.1875 1295.234375 406.644531 1283.28125 405.382812 C 1281.328125 405.175781 1279.386719 404.769531 1277.453125 404.277344 C 1277.121094 404.039062 1276.804688 403.769531 1276.476562 403.523438 C 1277.246094 403.453125 1278.027344 403.417969 1278.792969 403.3125 C 1291.390625 401.601562 1303.402344 395.488281 1315.019531 389.578125 C 1327.230469 383.363281 1338.769531 377.496094 1350.882812 376.324219 C 1364.828125 374.96875 1379.003906 379.261719 1392.707031 383.414062 C 1404.523438 386.992188 1415.691406 390.375 1426.648438 390.375 C 1427.234375 390.375 1427.707031 389.925781 1427.707031 389.375 C 1427.707031 388.820312 1427.234375 388.375 1426.648438 388.375 C 1416.015625 388.375 1405.007812 385.039062 1393.351562 381.507812 C 1379.445312 377.296875 1365.046875 372.941406 1350.671875 374.335938 C 1338.140625 375.550781 1325.878906 381.785156 1314.019531 387.820312 C 1302.566406 393.648438 1290.722656 399.671875 1278.492188 401.332031 C 1277.070312 401.527344 1275.632812 401.648438 1274.183594 401.726562 C 1273.476562 401.121094 1272.789062 400.472656 1272.09375 399.832031 C 1272.191406 399.796875 1272.296875 399.773438 1272.398438 399.734375 C 1285.015625 395.359375 1296.480469 387.9375 1307.566406 380.761719 C 1319.878906 372.789062 1331.503906 365.265625 1344.183594 361.9375 C 1362.703125 357.078125 1381.128906 359.421875 1398.941406 361.6875 C 1408.234375 362.871094 1417.007812 363.984375 1425.304688 363.984375 C 1425.886719 363.984375 1426.359375 363.535156 1426.359375 362.984375 C 1426.359375 362.433594 1425.886719 361.984375 1425.304688 361.984375 C 1417.152344 361.984375 1408.445312 360.878906 1399.226562 359.707031 C 1381.199219 357.414062 1362.5625 355.046875 1343.617188 360.011719 C 1330.597656 363.425781 1318.832031 371.042969 1306.375 379.109375 C 1295.394531 386.21875 1284.035156 393.566406 1271.667969 397.859375 C 1271.257812 398 1270.828125 398.113281 1270.414062 398.25 C 1266.082031 393.976562 1262.03125 389.0625 1258.050781 384.214844 C 1249.609375 373.929688 1240.882812 363.292969 1229.53125 358.914062 C 1217.402344 354.234375 1202.738281 356.738281 1188.558594 359.164062 C 1176.300781 361.261719 1163.632812 363.421875 1153.007812 360.800781 C 1143.140625 358.359375 1133.484375 351.355469 1124.148438 344.585938 C 1111.890625 335.691406 1099.21875 326.496094 1085.082031 326.496094 C 1074.554688 326.496094 1064.65625 333.804688 1055.925781 340.25 C 1048.328125 345.859375 1041.125 351.15625 1034.898438 350.84375 C 1024.539062 350.332031 1016.050781 342.277344 1007.84375 334.492188 C 1001.128906 328.121094 994.785156 322.101562 988.070312 321.28125 C 979.164062 320.195312 969.996094 325.585938 961.136719 330.792969 C 958.976562 332.0625 956.792969 333.34375 954.613281 334.53125 C 953.367188 334.464844 952.121094 334.402344 950.882812 334.347656 C 942.039062 333.929688 932.949219 333.464844 926.144531 330.035156 C 923.695312 328.410156 921.425781 326.660156 919.40625 324.765625 C 916.082031 321.0625 913.207031 316.203125 910.230469 311.125 C 910.1875 311.054688 910.144531 310.980469 910.101562 310.90625 C 908.238281 306.710938 906.6875 302.230469 905.167969 297.820312 C 902.972656 291.433594 900.695312 284.964844 897.496094 279.425781 C 894.9375 269.355469 891.820312 260.140625 885.585938 253.359375 C 870.304688 236.746094 846.820312 236.804688 824.117188 236.851562 L 820.261719 236.859375 C 787.707031 236.859375 763.667969 250.480469 748.820312 277.34375 C 742.152344 289.410156 740.335938 304.617188 738.40625 320.722656 C 736.835938 333.851562 735.210938 347.429688 730.84375 360.199219 C 728.421875 367.277344 724.859375 374.195312 720.863281 380.980469 C 718.824219 381.34375 716.773438 381.6875 714.730469 382.023438 C 703.5 383.851562 691.882812 385.742188 684.664062 392.132812 C 678.554688 397.539062 674.980469 406.824219 671.53125 415.800781 C 667.050781 427.4375 662.425781 439.46875 652.359375 443.554688 C 644.316406 446.824219 633.648438 442.402344 622.351562 437.722656 C 612.289062 433.550781 601.886719 429.238281 591.511719 429.238281 C 581.40625 429.238281 571.328125 435.265625 562.429688 440.582031 C 553.929688 445.660156 545.90625 450.445312 539.765625 448.878906 C 529.488281 446.238281 524.566406 435.234375 519.804688 424.585938 C 516.386719 416.945312 513.15625 409.726562 508.070312 406.125 C 507.808594 405.9375 507.507812 405.804688 507.234375 405.632812 C 506.710938 404.761719 506.1875 403.890625 505.667969 403.023438 C 498.644531 391.351562 491.386719 379.28125 487.820312 366.847656 C 484.285156 354.5 483.488281 341.457031 482.722656 328.84375 C 481.777344 313.273438 480.878906 298.570312 474.925781 286.835938 C 461.929688 261.222656 439.03125 248.234375 406.867188 248.234375 L 404.027344 248.230469 C 378.101562 248.210938 345.828125 248.167969 314.773438 266.949219 C 301.550781 274.941406 290.730469 287.285156 279.273438 300.359375 C 269.511719 311.496094 259.417969 323.007812 247.363281 332.203125 C 235.269531 341.429688 220.394531 348.25 206.007812 354.84375 C 199.285156 357.925781 192.464844 361.070312 185.847656 364.476562 C 182.617188 365.289062 179.425781 366.171875 176.285156 367.144531 C 173.84375 367.179688 171.425781 367.28125 169.035156 367.464844 C 162.515625 365.683594 156.042969 364.691406 149.777344 365.359375 C 137.667969 366.648438 126.101562 374.164062 114.914062 381.433594 C 103.523438 388.839844 91.742188 396.496094 79.632812 397.34375 C 67.53125 398.199219 54.664062 392.09375 42.25 386.195312 C 30.292969 380.515625 17.929688 374.640625 5.78125 374.640625 C 5.199219 374.640625 4.722656 375.085938 4.722656 375.636719 C 4.722656 376.191406 5.199219 376.636719 5.78125 376.636719 C 17.429688 376.636719 29.566406 382.40625 41.300781 387.980469 C 53.96875 394 67.058594 400.234375 79.789062 399.335938 C 92.472656 398.449219 104.488281 390.636719 116.113281 383.082031 C 127.082031 375.949219 138.429688 368.574219 150.015625 367.34375 C 154.246094 366.890625 158.617188 367.265625 163.054688 368.128906 C 159.585938 368.664062 156.210938 369.441406 152.992188 370.574219 C 140.804688 374.859375 130.246094 383.863281 120.035156 392.570312 C 108.789062 402.167969 98.160156 411.230469 85.703125 414.324219 C 70.484375 418.105469 54.242188 413.726562 38.539062 409.492188 C 27.109375 406.414062 16.3125 403.503906 5.878906 403.503906 C 5.296875 403.503906 4.824219 403.949219 4.824219 404.503906 C 4.824219 405.054688 5.296875 405.503906 5.878906 405.503906 C 16.015625 405.503906 26.675781 408.375 37.960938 411.417969 C 53.941406 415.722656 70.457031 420.179688 86.238281 416.261719 C 99.195312 413.042969 110.507812 403.394531 121.449219 394.058594 C 131.507812 385.476562 141.910156 376.601562 153.722656 372.453125 C 158.433594 370.796875 163.515625 369.917969 168.789062 369.480469 C 168.914062 369.515625 169.042969 369.554688 169.167969 369.59375 C 165.328125 371.0625 161.617188 372.722656 158.136719 374.703125 C 145.914062 381.660156 135.765625 392.007812 125.953125 402.015625 C 114.914062 413.28125 104.480469 423.921875 91.792969 429.355469 C 71.347656 438.121094 49.074219 435.914062 29.425781 433.964844 C 21.160156 433.148438 13.355469 432.375 5.972656 432.375 C 5.386719 432.375 4.914062 432.820312 4.914062 433.375 C 4.914062 433.925781 5.386719 434.375 5.972656 434.375 C 13.242188 434.375 20.996094 435.140625 29.203125 435.953125 C 49.121094 437.921875 71.691406 440.160156 92.664062 431.175781 C 105.738281 425.578125 116.308594 414.792969 127.503906 403.375 C 137.210938 393.46875 147.253906 383.226562 159.222656 376.414062 C 163.316406 374.085938 167.761719 372.191406 172.382812 370.550781 C 172.921875 370.71875 173.457031 370.890625 173.996094 371.070312 C 170.609375 373.152344 167.34375 375.351562 164.25 377.710938 C 152.03125 387.03125 141.867188 398.621094 132.042969 409.832031 C 120.691406 422.78125 109.96875 435.011719 97.027344 442.835938 C 66.488281 461.304688 34.578125 461.277344 8.90625 461.242188 L 6.0625 461.238281 C 5.480469 461.238281 5.007812 461.683594 5.007812 462.238281 C 5.007812 462.792969 5.480469 463.238281 6.0625 463.238281 L 8.902344 463.242188 C 34.839844 463.277344 67.101562 463.304688 98.160156 444.523438 C 111.382812 436.527344 122.207031 424.179688 133.664062 411.109375 C 143.425781 399.976562 153.519531 388.464844 165.570312 379.269531 C 169.011719 376.640625 172.699219 374.226562 176.519531 371.9375 C 180.109375 373.199219 183.695312 374.578125 187.25 375.957031 C 199.992188 380.910156 213.167969 386.03125 225.535156 384.71875 C 237.640625 383.433594 249.210938 375.914062 260.394531 368.644531 C 271.78125 361.242188 283.5625 353.585938 295.675781 352.738281 C 307.777344 351.878906 320.644531 357.984375 333.050781 363.882812 C 345.011719 369.566406 357.375 375.441406 369.519531 375.441406 C 379.621094 375.441406 389.703125 369.417969 398.601562 364.101562 C 407.101562 359.023438 415.132812 354.226562 421.261719 355.800781 C 431.542969 358.445312 436.46875 369.457031 441.234375 380.101562 C 444.652344 387.742188 447.886719 394.960938 452.96875 398.5625 C 459.914062 403.484375 470.386719 403.417969 480.527344 403.335938 C 482.890625 403.320312 485.277344 403.308594 487.625 403.355469 C 487.773438 403.433594 487.921875 403.515625 488.070312 403.59375 C 494.441406 407.042969 500.925781 410.589844 505.972656 414.867188 C 509.78125 419.386719 513.140625 424.066406 515.511719 428.988281 C 517.402344 434.398438 518.511719 440.496094 519.585938 446.484375 C 520.25 450.195312 520.949219 453.921875 521.816406 457.519531 C 521.984375 459.46875 522.140625 461.414062 522.289062 463.347656 C 523.140625 474.382812 524.007812 484.894531 527.90625 493.328125 C 528.894531 503.179688 530.597656 512.351562 534.570312 520.179688 C 547.566406 545.796875 570.464844 558.785156 602.628906 558.785156 C 635.1875 558.785156 659.222656 545.160156 674.070312 518.296875 C 680.738281 506.238281 682.554688 491.023438 684.484375 474.921875 C 686.054688 461.792969 687.679688 448.214844 692.046875 435.445312 C 696.445312 422.59375 704.527344 410.265625 712.339844 398.339844 C 714.714844 394.714844 717.101562 391.046875 719.421875 387.34375 C 720.578125 386.132812 721.71875 384.914062 722.839844 383.683594 C 723.648438 383.179688 724.449219 382.671875 725.238281 382.15625 C 732.929688 380.570312 740.113281 378.320312 745.148438 373.863281 C 751.257812 368.457031 754.828125 359.175781 758.28125 350.195312 C 762.761719 338.5625 767.386719 326.535156 777.449219 322.449219 C 785.496094 319.183594 796.164062 323.601562 807.453125 328.285156 C 817.511719 332.453125 827.914062 336.765625 838.289062 336.765625 C 848.816406 336.765625 858.714844 329.457031 867.445312 323.011719 C 875.039062 317.40625 882.253906 312.09375 888.46875 312.417969 C 897.417969 312.863281 904.96875 318.929688 912.148438 325.59375 C 916.839844 331.882812 922.628906 337.714844 928.3125 343.40625 C 936.34375 351.449219 944.644531 359.761719 949.492188 369.15625 C 954.046875 377.988281 956.414062 388.105469 958.699219 397.886719 C 961.78125 411.070312 964.691406 423.523438 972.582031 432.097656 C 987.859375 448.703125 1011.300781 448.640625 1034.039062 448.601562 L 1037.898438 448.597656 C 1046.054688 448.597656 1054.761719 449.703125 1063.980469 450.875 C 1082.003906 453.164062 1100.648438 455.539062 1119.59375 450.570312 C 1132.609375 447.15625 1144.371094 439.539062 1156.828125 431.476562 C 1167.804688 424.367188 1179.160156 417.015625 1191.53125 412.726562 C 1203.933594 408.421875 1218.039062 407.332031 1231.6875 406.28125 C 1240.996094 405.558594 1250.511719 404.796875 1259.621094 403.042969 C 1262.925781 403.460938 1266.21875 403.734375 1269.476562 403.792969 C 1271.785156 404.71875 1274.121094 405.464844 1276.472656 406.082031 C 1279.132812 407.976562 1281.925781 409.574219 1284.90625 410.726562 C 1297.027344 415.402344 1311.691406 412.898438 1325.878906 410.472656 C 1338.140625 408.378906 1350.8125 406.21875 1361.425781 408.835938 C 1371.296875 411.277344 1380.949219 418.277344 1390.285156 425.050781 C 1402.539062 433.9375 1415.210938 443.132812 1429.339844 443.132812 C 1429.921875 443.132812 1430.394531 442.6875 1430.394531 442.132812 C 1430.390625 441.582031 1429.921875 441.136719 1429.335938 441.136719 Z M 1271.191406 401.769531 C 1270.761719 401.773438 1270.339844 401.792969 1269.910156 401.785156 C 1269.332031 401.550781 1268.757812 401.285156 1268.183594 401.035156 C 1268.730469 400.875 1269.269531 400.695312 1269.8125 400.527344 C 1270.265625 400.957031 1270.734375 401.355469 1271.191406 401.769531 Z M 1259.546875 401.011719 C 1253.171875 400.183594 1246.71875 398.824219 1240.371094 397.480469 C 1227.417969 394.742188 1214.03125 391.914062 1201.488281 393.613281 C 1188.890625 395.324219 1176.878906 401.4375 1165.265625 407.347656 C 1153.054688 413.5625 1141.515625 419.433594 1129.402344 420.609375 C 1115.449219 421.945312 1101.277344 417.667969 1087.574219 413.515625 C 1075.753906 409.9375 1064.589844 406.554688 1053.625 406.554688 C 1045.5625 406.554688 1037.4375 407.929688 1029.578125 409.253906 C 1015.839844 411.578125 1002.859375 413.773438 993.402344 407.816406 C 984.53125 402.234375 980.746094 391.25 976.742188 379.621094 C 973.808594 371.09375 970.773438 362.28125 965.519531 355.640625 C 960.617188 349.445312 953.179688 344.929688 945.476562 340.796875 C 948.683594 339.78125 951.894531 338.265625 955.089844 336.546875 C 963.464844 337.023438 971.714844 337.9375 977.648438 341.816406 C 983.132812 345.402344 987.15625 352.269531 991.421875 359.539062 C 997.347656 369.648438 1003.476562 380.101562 1014.40625 383.222656 C 1022.308594 385.484375 1031.617188 381.285156 1041.472656 376.835938 C 1050.542969 372.746094 1059.921875 368.515625 1069.351562 368.515625 C 1081.449219 368.515625 1093.710938 374.703125 1105.574219 380.6875 C 1116.84375 386.375 1128.503906 392.257812 1140.324219 393.097656 C 1152.1875 393.9375 1164.734375 389.59375 1176.839844 385.394531 C 1189.265625 381.085938 1202.109375 376.632812 1214.074219 377.890625 C 1225.75 379.125 1237.117188 385.910156 1248.113281 392.476562 C 1252.753906 395.246094 1257.464844 398.035156 1262.253906 400.464844 C 1261.359375 400.671875 1260.453125 400.835938 1259.546875 401.011719 Z M 962.246094 332.476562 C 970.796875 327.453125 979.636719 322.242188 987.804688 323.25 C 993.800781 323.980469 999.898438 329.765625 1006.351562 335.890625 C 1014.445312 343.570312 1023.617188 352.273438 1034.792969 352.828125 C 1041.894531 353.167969 1049.316406 347.65625 1057.230469 341.8125 C 1066.105469 335.261719 1075.285156 328.484375 1085.089844 328.484375 C 1098.507812 328.484375 1110.890625 337.472656 1122.867188 346.160156 C 1132.371094 353.054688 1142.199219 360.183594 1152.480469 362.722656 C 1163.550781 365.457031 1176.453125 363.25 1188.933594 361.125 C 1202.820312 358.75 1217.179688 356.296875 1228.742188 360.753906 C 1239.5625 364.933594 1248.117188 375.351562 1256.386719 385.433594 C 1260.195312 390.066406 1264.070312 394.746094 1268.207031 398.921875 C 1267.242188 399.207031 1266.265625 399.472656 1265.289062 399.722656 C 1259.859375 397.113281 1254.507812 393.933594 1249.242188 390.789062 C 1238.050781 384.109375 1226.46875 377.195312 1214.316406 375.914062 C 1201.855469 374.601562 1188.773438 379.136719 1176.121094 383.527344 C 1164.226562 387.65625 1151.933594 391.917969 1140.488281 391.113281 C 1129.109375 390.304688 1117.652344 384.523438 1106.574219 378.933594 C 1094.484375 372.832031 1081.984375 366.523438 1069.363281 366.523438 C 1059.457031 366.523438 1049.855469 370.855469 1040.574219 375.042969 C 1031.101562 379.320312 1022.144531 383.355469 1015.023438 381.320312 C 1004.917969 378.429688 999 368.335938 993.277344 358.578125 C 988.890625 351.097656 984.746094 344.03125 978.855469 340.179688 C 973.238281 336.507812 965.921875 335.324219 958.339844 334.757812 C 959.640625 334 960.949219 333.242188 962.246094 332.476562 Z M 950.773438 336.328125 C 950.867188 336.332031 950.964844 336.335938 951.058594 336.339844 C 948.308594 337.675781 945.570312 338.75 942.871094 339.410156 C 942.066406 338.988281 941.261719 338.5625 940.460938 338.148438 C 938.28125 337.011719 936.085938 335.863281 933.925781 334.679688 C 939.253906 335.75 945.058594 336.054688 950.773438 336.328125 Z M 913.769531 324.292969 C 911.84375 321.699219 910.097656 319.039062 908.671875 316.277344 C 906.808594 312.667969 905.324219 308.835938 904.050781 304.90625 C 905.480469 307.140625 906.847656 309.457031 908.195312 311.765625 C 909.914062 315.617188 911.894531 319.257812 914.378906 322.398438 C 915.421875 323.714844 916.609375 324.933594 917.855469 326.109375 C 919.386719 327.800781 921.003906 329.304688 922.800781 330.480469 C 923.492188 330.929688 924.230469 331.304688 924.96875 331.683594 C 929.492188 334.6875 934.503906 337.320312 939.441406 339.898438 C 939.492188 339.925781 939.539062 339.949219 939.589844 339.976562 C 938.242188 340.109375 936.902344 340.160156 935.582031 340 C 929.582031 339.269531 923.488281 333.484375 917.027344 327.359375 C 915.960938 326.347656 914.875 325.320312 913.769531 324.292969 Z M 904.160156 301.3125 C 903.515625 300.378906 902.855469 299.464844 902.175781 298.582031 C 901.34375 295.503906 900.601562 292.40625 899.882812 289.324219 C 901.027344 292.253906 902.089844 295.308594 903.160156 298.421875 C 903.488281 299.382812 903.820312 300.351562 904.160156 301.3125 Z M 528.890625 478.070312 C 528.792969 476.441406 528.691406 474.808594 528.585938 473.171875 C 529.929688 474.882812 531.433594 476.453125 533.28125 477.703125 C 537.1875 480.347656 541.78125 481.316406 546.824219 481.316406 C 553.5625 481.316406 561.109375 479.582031 568.898438 477.792969 C 577.542969 475.804688 586.484375 473.746094 595.21875 473.746094 C 603.0625 473.746094 611.226562 474.921875 619.125 476.058594 C 636.0625 478.492188 652.066406 480.792969 663.542969 471.769531 C 672.710938 464.558594 675.40625 451.78125 678.257812 438.253906 C 680.425781 427.964844 682.667969 417.324219 687.992188 409.316406 C 693.628906 400.835938 704.136719 394.710938 714.304688 388.789062 C 714.96875 388.402344 715.632812 388.011719 716.296875 387.621094 C 714.808594 389.15625 713.316406 390.679688 711.824219 392.195312 C 702.683594 401.46875 693.226562 411.058594 688.183594 422.070312 C 683.226562 432.898438 681.539062 445.175781 679.902344 457.046875 C 677.933594 471.347656 676.074219 484.851562 668.734375 494.128906 C 652.761719 514.320312 626.738281 514.277344 601.492188 514.269531 L 598.925781 514.269531 C 596.332031 514.269531 593.726562 514.292969 591.125 514.320312 C 568.027344 514.535156 546.226562 514.75 533.234375 498.242188 C 531.933594 496.589844 530.902344 494.742188 529.984375 492.808594 C 529.511719 488.027344 529.195312 483.101562 528.890625 478.070312 Z M 897.402344 287.984375 C 897.941406 290.289062 898.484375 292.609375 899.058594 294.929688 C 895.761719 291.472656 891.945312 288.761719 887.238281 287.414062 C 879.328125 285.148438 870.019531 289.351562 860.164062 293.796875 C 851.089844 297.890625 841.710938 302.121094 832.28125 302.121094 C 824.441406 302.121094 816.273438 300.945312 808.375 299.8125 C 791.4375 297.375 775.4375 295.074219 763.957031 304.097656 C 754.789062 311.308594 752.097656 324.085938 749.242188 337.613281 C 747.074219 347.90625 744.832031 358.542969 739.511719 366.550781 C 736.636719 370.875 732.492188 374.582031 727.773438 377.964844 C 731.46875 373.425781 734.714844 368.707031 737.015625 363.675781 C 741.972656 352.851562 743.660156 340.574219 745.296875 328.695312 C 747.261719 314.394531 749.121094 300.890625 756.460938 291.621094 C 772.433594 271.433594 798.460938 271.472656 823.695312 271.480469 L 826.269531 271.484375 C 834.335938 271.484375 842.457031 270.109375 850.316406 268.785156 C 864.058594 266.460938 877.035156 264.269531 886.5 270.222656 C 890.296875 272.613281 893.128906 276.03125 895.476562 280.027344 C 896.140625 282.632812 896.769531 285.289062 897.402344 287.984375 Z M 732.851562 360.796875 C 737.285156 347.835938 738.921875 334.15625 740.503906 320.929688 C 742.410156 305.015625 744.207031 289.984375 750.691406 278.253906 C 765.144531 252.101562 788.554688 238.84375 820.257812 238.84375 L 824.117188 238.835938 C 847.40625 238.789062 869.335938 238.734375 883.988281 254.65625 C 888.722656 259.800781 891.609375 266.535156 893.847656 274.035156 C 892.070312 271.910156 890.035156 270.046875 887.667969 268.558594 C 877.5 262.160156 864.117188 264.421875 849.949219 266.8125 C 842.179688 268.125 834.148438 269.484375 826.269531 269.484375 L 823.699219 269.480469 C 797.984375 269.492188 771.378906 269.433594 754.769531 290.421875 C 747.101562 300.113281 745.207031 313.875 743.199219 328.445312 C 741.585938 340.179688 739.914062 352.316406 735.074219 362.886719 C 732.570312 368.351562 728.902344 373.492188 724.714844 378.4375 C 727.941406 372.675781 730.792969 366.808594 732.851562 360.796875 Z M 539.210938 450.792969 C 540.210938 451.050781 541.234375 451.167969 542.285156 451.167969 C 548.640625 451.167969 555.914062 446.820312 563.554688 442.257812 C 572.210938 437.085938 582.015625 431.226562 591.511719 431.226562 C 601.445312 431.226562 611.640625 435.449219 621.503906 439.539062 C 633.230469 444.398438 644.300781 448.992188 653.191406 445.382812 C 664.097656 440.953125 668.882812 428.507812 673.515625 416.472656 C 677.039062 407.3125 680.367188 398.660156 686.105469 393.578125 C 692.867188 387.597656 704.160156 385.757812 715.085938 383.976562 C 716.558594 383.734375 718.035156 383.496094 719.511719 383.242188 C 719.476562 383.296875 719.449219 383.347656 719.414062 383.398438 C 717.355469 384.644531 715.273438 385.871094 713.195312 387.078125 C 702.824219 393.121094 692.09375 399.371094 686.203125 408.242188 C 680.675781 416.566406 678.394531 427.390625 676.1875 437.855469 C 673.410156 451.023438 670.789062 463.464844 662.195312 470.222656 C 651.445312 478.675781 635.902344 476.441406 619.441406 474.070312 C 611.464844 472.921875 603.21875 471.738281 595.21875 471.738281 C 586.230469 471.738281 577.164062 473.820312 568.398438 475.839844 C 555.261719 478.863281 542.84375 481.714844 534.511719 476.066406 C 531.875 474.285156 529.90625 471.875 528.304688 469.101562 C 527.589844 459.238281 526.476562 449.265625 523.71875 439.644531 C 523.097656 437.484375 522.335938 435.335938 521.523438 433.199219 C 525.5625 441.234375 530.699219 448.601562 539.210938 450.792969 Z M 523.921875 457.3125 C 523.359375 450.789062 522.585938 444.242188 520.980469 438.015625 C 521.210938 438.734375 521.472656 439.453125 521.679688 440.171875 C 523.867188 447.804688 525.003906 455.699219 525.734375 463.597656 C 525.023438 461.621094 524.449219 459.496094 523.921875 457.3125 Z M 505.65625 407.042969 C 507.832031 410.675781 509.988281 414.339844 512.027344 418.046875 C 510.710938 416.421875 509.191406 414.917969 507.527344 413.496094 C 504.980469 410.484375 502.273438 407.542969 499.535156 404.644531 C 501.785156 405.1875 503.839844 405.96875 505.65625 407.042969 Z M 515.035156 419.222656 C 513.875 417.050781 512.671875 414.890625 511.4375 412.746094 C 512.714844 414.65625 513.890625 416.867188 515.035156 419.222656 Z M 206.925781 356.625 C 221.417969 349.980469 236.40625 343.109375 248.6875 333.742188 C 260.910156 324.417969 271.070312 312.828125 280.898438 301.617188 C 292.246094 288.671875 302.96875 276.441406 315.910156 268.613281 C 346.445312 250.148438 378.359375 250.191406 404.027344 250.210938 L 406.871094 250.214844 C 438.152344 250.214844 460.414062 262.824219 473.027344 287.6875 C 478.796875 299.058594 479.675781 313.570312 480.613281 328.9375 C 481.386719 341.652344 482.1875 354.804688 485.785156 367.355469 C 489.40625 379.984375 496.695312 392.128906 503.757812 403.871094 C 501.710938 403.058594 499.496094 402.496094 497.152344 402.117188 C 489.035156 393.554688 480.703125 384.703125 476.714844 374.8125 C 472.761719 365.019531 471.894531 353.761719 471.054688 342.871094 C 469.984375 328.996094 468.972656 315.890625 461.8125 306.785156 C 448.179688 289.460938 424.800781 289.691406 402.203125 289.902344 C 399.609375 289.925781 397.011719 289.953125 394.425781 289.953125 C 387.15625 289.953125 379.402344 289.183594 371.195312 288.371094 C 351.285156 286.398438 328.710938 284.160156 307.742188 293.144531 C 294.664062 298.75 284.09375 309.535156 272.898438 320.949219 C 263.1875 330.855469 253.144531 341.097656 241.175781 347.914062 C 229.171875 354.746094 214.320312 358.019531 199.960938 361.1875 C 198.179688 361.578125 196.390625 361.972656 194.597656 362.375 C 198.695312 360.410156 202.828125 358.507812 206.925781 356.625 Z M 488.207031 401.359375 C 479.144531 396.449219 469.9375 391.316406 465.242188 384.042969 C 460.886719 377.300781 459.21875 367.976562 457.601562 358.960938 C 455.402344 346.679688 453.128906 333.980469 443.914062 327.742188 C 434.78125 321.558594 421.917969 324.519531 408.296875 327.652344 C 399.652344 329.640625 390.710938 331.695312 381.972656 331.695312 C 371.835938 331.695312 361.179688 328.824219 349.894531 325.785156 C 333.921875 321.476562 317.398438 317.027344 301.617188 320.941406 C 288.660156 324.160156 277.34375 333.808594 266.402344 343.144531 C 256.339844 351.726562 245.9375 360.597656 234.125 364.75 C 222.164062 368.957031 207.832031 368.269531 193.976562 367.597656 C 190.96875 367.453125 187.9375 367.316406 184.914062 367.21875 C 185.476562 366.921875 186.050781 366.632812 186.621094 366.335938 C 191.203125 365.1875 195.839844 364.152344 200.433594 363.136719 C 214.953125 359.9375 229.96875 356.625 242.257812 349.632812 C 254.484375 342.671875 264.628906 332.320312 274.441406 322.3125 C 285.488281 311.046875 295.917969 300.40625 308.609375 294.96875 C 329.054688 286.210938 351.320312 288.414062 370.972656 290.363281 C 379.234375 291.183594 387.039062 291.957031 394.421875 291.957031 C 397.019531 291.957031 399.621094 291.929688 402.21875 291.90625 C 425.335938 291.683594 447.125 291.472656 460.113281 307.984375 C 466.910156 316.617188 467.894531 329.441406 468.945312 343.015625 C 469.792969 354.050781 470.675781 365.457031 474.738281 375.527344 C 478.589844 385.070312 486.222656 393.542969 493.921875 401.699219 C 492.054688 401.523438 490.152344 401.40625 488.207031 401.359375 Z M 175.550781 369.472656 C 175.914062 369.355469 176.28125 369.242188 176.644531 369.128906 C 176.871094 369.125 177.09375 369.117188 177.320312 369.117188 C 176.972656 369.316406 176.632812 369.519531 176.285156 369.726562 C 176.039062 369.640625 175.792969 369.554688 175.550781 369.472656 Z M 480.511719 401.332031 C 470.742188 401.402344 460.617188 401.480469 454.242188 396.960938 C 449.613281 393.679688 446.492188 386.707031 443.1875 379.320312 C 438.453125 368.75 433.09375 356.765625 421.820312 353.871094 C 414.796875 352.054688 406.382812 357.089844 397.480469 362.410156 C 388.828125 367.582031 379.019531 373.441406 369.527344 373.441406 C 357.882812 373.441406 345.742188 367.675781 334.007812 362.097656 C 321.339844 356.078125 308.253906 349.855469 295.527344 350.742188 C 282.847656 351.628906 270.828125 359.441406 259.207031 366.996094 C 248.234375 374.128906 236.890625 381.503906 225.304688 382.734375 C 213.480469 384 200.554688 378.96875 188.058594 374.109375 C 184.992188 372.917969 181.902344 371.71875 178.804688 370.601562 C 179.65625 370.109375 180.511719 369.621094 181.375 369.144531 C 185.535156 369.21875 189.722656 369.402344 193.871094 369.601562 C 207.949219 370.28125 222.5 370.980469 234.863281 366.632812 C 247.050781 362.347656 257.613281 353.339844 267.820312 344.632812 C 279.070312 335.039062 289.695312 325.972656 302.15625 322.882812 C 317.375 319.101562 333.613281 323.476562 349.316406 327.710938 C 360.746094 330.792969 371.542969 333.703125 381.976562 333.703125 C 390.964844 333.703125 400.03125 331.617188 408.796875 329.601562 C 421.933594 326.582031 434.34375 323.726562 442.6875 329.375 C 451.195312 335.132812 453.292969 346.871094 455.523438 359.300781 C 457.171875 368.503906 458.875 378.019531 463.441406 385.089844 C 467.832031 391.894531 475.722656 396.800781 483.910156 401.320312 C 482.773438 401.320312 481.640625 401.324219 480.511719 401.332031 Z M 492.273438 403.570312 C 493.574219 403.660156 494.839844 403.800781 496.078125 403.980469 C 497.296875 405.269531 498.519531 406.566406 499.734375 407.867188 C 497.324219 406.375 494.808594 404.957031 492.273438 403.570312 Z M 524.65625 466.363281 C 525.128906 467.488281 525.652344 468.5625 526.21875 469.601562 C 526.429688 472.472656 526.605469 475.339844 526.78125 478.183594 C 526.914062 480.40625 527.054688 482.605469 527.203125 484.789062 C 525.824219 479.140625 525.171875 472.882812 524.65625 466.363281 Z M 690.039062 434.828125 C 685.605469 447.789062 683.96875 461.46875 682.386719 474.695312 C 680.480469 490.609375 678.679688 505.636719 672.199219 517.371094 C 657.75 543.523438 634.339844 556.785156 602.628906 556.785156 C 571.347656 556.785156 549.089844 544.179688 536.472656 519.316406 C 533.296875 513.046875 531.625 505.808594 530.585938 498.019531 C 530.910156 498.484375 531.183594 498.988281 531.539062 499.4375 C 543.644531 514.824219 563.445312 516.367188 583.558594 516.367188 C 586.089844 516.367188 588.625 516.34375 591.148438 516.316406 C 593.738281 516.292969 596.335938 516.269531 598.921875 516.269531 L 601.492188 516.269531 C 627.199219 516.289062 653.816406 516.320312 670.429688 495.328125 C 678.097656 485.636719 679.992188 471.875 681.996094 457.308594 C 683.613281 445.570312 685.285156 433.433594 690.121094 422.871094 C 694.8125 412.625 703.566406 403.519531 712.222656 394.730469 C 711.667969 395.585938 711.105469 396.4375 710.550781 397.285156 C 702.664062 409.3125 694.515625 421.746094 690.039062 434.828125 Z M 888.582031 310.421875 C 881.5 310.117188 874.0625 315.59375 866.148438 321.4375 C 857.273438 327.988281 848.09375 334.765625 838.292969 334.765625 C 828.355469 334.765625 818.160156 330.542969 808.300781 326.453125 C 796.578125 321.59375 785.507812 317.003906 776.621094 320.613281 C 765.71875 325.039062 760.929688 337.480469 756.300781 349.515625 C 752.777344 358.675781 749.445312 367.324219 743.707031 372.402344 C 740.109375 375.589844 735.210938 377.582031 729.78125 379.035156 C 734.367188 375.664062 738.414062 371.960938 741.296875 367.621094 C 746.828125 359.300781 749.109375 348.476562 751.316406 338.011719 C 754.089844 324.839844 756.714844 312.402344 765.304688 305.644531 C 776.054688 297.191406 791.597656 299.429688 808.058594 301.796875 C 816.035156 302.941406 824.277344 304.128906 832.28125 304.128906 C 842.191406 304.128906 851.789062 299.800781 861.070312 295.613281 C 870.546875 291.335938 879.503906 287.304688 886.625 289.335938 C 892.246094 290.945312 896.542969 294.804688 900.261719 299.566406 C 901.914062 305.644531 903.914062 311.628906 906.773438 317.164062 C 907.125 317.851562 907.535156 318.515625 907.921875 319.1875 C 902.136719 314.519531 895.773438 310.78125 888.582031 310.421875 Z M 1231.515625 404.285156 C 1217.730469 405.351562 1203.476562 406.453125 1190.804688 410.847656 C 1178.1875 415.222656 1166.722656 422.644531 1155.636719 429.824219 C 1143.332031 437.789062 1131.707031 445.316406 1119.027344 448.640625 C 1100.503906 453.5 1082.078125 451.160156 1064.261719 448.890625 C 1054.972656 447.710938 1046.191406 446.59375 1037.898438 446.59375 L 1034.035156 446.601562 C 1010.777344 446.664062 988.820312 446.703125 974.171875 430.78125 C 966.636719 422.589844 963.785156 410.378906 960.761719 397.449219 C 958.449219 387.554688 956.054688 377.324219 951.390625 368.277344 C 946.402344 358.609375 937.988281 350.179688 929.84375 342.027344 C 928.234375 340.414062 926.609375 338.777344 925.003906 337.132812 C 928.410156 339.699219 931.808594 341.554688 935.308594 341.984375 C 937.714844 342.273438 940.144531 342.0625 942.578125 341.542969 C 950.742188 345.847656 958.78125 350.46875 963.820312 356.839844 C 968.867188 363.214844 971.847656 371.867188 974.730469 380.238281 C 978.671875 391.683594 982.746094 403.519531 992.226562 409.484375 C 1002.390625 415.882812 1015.777344 413.621094 1029.949219 411.226562 C 1037.714844 409.914062 1045.746094 408.554688 1053.625 408.554688 C 1064.257812 408.554688 1075.269531 411.890625 1086.925781 415.421875 C 1100.835938 419.632812 1115.207031 423.992188 1129.613281 422.59375 C 1142.144531 421.382812 1154.40625 415.144531 1166.257812 409.109375 C 1177.714844 403.28125 1189.554688 397.257812 1201.785156 395.597656 C 1213.933594 393.941406 1227.140625 396.734375 1239.910156 399.433594 C 1244.34375 400.371094 1248.835938 401.308594 1253.324219 402.082031 C 1246.140625 403.140625 1238.765625 403.726562 1231.515625 404.285156 Z M 1231.515625 404.285156 " fill-opacity="1" fill-rule="nonzero"/></g><g clip-path="url(#313317b79c)"><path fill="#a6aae6" d="M 1434.714844 546.695312 C 1413.171875 546.695312 1402.4375 524.648438 1391.070312 501.3125 C 1385.597656 490.074219 1379.941406 478.453125 1372.90625 469.253906 C 1365.410156 459.457031 1351.75 452.3125 1337.292969 444.742188 C 1328.523438 440.15625 1319.632812 435.488281 1311.84375 430.101562 C 1318.855469 433.40625 1326.449219 436.160156 1333.957031 438.871094 C 1347.804688 443.875 1360.882812 448.601562 1368.859375 456.296875 C 1376.417969 463.59375 1382.835938 473.925781 1389.046875 483.921875 C 1400.773438 502.789062 1412.890625 522.300781 1433.371094 522.300781 C 1433.953125 522.300781 1434.425781 521.855469 1434.425781 521.300781 C 1434.425781 520.75 1433.953125 520.304688 1433.371094 520.304688 C 1414.101562 520.304688 1402.816406 502.140625 1390.871094 482.90625 C 1384.59375 472.808594 1378.109375 462.367188 1370.363281 454.894531 C 1362.066406 446.886719 1348.777344 442.085938 1334.707031 437.003906 C 1323.820312 433.070312 1312.722656 429.042969 1303.664062 423.386719 C 1312.28125 426.660156 1322.082031 428.527344 1331.710938 430.351562 C 1345.203125 432.914062 1357.949219 435.328125 1366.753906 441.324219 C 1374.972656 446.917969 1382.296875 456.125 1389.378906 465.03125 C 1401.453125 480.214844 1413.941406 495.917969 1432.027344 495.917969 C 1432.609375 495.917969 1433.082031 495.46875 1433.082031 494.917969 C 1433.082031 494.363281 1432.609375 493.917969 1432.027344 493.917969 C 1414.992188 493.917969 1402.828125 478.621094 1391.066406 463.828125 C 1383.886719 454.808594 1376.464844 445.476562 1367.988281 439.703125 C 1358.808594 433.453125 1345.847656 430.996094 1332.125 428.394531 C 1320.464844 426.183594 1308.535156 423.914062 1298.957031 419.140625 C 1298.628906 418.78125 1298.332031 418.398438 1298.011719 418.035156 C 1307.527344 420.605469 1318.472656 420.730469 1329.179688 420.84375 C 1342.351562 420.984375 1354.792969 421.121094 1364.503906 425.441406 C 1373.4375 429.417969 1381.425781 437.175781 1389.882812 445.382812 C 1402.113281 457.253906 1414.765625 469.53125 1430.683594 469.53125 C 1431.265625 469.53125 1431.742188 469.085938 1431.742188 468.53125 C 1431.742188 467.976562 1431.265625 467.53125 1430.683594 467.53125 C 1415.652344 467.53125 1403.324219 455.5625 1391.394531 443.988281 C 1383.175781 436.011719 1374.679688 427.765625 1365.402344 423.636719 C 1355.273438 419.125 1342.023438 418.984375 1329.203125 418.847656 C 1317.574219 418.722656 1305.652344 418.597656 1295.8125 415.277344 C 1294.035156 412.875 1292.480469 410.335938 1291.261719 407.605469 C 1285.144531 393.9375 1288.828125 375.515625 1292.394531 357.699219 C 1296.019531 339.59375 1299.765625 320.871094 1293.398438 306.640625 C 1285.480469 288.949219 1265.636719 278.566406 1246.441406 268.527344 C 1232.191406 261.074219 1218.734375 254.035156 1211.523438 244.597656 C 1204.609375 235.558594 1198.992188 224.027344 1193.5625 212.875 C 1181.902344 188.941406 1170.894531 166.332031 1147.996094 166.332031 C 1127.835938 166.332031 1116.792969 185.640625 1106.113281 204.3125 C 1100.078125 214.867188 1094.375 224.835938 1087.203125 231.410156 C 1079.390625 238.578125 1066.109375 242.394531 1052.046875 246.4375 C 1033.285156 251.824219 1013.890625 257.402344 1005.476562 271.683594 C 1004.476562 273.378906 1003.703125 275.203125 1003.082031 277.109375 C 1001.441406 278.363281 999.945312 279.765625 998.671875 281.394531 C 996.484375 284.179688 995.050781 287.507812 994.125 291.1875 C 993.988281 291.292969 993.847656 291.378906 993.71875 291.484375 C 989.269531 295.152344 986.804688 300.917969 985.179688 307.492188 C 979.648438 312.222656 975.585938 319.953125 971.617188 327.484375 C 966.511719 337.1875 961.234375 347.222656 953.128906 350.113281 C 946.269531 352.558594 936.832031 348.171875 926.835938 343.523438 C 916.105469 338.535156 905 333.378906 894.5 334.929688 C 887.542969 335.964844 880.804688 342.542969 873.671875 349.507812 C 864.65625 358.3125 855.332031 367.417969 844.308594 367.417969 C 834.101562 367.417969 824.171875 360.253906 814.5625 353.328125 C 805.554688 346.832031 797.035156 340.691406 789.378906 341.753906 C 777.582031 343.386719 769.476562 354.746094 762.332031 364.773438 C 756.78125 372.554688 751.539062 379.910156 745.417969 381.945312 C 739.136719 384.039062 731.433594 382.25 723.5625 379.632812 C 722.839844 378.742188 722.121094 377.835938 721.410156 376.914062 C 721.03125 375.378906 720.675781 373.820312 720.328125 372.253906 C 720.367188 369.285156 720.46875 366.273438 720.574219 363.285156 C 721.105469 348.125 721.652344 332.449219 713.6875 323.9375 C 704.769531 314.410156 687.382812 315.109375 670.589844 315.792969 C 657.242188 316.332031 643.4375 316.890625 634.378906 312.269531 C 627.125 308.570312 620.847656 299.398438 614.199219 289.6875 C 603.921875 274.671875 593.292969 259.148438 576.695312 259.148438 C 557.027344 259.148438 547.058594 277.769531 537.421875 295.769531 C 532.164062 305.585938 527.203125 314.855469 520.933594 320.601562 C 513.742188 327.183594 501.28125 330.667969 488.082031 334.359375 C 470.128906 339.382812 451.558594 344.574219 444.46875 358.332031 C 438.722656 369.480469 443.03125 385.519531 447.199219 401.03125 C 448.472656 405.769531 449.761719 410.558594 450.765625 415.222656 C 450.300781 415.273438 449.84375 415.378906 449.375 415.378906 C 449.355469 415.378906 449.332031 415.378906 449.3125 415.378906 C 444.289062 415.351562 438.441406 409.609375 432.25 403.523438 C 423.949219 395.371094 414.542969 386.132812 403.277344 386.109375 C 403.269531 386.109375 403.265625 386.109375 403.257812 386.109375 C 396.9375 386.109375 390.355469 392.40625 383.382812 399.074219 C 375.484375 406.628906 366.527344 415.195312 357.09375 415.195312 C 344.347656 415.195312 332.148438 406.632812 320.34375 398.351562 C 309.40625 390.679688 299.078125 383.433594 288.164062 382.273438 C 276.074219 380.996094 263.09375 386.566406 250.550781 391.964844 C 237.414062 397.617188 225.011719 402.960938 213.691406 401.011719 C 202.339844 399.0625 192.0625 389.757812 182.125 380.757812 C 175.824219 375.050781 169.386719 369.222656 162.550781 365.128906 C 162.226562 364.738281 161.890625 364.371094 161.558594 363.996094 C 161.078125 363.074219 160.5625 362.175781 160.015625 361.3125 C 159.117188 359.261719 158.042969 357.328125 156.71875 355.574219 C 146.800781 342.390625 127.003906 338.625 107.863281 334.980469 C 93.023438 332.15625 79.007812 329.492188 70.203125 322.734375 C 61.984375 316.421875 54.992188 305.660156 48.234375 295.253906 C 36.699219 277.492188 24.777344 259.136719 5.394531 259.136719 C 4.808594 259.136719 4.335938 259.585938 4.335938 260.140625 C 4.335938 260.691406 4.808594 261.140625 5.394531 261.140625 C 23.597656 261.140625 35.203125 279.007812 46.425781 296.289062 C 53.277344 306.839844 60.363281 317.75 68.867188 324.277344 C 78.070312 331.34375 92.332031 334.058594 107.433594 336.933594 C 123.421875 339.976562 139.855469 343.125 150.199219 351.769531 C 139.199219 345.410156 123.628906 345.441406 108.4375 345.46875 C 94.078125 345.488281 80.527344 345.519531 70.789062 340.574219 C 62.046875 336.136719 54.46875 326.921875 46.445312 317.164062 C 34.652344 302.832031 22.457031 288.011719 5.492188 288.011719 C 4.910156 288.011719 4.433594 288.460938 4.433594 289.011719 C 4.433594 289.5625 4.910156 290.007812 5.492188 290.007812 C 21.425781 290.007812 33.296875 304.4375 44.777344 318.394531 C 52.941406 328.320312 60.660156 337.699219 69.792969 342.335938 C 80.003906 347.523438 94.480469 347.5 108.441406 347.46875 C 125.386719 347.421875 142.914062 347.398438 153.261719 356.429688 C 153.875 356.964844 154.457031 357.539062 155.011719 358.136719 C 153.960938 357.421875 152.882812 356.757812 151.746094 356.199219 C 140.113281 350.460938 124.515625 353.746094 109.425781 356.921875 C 96.308594 359.683594 82.742188 362.542969 72.039062 359.410156 C 62.683594 356.675781 54.027344 348.496094 44.859375 339.839844 C 32.90625 328.550781 20.546875 316.878906 5.585938 316.878906 C 5.003906 316.878906 4.53125 317.324219 4.53125 317.878906 C 4.53125 318.429688 5.003906 318.875 5.585938 318.875 C 19.675781 318.875 31.71875 330.253906 43.371094 341.257812 C 52.726562 350.09375 61.5625 358.4375 71.414062 361.320312 C 82.644531 364.605469 96.492188 361.6875 109.882812 358.875 C 124.597656 355.777344 139.816406 352.574219 150.765625 357.972656 C 152.976562 359.0625 155.007812 360.515625 156.90625 362.222656 C 154.484375 361.1875 152.011719 360.398438 149.460938 359.960938 C 137.507812 357.910156 124.207031 363.625 111.351562 369.15625 C 99.070312 374.4375 86.363281 379.902344 74.84375 378.675781 C 64.496094 377.578125 54.386719 370.484375 43.683594 362.976562 C 31.613281 354.515625 19.125 345.753906 5.683594 345.753906 C 5.097656 345.753906 4.625 346.199219 4.625 346.753906 C 4.625 347.308594 5.097656 347.753906 5.683594 347.753906 C 18.429688 347.753906 30.628906 356.3125 42.433594 364.59375 C 53.367188 372.265625 63.695312 379.511719 74.613281 380.671875 C 86.730469 381.945312 99.6875 376.378906 112.230469 370.984375 C 125.367188 365.332031 137.769531 359.988281 149.089844 361.933594 C 152.632812 362.542969 156.066406 363.867188 159.417969 365.671875 C 162.527344 375.664062 162.015625 388.359375 161.515625 400.738281 C 160.832031 417.5625 160.125 434.964844 168.429688 445.992188 C 178.351562 459.175781 198.144531 462.941406 217.285156 466.582031 C 232.125 469.40625 246.140625 472.074219 254.941406 478.828125 C 263.164062 485.140625 270.15625 495.902344 276.914062 506.308594 C 288.4375 524.054688 300.359375 542.410156 319.742188 542.410156 C 339.410156 542.410156 349.375 523.792969 359.015625 505.789062 C 364.269531 495.972656 369.234375 486.703125 375.507812 480.960938 C 382.695312 474.375 395.15625 470.890625 408.355469 467.199219 C 426.3125 462.175781 444.878906 456.984375 451.96875 443.226562 C 452.691406 441.828125 453.253906 440.355469 453.675781 438.8125 C 454.121094 438.347656 454.554688 437.867188 454.953125 437.347656 C 457.492188 434.035156 458.691406 429.800781 459.109375 425.054688 C 461.34375 421.246094 462.730469 416.398438 463.777344 411.203125 C 466.996094 408.667969 470.121094 405.636719 473.199219 402.636719 C 480.324219 395.695312 487.691406 388.515625 495.519531 388.515625 C 495.539062 388.515625 495.566406 388.515625 495.582031 388.515625 C 500.605469 388.542969 506.453125 394.285156 512.644531 400.371094 C 520.945312 408.523438 530.347656 417.765625 541.621094 417.785156 C 541.625 417.785156 541.628906 417.785156 541.632812 417.785156 C 547.953125 417.785156 554.539062 411.488281 561.511719 404.820312 C 569.414062 397.265625 578.371094 388.699219 587.804688 388.699219 C 598.007812 388.699219 607.941406 395.863281 617.550781 402.789062 C 626.558594 409.285156 635.046875 415.425781 642.730469 414.363281 C 654.535156 412.730469 662.640625 401.367188 669.789062 391.339844 C 675.339844 383.558594 680.582031 376.203125 686.703125 374.167969 C 694.882812 371.449219 705.457031 375.28125 715.683594 378.988281 C 716.550781 379.300781 717.425781 379.613281 718.300781 379.925781 C 718.699219 389.027344 720.339844 397.203125 725.347656 402.550781 C 734.265625 412.078125 751.636719 411.378906 768.441406 410.691406 C 781.796875 410.152344 795.597656 409.589844 804.652344 414.214844 C 811.902344 417.914062 818.183594 427.085938 824.828125 436.796875 C 835.109375 451.8125 845.738281 467.335938 862.335938 467.335938 C 882.496094 467.335938 893.539062 448.027344 904.21875 429.359375 C 910.257812 418.804688 915.957031 408.835938 923.132812 402.257812 C 930.945312 395.089844 944.230469 391.273438 958.289062 387.230469 C 977.050781 381.835938 996.441406 376.261719 1004.859375 361.980469 C 1011.738281 350.300781 1008.929688 333.203125 1006.21875 316.667969 C 1005.667969 313.320312 1005.117188 309.945312 1004.640625 306.597656 C 1008.925781 307.984375 1013.539062 310.113281 1018.289062 312.324219 C 1029.019531 317.316406 1040.121094 322.472656 1050.621094 320.921875 C 1057.578125 319.890625 1064.316406 313.308594 1071.449219 306.34375 C 1080.46875 297.542969 1089.789062 288.433594 1100.816406 288.433594 C 1115.851562 288.433594 1128.183594 300.402344 1140.109375 311.980469 C 1148.324219 319.957031 1156.820312 328.207031 1166.097656 332.335938 C 1176.226562 336.84375 1189.480469 336.988281 1202.296875 337.125 C 1217.875 337.289062 1233.984375 337.464844 1244.90625 345.304688 C 1254.558594 352.230469 1259.746094 365.5 1264.761719 378.328125 C 1269.886719 391.429688 1275.183594 404.972656 1285.324219 412.253906 C 1286.042969 412.773438 1286.785156 413.257812 1287.542969 413.714844 C 1289.53125 415.628906 1291.742188 417.296875 1294.128906 418.765625 C 1296.265625 420.730469 1298.589844 422.535156 1301.097656 424.1875 C 1310.710938 433.097656 1323.625 439.878906 1336.273438 446.496094 C 1350.523438 453.949219 1363.980469 460.992188 1371.195312 470.425781 C 1378.113281 479.46875 1383.726562 490.996094 1389.160156 502.148438 C 1400.816406 526.085938 1411.828125 548.695312 1434.722656 548.695312 C 1435.304688 548.695312 1435.777344 548.246094 1435.777344 547.695312 C 1435.773438 547.144531 1435.300781 546.695312 1434.714844 546.695312 Z M 1286.671875 409.660156 C 1278.949219 400.214844 1277.085938 385.417969 1275.335938 371.046875 C 1273.488281 355.90625 1271.582031 340.253906 1262.789062 330.40625 C 1252.320312 318.691406 1234.292969 315.273438 1216.859375 311.964844 C 1203.367188 309.40625 1190.621094 306.984375 1181.8125 300.988281 C 1173.59375 295.394531 1166.273438 286.1875 1159.191406 277.285156 C 1147.117188 262.101562 1134.628906 246.402344 1116.542969 246.402344 C 1102.164062 246.402344 1091.535156 259.15625 1082.152344 270.414062 C 1075.625 278.246094 1069.460938 285.640625 1062.855469 288.105469 C 1053.910156 291.445312 1041.878906 289.839844 1030.242188 288.289062 C 1020.46875 286.984375 1011.070312 285.742188 1003.398438 287.210938 C 1003.589844 284.050781 1004.078125 281.0625 1004.917969 278.285156 C 1013.824219 271.828125 1027.867188 270.324219 1041.542969 268.878906 C 1054.265625 267.535156 1067.425781 266.148438 1076.070312 260.648438 C 1083.359375 256.015625 1089.367188 247.273438 1095.726562 238.015625 C 1105.742188 223.4375 1116.097656 208.363281 1132.265625 208.363281 C 1151.539062 208.363281 1162.824219 226.527344 1174.773438 245.761719 C 1181.046875 255.855469 1187.53125 266.296875 1195.277344 273.769531 C 1203.570312 281.78125 1216.863281 286.582031 1230.929688 291.664062 C 1249.101562 298.226562 1267.886719 305.011719 1276.730469 319.28125 C 1283.917969 330.882812 1282.820312 347.855469 1281.761719 364.273438 C 1280.710938 380.660156 1279.640625 397.578125 1286.671875 409.660156 Z M 1007.320312 272.648438 C 1015.320312 259.074219 1034.300781 253.617188 1052.660156 248.34375 C 1066.972656 244.230469 1080.492188 240.34375 1088.671875 232.84375 C 1096.074219 226.050781 1101.851562 215.953125 1107.96875 205.257812 C 1118.355469 187.101562 1129.09375 168.328125 1147.996094 168.328125 C 1169.539062 168.328125 1180.273438 190.371094 1191.640625 213.707031 C 1197.113281 224.941406 1202.773438 236.566406 1209.804688 245.765625 C 1217.300781 255.558594 1230.957031 262.703125 1245.417969 270.273438 C 1264.296875 280.148438 1283.820312 290.359375 1291.449219 307.414062 C 1297.566406 321.085938 1293.882812 339.507812 1290.316406 357.320312 C 1286.691406 375.425781 1282.945312 394.152344 1289.3125 408.378906 C 1290.175781 410.308594 1291.207031 412.136719 1292.335938 413.898438 C 1292.296875 413.882812 1292.257812 413.863281 1292.21875 413.847656 C 1291.011719 412.441406 1289.890625 410.964844 1288.914062 409.386719 C 1281.726562 397.789062 1282.820312 380.8125 1283.878906 364.394531 C 1284.957031 347.679688 1286.070312 330.394531 1278.558594 318.269531 C 1269.339844 303.390625 1250.203125 296.480469 1231.691406 289.796875 C 1217.84375 284.792969 1204.765625 280.066406 1196.789062 272.371094 C 1189.230469 265.070312 1182.808594 254.738281 1176.601562 244.746094 C 1164.875 225.878906 1152.753906 206.363281 1132.269531 206.363281 C 1114.957031 206.363281 1104.285156 221.898438 1093.960938 236.921875 C 1087.722656 246.003906 1081.828125 254.582031 1074.902344 258.988281 C 1066.683594 264.214844 1054.359375 265.511719 1041.316406 266.890625 C 1028.515625 268.242188 1015.394531 269.644531 1006.09375 275.082031 C 1006.457031 274.246094 1006.863281 273.433594 1007.320312 272.648438 Z M 1000.367188 282.585938 C 1000.917969 281.882812 1001.519531 281.226562 1002.152344 280.601562 C 1001.675781 282.871094 1001.394531 285.246094 1001.273438 287.703125 C 999.699219 288.136719 998.214844 288.703125 996.828125 289.433594 C 997.671875 286.886719 998.808594 284.570312 1000.367188 282.585938 Z M 996 292.339844 C 997.546875 291.238281 999.285156 290.421875 1001.191406 289.835938 C 1001.125 294.300781 1001.519531 299.003906 1002.125 303.796875 C 999.554688 303.183594 997.097656 302.914062 994.785156 303.125 C 994.890625 299.308594 995.234375 295.664062 996 292.339844 Z M 993.398438 294.746094 C 992.953125 297.515625 992.730469 300.4375 992.660156 303.453125 C 992.183594 303.566406 991.714844 303.703125 991.25 303.867188 C 990.066406 304.289062 988.945312 304.847656 987.878906 305.511719 C 989.132812 301.257812 990.882812 297.550781 993.398438 294.746094 Z M 993.242188 320.589844 C 994.132812 334.941406 995.050781 349.78125 988.230469 358.472656 C 980.222656 368.675781 963.355469 370.453125 947.046875 372.179688 C 934.324219 373.519531 921.164062 374.914062 912.519531 380.410156 C 905.230469 385.042969 899.226562 393.785156 892.863281 403.042969 C 882.847656 417.621094 872.492188 432.695312 856.320312 432.695312 C 843.558594 432.695312 833.648438 420.625 824.066406 408.953125 C 816.851562 400.167969 810.035156 391.867188 802.535156 389.867188 C 791.953125 387.039062 778.933594 391.246094 766.34375 395.3125 C 753.175781 399.566406 740.734375 403.585938 733.050781 398.859375 C 727.945312 395.71875 724.9375 389.339844 722.730469 381.871094 C 728.089844 388.300781 733.847656 393.617188 740.679688 394.65625 C 748.351562 395.824219 757.058594 389.382812 766.269531 382.570312 C 776.523438 374.988281 787.148438 367.148438 797.835938 367.816406 C 804.363281 368.21875 811.441406 375.226562 818.9375 382.648438 C 828.121094 391.742188 838.53125 402.050781 850.3125 402.050781 C 864.691406 402.050781 875.324219 389.292969 884.707031 378.039062 C 891.234375 370.203125 897.398438 362.808594 904 360.347656 C 912.949219 357.003906 924.980469 358.605469 936.621094 360.160156 C 951.074219 362.082031 964.734375 363.902344 973.152344 356.964844 C 981.136719 350.382812 982.835938 337.144531 984.484375 324.34375 C 985.171875 318.988281 985.898438 313.585938 987.0625 308.648438 C 988.597656 307.402344 990.21875 306.375 992 305.738281 C 992.203125 305.667969 992.429688 305.65625 992.636719 305.59375 C 992.625 310.484375 992.929688 315.5625 993.242188 320.589844 Z M 718.066406 372.535156 C 710.832031 362.945312 703.347656 353.035156 693.738281 351.578125 C 686.054688 350.414062 677.355469 356.847656 668.144531 363.660156 C 657.886719 371.238281 647.265625 379.074219 636.566406 378.414062 C 630.039062 378.011719 622.964844 371.003906 615.46875 363.582031 C 606.285156 354.488281 595.875 344.179688 584.097656 344.179688 C 571.734375 344.179688 562.195312 355.777344 553.777344 366.015625 C 547.703125 373.40625 541.960938 380.386719 536.273438 381.695312 C 526.851562 383.867188 515.433594 379.8125 504.390625 375.886719 C 492.785156 371.765625 481.820312 367.871094 474.871094 372.335938 C 467.128906 377.3125 465.199219 389.554688 463.328125 401.402344 C 462.871094 404.316406 462.40625 407.25 461.855469 410.085938 C 460.839844 410.859375 459.824219 411.570312 458.792969 412.207031 C 458.414062 408.527344 457.878906 404.761719 457.339844 401.023438 C 455.414062 387.679688 453.417969 373.878906 459.339844 366.144531 C 466.058594 357.375 481.515625 357.042969 496.46875 356.722656 C 508.53125 356.464844 521 356.195312 529.492188 351.605469 C 536.023438 348.070312 541.488281 339.875 547.273438 331.203125 C 556.304688 317.664062 565.644531 303.660156 580.390625 303.660156 C 593.152344 303.660156 603.066406 315.730469 612.648438 327.398438 C 619.863281 336.1875 626.675781 344.484375 634.179688 346.488281 C 644.773438 349.3125 657.78125 345.109375 670.371094 341.042969 C 683.542969 336.789062 695.984375 332.765625 703.671875 337.5 C 711.785156 342.492188 714.601562 355.652344 717.328125 368.378906 C 717.613281 369.730469 717.90625 371.085938 718.203125 372.4375 C 718.203125 372.527344 718.203125 372.621094 718.203125 372.714844 C 718.15625 372.652344 718.113281 372.59375 718.066406 372.535156 Z M 746.113281 383.824219 C 752.890625 381.570312 758.324219 373.953125 764.070312 365.882812 C 771.316406 355.726562 778.800781 345.226562 789.675781 343.722656 C 796.46875 342.796875 804.628906 348.679688 813.273438 354.910156 C 822.699219 361.707031 833.382812 369.40625 844.300781 369.40625 C 856.21875 369.40625 866.292969 359.570312 875.179688 350.894531 C 882.0625 344.171875 888.558594 337.828125 894.816406 336.902344 C 904.679688 335.429688 915.460938 340.460938 925.898438 345.3125 C 936.316406 350.15625 946.152344 354.738281 953.867188 351.980469 C 962.746094 348.808594 968.21875 338.417969 973.507812 328.371094 C 976.804688 322.101562 980.1875 315.730469 984.34375 311.199219 C 983.53125 315.371094 982.945312 319.75 982.382812 324.097656 C 980.785156 336.527344 979.136719 349.375 971.765625 355.453125 C 964.070312 361.792969 950.878906 360.03125 936.914062 358.175781 C 925.007812 356.585938 912.695312 354.949219 903.226562 358.480469 C 896.09375 361.144531 889.757812 368.746094 883.046875 376.792969 C 873.519531 388.226562 863.664062 400.046875 850.3125 400.046875 C 839.433594 400.046875 829.789062 390.496094 820.464844 381.261719 C 812.675781 373.550781 805.320312 366.269531 797.972656 365.816406 C 786.535156 365.113281 775.039062 373.542969 764.96875 380.992188 C 756.125 387.53125 747.753906 393.707031 741.011719 392.675781 C 735.5 391.839844 730.59375 387.726562 725.96875 382.484375 C 733.121094 384.644531 740.085938 385.832031 746.113281 383.824219 Z M 449.234375 400.527344 C 445.160156 385.367188 440.949219 369.6875 446.351562 359.199219 C 453.035156 346.234375 471.152344 341.167969 488.667969 336.265625 C 502.121094 332.503906 514.828125 328.949219 522.390625 322.023438 C 528.914062 316.050781 533.953125 306.636719 539.292969 296.664062 C 548.644531 279.199219 558.316406 261.140625 576.683594 261.140625 C 592.128906 261.140625 602.441406 276.199219 612.414062 290.765625 C 619.214844 300.695312 625.636719 310.074219 633.363281 314.019531 C 642.9375 318.902344 657.035156 318.335938 670.667969 317.78125 C 686.972656 317.117188 703.839844 316.441406 712.09375 325.257812 C 719.5 333.167969 718.96875 348.441406 718.453125 363.210938 C 718.449219 363.335938 718.445312 363.460938 718.441406 363.582031 C 715.863281 351.917969 712.691406 340.664062 704.824219 335.820312 C 696.277344 330.5625 683.363281 334.730469 669.691406 339.148438 C 657.410156 343.113281 644.710938 347.214844 634.753906 344.558594 C 627.921875 342.734375 621.3125 334.691406 614.3125 326.167969 C 604.878906 314.679688 594.183594 301.65625 580.386719 301.65625 C 564.476562 301.65625 554.386719 316.785156 545.484375 330.132812 C 539.84375 338.589844 534.511719 346.578125 528.4375 349.863281 C 520.410156 354.203125 508.214844 354.464844 496.414062 354.714844 C 480.949219 355.050781 464.953125 355.390625 457.625 364.964844 C 451.207031 373.347656 453.253906 387.554688 455.238281 401.292969 C 455.816406 405.320312 456.402344 409.390625 456.777344 413.324219 C 455.46875 413.988281 454.15625 414.523438 452.824219 414.863281 C 451.816406 410.144531 450.519531 405.3125 449.234375 400.527344 Z M 457.039062 424.496094 C 456.339844 425.628906 455.542969 426.628906 454.65625 427.5 C 454.472656 424.082031 453.957031 420.515625 453.238281 416.867188 C 454.503906 416.554688 455.742188 416.109375 456.96875 415.539062 C 457.199219 418.671875 457.253906 421.683594 457.039062 424.496094 Z M 451.738281 437.851562 C 444.410156 444.988281 430.042969 445.304688 416.109375 445.605469 C 404.050781 445.867188 391.578125 446.136719 383.089844 450.726562 C 376.554688 454.261719 371.085938 462.453125 365.304688 471.128906 C 356.273438 484.667969 346.9375 498.667969 332.1875 498.667969 C 316.25 498.667969 304.378906 484.238281 292.898438 470.28125 C 284.734375 460.355469 277.019531 450.976562 267.886719 446.339844 C 257.675781 441.15625 243.222656 441.195312 229.238281 441.214844 C 212.285156 441.242188 194.769531 441.28125 184.417969 432.25 C 175.28125 424.28125 172.535156 408.976562 169.878906 394.175781 C 168.488281 386.417969 167.0625 378.535156 164.714844 371.550781 C 168.148438 376.695312 171.183594 382.558594 174.160156 388.34375 C 180.703125 401.046875 187.472656 414.183594 198.484375 419.609375 C 210.117188 425.34375 225.714844 422.0625 240.796875 418.882812 C 253.917969 416.125 267.480469 413.265625 278.183594 416.394531 C 287.539062 419.128906 296.195312 427.304688 305.359375 435.960938 C 317.3125 447.253906 329.675781 458.925781 344.632812 458.925781 C 356.996094 458.925781 366.539062 447.324219 374.953125 437.089844 C 381.03125 429.703125 386.765625 422.71875 392.457031 421.414062 C 401.882812 419.238281 413.304688 423.296875 424.351562 427.214844 C 435.273438 431.09375 445.625 434.761719 452.601562 431.464844 C 452.519531 433.703125 452.25 435.839844 451.738281 437.851562 Z M 180.652344 382.191406 C 190.8125 391.394531 201.320312 400.910156 213.296875 402.96875 C 225.25 405.019531 238.550781 399.304688 251.40625 393.773438 C 263.6875 388.492188 276.375 383.023438 287.910156 384.25 C 298.261719 385.347656 308.367188 392.441406 319.070312 399.949219 C 331.144531 408.421875 343.632812 417.183594 357.078125 417.183594 C 367.390625 417.183594 376.675781 408.304688 384.867188 400.472656 C 391.519531 394.109375 397.800781 388.101562 403.238281 388.101562 C 403.242188 388.101562 403.25 388.101562 403.253906 388.101562 C 413.625 388.117188 422.703125 397.035156 430.707031 404.902344 C 437.503906 411.578125 443.367188 417.335938 449.28125 417.371094 C 449.308594 417.371094 449.332031 417.371094 449.359375 417.371094 C 449.964844 417.371094 450.5625 417.324219 451.15625 417.257812 C 451.972656 421.382812 452.519531 425.386719 452.601562 429.152344 C 446.542969 432.960938 436.121094 429.261719 425.082031 425.34375 C 413.738281 421.316406 402.003906 417.15625 391.949219 419.46875 C 385.546875 420.941406 379.589844 428.191406 373.28125 435.863281 C 365.164062 445.738281 355.960938 456.925781 344.628906 456.925781 C 330.542969 456.925781 318.496094 445.550781 306.847656 434.546875 C 297.492188 425.707031 288.65625 417.363281 278.804688 414.484375 C 267.570312 411.199219 253.726562 414.113281 240.335938 416.933594 C 225.621094 420.03125 210.40625 423.230469 199.457031 417.835938 C 189.066406 412.714844 182.453125 399.878906 176.058594 387.46875 C 172.957031 381.441406 169.796875 375.328125 166.164062 369.976562 C 171.121094 373.570312 175.925781 377.910156 180.652344 382.191406 Z M 407.75 465.28125 C 394.296875 469.042969 381.59375 472.597656 374.03125 479.523438 C 367.507812 485.5 362.464844 494.917969 357.125 504.886719 C 347.773438 522.351562 338.105469 540.414062 319.734375 540.414062 C 301.53125 540.414062 289.929688 522.542969 278.703125 505.261719 C 271.851562 494.710938 264.765625 483.800781 256.265625 477.273438 C 247.058594 470.207031 232.796875 467.492188 217.695312 464.621094 C 198.957031 461.054688 179.582031 457.371094 170.144531 444.832031 C 162.261719 434.359375 162.953125 417.308594 163.617188 400.816406 C 163.988281 391.675781 164.351562 382.378906 163.289062 374.015625 C 165.25 380.410156 166.539062 387.511719 167.792969 394.511719 C 170.511719 409.640625 173.316406 425.292969 182.980469 433.726562 C 193.941406 443.289062 211.878906 443.242188 229.234375 443.21875 C 243.625 443.195312 257.144531 443.160156 266.882812 448.105469 C 275.621094 452.546875 283.203125 461.757812 291.226562 471.511719 C 303.019531 485.847656 315.210938 500.667969 332.179688 500.667969 C 348.089844 500.667969 358.183594 485.539062 367.082031 472.199219 C 372.722656 463.738281 378.054688 455.75 384.128906 452.464844 C 392.15625 448.128906 404.355469 447.863281 416.152344 447.605469 C 428.972656 447.328125 442.136719 447.027344 450.445312 441.488281 C 450.316406 441.773438 450.207031 442.070312 450.0625 442.347656 C 443.386719 455.3125 425.273438 460.382812 407.75 465.28125 Z M 454.539062 434.113281 C 454.671875 432.824219 454.71875 431.492188 454.722656 430.140625 C 455.339844 429.675781 455.925781 429.179688 456.464844 428.621094 C 456.046875 430.621094 455.421875 432.464844 454.539062 434.113281 Z M 459.277344 419.804688 C 459.246094 418.070312 459.152344 416.292969 459.003906 414.484375 C 459.746094 414.054688 460.484375 413.585938 461.214844 413.089844 C 460.675781 415.464844 460.046875 417.734375 459.277344 419.804688 Z M 716.429688 377.121094 C 705.847656 373.289062 694.910156 369.320312 685.996094 372.285156 C 679.214844 374.539062 673.785156 382.160156 668.035156 390.222656 C 660.789062 400.378906 653.300781 410.882812 642.417969 412.386719 C 635.640625 413.332031 627.46875 407.433594 618.820312 401.199219 C 609.398438 394.402344 598.714844 386.703125 587.796875 386.703125 C 577.480469 386.703125 568.195312 395.582031 560 403.417969 C 553.351562 409.777344 547.066406 415.785156 541.625 415.785156 C 541.621094 415.785156 541.617188 415.785156 541.613281 415.785156 C 531.242188 415.769531 522.164062 406.851562 514.15625 398.984375 C 507.363281 392.308594 501.5 386.546875 495.589844 386.519531 C 495.5625 386.519531 495.539062 386.519531 495.511719 386.519531 C 486.792969 386.519531 479.109375 394.003906 471.679688 401.246094 C 469.273438 403.59375 466.835938 405.941406 464.371094 408.054688 C 464.742188 405.953125 465.078125 403.820312 465.414062 401.699219 C 467.214844 390.28125 469.074219 378.476562 476.050781 373.996094 C 482.097656 370.113281 492.566406 373.828125 503.644531 377.761719 C 514.988281 381.792969 526.707031 385.957031 536.765625 383.644531 C 543.167969 382.167969 549.128906 374.921875 555.441406 367.246094 C 563.558594 357.375 572.761719 346.183594 584.09375 346.183594 C 594.96875 346.183594 604.613281 355.734375 613.9375 364.96875 C 621.722656 372.679688 629.078125 379.960938 636.425781 380.414062 C 647.9375 381.132812 659.363281 372.6875 669.4375 365.238281 C 678.28125 358.699219 686.671875 352.523438 693.398438 353.554688 C 702.136719 354.878906 709.359375 364.445312 716.347656 373.703125 C 716.964844 374.515625 717.578125 375.332031 718.199219 376.144531 C 718.203125 376.6875 718.210938 377.226562 718.222656 377.765625 C 717.625 377.550781 717.027344 377.335938 716.429688 377.121094 Z M 1004.121094 316.988281 C 1006.78125 333.1875 1009.535156 349.9375 1003.007812 361.011719 C 995.011719 374.589844 976.027344 380.046875 957.671875 385.320312 C 943.355469 389.4375 929.835938 393.320312 921.65625 400.824219 C 914.25 407.617188 908.472656 417.71875 902.355469 428.414062 C 891.972656 446.566406 881.230469 465.339844 862.328125 465.339844 C 846.882812 465.339844 836.570312 450.28125 826.597656 435.710938 C 819.796875 425.78125 813.375 416.402344 805.648438 412.460938 C 796.074219 407.578125 781.972656 408.148438 768.34375 408.699219 C 752.042969 409.359375 735.171875 410.042969 726.921875 401.226562 C 722.660156 396.679688 721.035156 389.691406 720.511719 381.773438 C 722.851562 389.910156 726.09375 396.972656 731.890625 400.542969 C 740.441406 405.796875 753.351562 401.625 767.019531 397.210938 C 779.308594 393.246094 792.011719 389.144531 801.957031 391.796875 C 808.789062 393.621094 815.398438 401.667969 822.394531 410.1875 C 831.828125 421.675781 842.519531 434.699219 856.316406 434.699219 C 873.632812 434.699219 884.304688 419.160156 894.628906 404.136719 C 900.867188 395.054688 906.761719 386.480469 913.6875 382.070312 C 921.90625 376.847656 934.230469 375.546875 947.273438 374.167969 C 964.035156 372.398438 981.359375 370.566406 989.917969 359.667969 C 997.199219 350.390625 996.257812 335.179688 995.347656 320.472656 C 995.027344 315.316406 994.710938 310.105469 994.742188 305.132812 C 997.085938 304.878906 999.671875 305.253906 1002.410156 305.972656 C 1002.921875 309.628906 1003.519531 313.320312 1004.121094 316.988281 Z M 1266.742188 377.636719 C 1261.617188 364.539062 1256.320312 350.992188 1246.179688 343.710938 C 1234.699219 335.472656 1218.238281 335.296875 1202.320312 335.128906 C 1189.144531 334.988281 1176.703125 334.855469 1166.996094 330.53125 C 1158.0625 326.554688 1150.074219 318.800781 1141.613281 310.589844 C 1129.382812 298.714844 1116.734375 286.441406 1100.8125 286.441406 C 1088.890625 286.441406 1078.820312 296.28125 1069.925781 304.957031 C 1063.046875 311.675781 1056.546875 318.019531 1050.289062 318.953125 C 1040.445312 320.421875 1029.652344 315.390625 1019.214844 310.535156 C 1014.046875 308.132812 1009.019531 305.792969 1004.324219 304.386719 C 1003.640625 299.171875 1003.207031 294.070312 1003.320312 289.28125 C 1010.726562 287.71875 1020.140625 288.964844 1029.949219 290.273438 C 1041.847656 291.859375 1054.164062 293.5 1063.628906 289.96875 C 1070.761719 287.304688 1077.097656 279.703125 1083.808594 271.65625 C 1093.332031 260.226562 1103.1875 248.402344 1116.542969 248.402344 C 1133.578125 248.402344 1145.738281 263.699219 1157.503906 278.492188 C 1164.683594 287.511719 1172.101562 296.84375 1180.582031 302.617188 C 1189.761719 308.867188 1202.722656 311.324219 1216.445312 313.929688 C 1233.527344 317.167969 1251.1875 320.515625 1261.175781 331.703125 C 1269.558594 341.085938 1271.425781 356.433594 1273.234375 371.277344 C 1274.765625 383.855469 1276.402344 396.738281 1281.933594 406.402344 C 1275.167969 399.023438 1270.875 388.214844 1266.742188 377.636719 Z M 1266.742188 377.636719 " fill-opacity="1" fill-rule="nonzero"/></g></svg>