<svg xmlns="http://www.w3.org/2000/svg" xmlns:xlink="http://www.w3.org/1999/xlink" width="700" zoomAndPan="magnify" viewBox="0 0 525 225" height="300" preserveAspectRatio="xMidYMid meet" version="1.0"><defs><g/><clipPath id="7f8b2e5b10"><path d="M 87.847656 55.46875 L 163.933594 55.46875 L 163.933594 131.554688 L 87.847656 131.554688 Z M 87.847656 55.46875 " clip-rule="nonzero"/></clipPath></defs><g clip-path="url(#7f8b2e5b10)"><path fill="#b497ed" d="M 164.25 93.671875 C 164.25 94.921875 164.191406 96.167969 164.066406 97.414062 C 163.945312 98.660156 163.761719 99.894531 163.515625 101.121094 C 163.273438 102.351562 162.96875 103.5625 162.605469 104.757812 C 162.242188 105.957031 161.820312 107.132812 161.34375 108.289062 C 160.863281 109.445312 160.332031 110.574219 159.742188 111.679688 C 159.152344 112.78125 158.507812 113.851562 157.8125 114.894531 C 157.117188 115.933594 156.375 116.9375 155.578125 117.90625 C 154.785156 118.871094 153.945312 119.796875 153.0625 120.683594 C 152.179688 121.566406 151.25 122.40625 150.285156 123.199219 C 149.316406 123.992188 148.3125 124.738281 147.273438 125.433594 C 146.234375 126.128906 145.160156 126.769531 144.058594 127.359375 C 142.953125 127.949219 141.824219 128.484375 140.667969 128.964844 C 139.511719 129.441406 138.335938 129.863281 137.140625 130.226562 C 135.941406 130.589844 134.730469 130.894531 133.503906 131.136719 C 132.277344 131.382812 131.039062 131.5625 129.792969 131.6875 C 128.550781 131.808594 127.300781 131.871094 126.050781 131.871094 C 124.800781 131.871094 123.550781 131.808594 122.304688 131.6875 C 121.0625 131.566406 119.824219 131.382812 118.597656 131.136719 C 117.371094 130.894531 116.160156 130.589844 114.960938 130.226562 C 113.765625 129.863281 112.585938 129.441406 111.429688 128.964844 C 110.277344 128.484375 109.144531 127.949219 108.042969 127.359375 C 106.9375 126.769531 105.867188 126.128906 104.828125 125.433594 C 103.785156 124.738281 102.78125 123.992188 101.816406 123.199219 C 100.847656 122.40625 99.921875 121.566406 99.039062 120.683594 C 98.152344 119.796875 97.3125 118.871094 96.519531 117.90625 C 95.726562 116.9375 94.984375 115.933594 94.289062 114.894531 C 93.59375 113.851562 92.949219 112.78125 92.359375 111.679688 C 91.769531 110.574219 91.234375 109.445312 90.757812 108.289062 C 90.277344 107.132812 89.859375 105.957031 89.496094 104.757812 C 89.132812 103.5625 88.828125 102.351562 88.582031 101.121094 C 88.339844 99.894531 88.15625 98.660156 88.035156 97.414062 C 87.910156 96.167969 87.847656 94.921875 87.847656 93.671875 C 87.847656 92.417969 87.910156 91.171875 88.035156 89.925781 C 88.15625 88.679688 88.339844 87.445312 88.582031 86.21875 C 88.828125 84.992188 89.132812 83.777344 89.496094 82.582031 C 89.859375 81.382812 90.277344 80.207031 90.757812 79.050781 C 91.234375 77.894531 91.769531 76.765625 92.359375 75.664062 C 92.949219 74.558594 93.59375 73.488281 94.289062 72.445312 C 94.984375 71.40625 95.726562 70.402344 96.519531 69.4375 C 97.3125 68.46875 98.152344 67.542969 99.039062 66.65625 C 99.921875 65.773438 100.847656 64.933594 101.816406 64.140625 C 102.78125 63.347656 103.785156 62.601562 104.828125 61.90625 C 105.867188 61.210938 106.9375 60.570312 108.042969 59.980469 C 109.144531 59.390625 110.277344 58.855469 111.429688 58.378906 C 112.585938 57.898438 113.765625 57.476562 114.960938 57.113281 C 116.160156 56.75 117.371094 56.449219 118.597656 56.203125 C 119.824219 55.960938 121.0625 55.777344 122.304688 55.652344 C 123.550781 55.53125 124.800781 55.46875 126.050781 55.46875 C 127.300781 55.46875 128.550781 55.53125 129.792969 55.652344 C 131.039062 55.777344 132.277344 55.960938 133.503906 56.203125 C 134.730469 56.449219 135.941406 56.75 137.140625 57.113281 C 138.335938 57.476562 139.511719 57.898438 140.667969 58.378906 C 141.824219 58.855469 142.953125 59.390625 144.058594 59.980469 C 145.160156 60.570312 146.234375 61.210938 147.273438 61.90625 C 148.3125 62.601562 149.316406 63.347656 150.285156 64.140625 C 151.25 64.933594 152.179688 65.773438 153.0625 66.65625 C 153.945312 67.542969 154.785156 68.46875 155.578125 69.4375 C 156.375 70.402344 157.117188 71.40625 157.8125 72.445312 C 158.507812 73.488281 159.152344 74.558594 159.742188 75.664062 C 160.332031 76.765625 160.863281 77.894531 161.34375 79.050781 C 161.820312 80.207031 162.242188 81.382812 162.605469 82.582031 C 162.96875 83.777344 163.273438 84.992188 163.515625 86.21875 C 163.761719 87.445312 163.945312 88.679688 164.066406 89.925781 C 164.191406 91.171875 164.25 92.417969 164.25 93.671875 Z M 164.25 93.671875 " fill-opacity="1" fill-rule="nonzero"/></g><path fill="#ffffff" d="M 142.183594 71.457031 C 135.851562 66.28125 130.722656 73.082031 126.050781 73.082031 C 121.375 73.082031 116.246094 66.28125 109.917969 71.457031 C 104.742188 75.6875 105.960938 87.695312 108.699219 95.453125 C 111.4375 103.214844 112.757812 111.535156 114.078125 115.496094 C 115.398438 119.453125 119.757812 117.625 120.070312 115.496094 C 120.914062 109.765625 123.210938 105.246094 126.050781 105.246094 C 128.890625 105.246094 131.1875 109.757812 132.027344 115.496094 C 132.34375 117.625 136.703125 119.453125 138.023438 115.496094 C 139.339844 111.535156 140.664062 103.21875 143.402344 95.453125 C 146.140625 87.6875 147.355469 75.6875 142.183594 71.457031 Z M 142.183594 71.457031 " fill-opacity="1" fill-rule="nonzero"/><path fill="#ffc250" d="M 155.324219 85.015625 C 150.875 86.292969 149.839844 87.332031 148.558594 91.777344 C 147.28125 87.332031 146.246094 86.292969 141.796875 85.015625 C 146.246094 83.738281 147.28125 82.699219 148.558594 78.253906 C 149.839844 82.699219 150.882812 83.738281 155.324219 85.015625 Z M 155.324219 85.015625 " fill-opacity="1" fill-rule="nonzero"/><path fill="#ffc250" d="M 111.289062 94.375 C 108.042969 95.3125 107.277344 96.070312 106.339844 99.324219 C 105.40625 96.078125 104.644531 95.316406 101.390625 94.375 C 104.640625 93.441406 105.402344 92.683594 106.339844 89.429688 C 107.277344 92.683594 108.035156 93.441406 111.289062 94.375 Z M 111.289062 94.375 " fill-opacity="1" fill-rule="nonzero"/><path fill="#ffc250" d="M 146.199219 107.933594 C 144.75 108.347656 144.414062 108.683594 143.996094 110.132812 C 143.582031 108.683594 143.246094 108.347656 141.796875 107.933594 C 143.246094 107.515625 143.582031 107.179688 143.996094 105.730469 C 144.414062 107.179688 144.75 107.515625 146.199219 107.933594 Z M 146.199219 107.933594 " fill-opacity="1" fill-rule="nonzero"/><g fill="#ffffff" fill-opacity="1"><g transform="translate(17.621106, 127.313743)"><g><path d="M 64.25 -67.3125 L 64.25 0 L 47.84375 0 L 47.84375 -27.71875 L 22.34375 -27.71875 L 22.34375 0 L 5.9375 0 L 5.9375 -67.3125 L 22.34375 -67.3125 L 22.34375 -40.9375 L 47.84375 -40.9375 L 47.84375 -67.3125 Z M 64.25 -67.3125 "/></g></g></g><g fill="#51328d" fill-opacity="1"><g transform="translate(14.654546, 124.347182)"><g><path d="M 64.25 -67.3125 L 64.25 0 L 47.84375 0 L 47.84375 -27.71875 L 22.34375 -27.71875 L 22.34375 0 L 5.9375 0 L 5.9375 -67.3125 L 22.34375 -67.3125 L 22.34375 -40.9375 L 47.84375 -40.9375 L 47.84375 -67.3125 Z M 64.25 -67.3125 "/></g></g></g><g fill="#ffffff" fill-opacity="1"><g transform="translate(91.744804, 127.313743)"><g/></g></g><g fill="#ffffff" fill-opacity="1"><g transform="translate(116.099499, 127.313743)"><g/></g></g><g fill="#ffffff" fill-opacity="1"><g transform="translate(140.454195, 127.313743)"><g/></g></g><g fill="#51328d" fill-opacity="1"><g transform="translate(88.778244, 124.347182)"><g/></g></g><g fill="#51328d" fill-opacity="1"><g transform="translate(113.132939, 124.347182)"><g/></g></g><g fill="#51328d" fill-opacity="1"><g transform="translate(137.487635, 124.347182)"><g/></g></g><g fill="#ffffff" fill-opacity="1"><g transform="translate(164.815646, 127.313743)"><g><path d="M 30.296875 0.671875 C 25.378906 0.671875 20.96875 -0.125 17.0625 -1.71875 C 13.164062 -3.320312 10.050781 -5.6875 7.71875 -8.8125 C 5.382812 -11.945312 4.15625 -15.722656 4.03125 -20.140625 L 21.484375 -20.140625 C 21.734375 -17.640625 22.59375 -15.734375 24.0625 -14.421875 C 25.539062 -13.117188 27.460938 -12.46875 29.828125 -12.46875 C 32.253906 -12.46875 34.171875 -13.023438 35.578125 -14.140625 C 36.984375 -15.265625 37.6875 -16.816406 37.6875 -18.796875 C 37.6875 -20.453125 37.125 -21.820312 36 -22.90625 C 34.882812 -24 33.507812 -24.894531 31.875 -25.59375 C 30.25 -26.300781 27.9375 -27.101562 24.9375 -28 C 20.582031 -29.34375 17.03125 -30.6875 14.28125 -32.03125 C 11.539062 -33.375 9.175781 -35.351562 7.1875 -37.96875 C 5.207031 -40.59375 4.21875 -44.015625 4.21875 -48.234375 C 4.21875 -54.492188 6.484375 -59.398438 11.015625 -62.953125 C 15.554688 -66.503906 21.472656 -68.28125 28.765625 -68.28125 C 36.179688 -68.28125 42.15625 -66.503906 46.6875 -62.953125 C 51.226562 -59.398438 53.660156 -54.460938 53.984375 -48.140625 L 36.25 -48.140625 C 36.125 -50.304688 35.320312 -52.015625 33.84375 -53.265625 C 32.375 -54.515625 30.488281 -55.140625 28.1875 -55.140625 C 26.207031 -55.140625 24.609375 -54.609375 23.390625 -53.546875 C 22.179688 -52.492188 21.578125 -50.976562 21.578125 -49 C 21.578125 -46.820312 22.597656 -45.125 24.640625 -43.90625 C 26.691406 -42.695312 29.890625 -41.390625 34.234375 -39.984375 C 38.578125 -38.515625 42.109375 -37.109375 44.828125 -35.765625 C 47.546875 -34.421875 49.894531 -32.46875 51.875 -29.90625 C 53.851562 -27.351562 54.84375 -24.066406 54.84375 -20.046875 C 54.84375 -16.203125 53.867188 -12.710938 51.921875 -9.578125 C 49.972656 -6.453125 47.144531 -3.960938 43.4375 -2.109375 C 39.726562 -0.253906 35.347656 0.671875 30.296875 0.671875 Z M 30.296875 0.671875 "/></g></g></g><g fill="#ffffff" fill-opacity="1"><g transform="translate(227.811121, 127.313743)"><g><path d="M 57.25 -45.640625 C 57.25 -41.742188 56.351562 -38.179688 54.5625 -34.953125 C 52.769531 -31.722656 50.019531 -29.117188 46.3125 -27.140625 C 42.601562 -25.160156 38 -24.171875 32.5 -24.171875 L 22.34375 -24.171875 L 22.34375 0 L 5.9375 0 L 5.9375 -67.3125 L 32.5 -67.3125 C 37.875 -67.3125 42.414062 -66.382812 46.125 -64.53125 C 49.832031 -62.675781 52.613281 -60.117188 54.46875 -56.859375 C 56.320312 -53.597656 57.25 -49.859375 57.25 -45.640625 Z M 31.265625 -37.203125 C 34.390625 -37.203125 36.71875 -37.9375 38.25 -39.40625 C 39.789062 -40.875 40.5625 -42.953125 40.5625 -45.640625 C 40.5625 -48.328125 39.789062 -50.40625 38.25 -51.875 C 36.71875 -53.34375 34.390625 -54.078125 31.265625 -54.078125 L 22.34375 -54.078125 L 22.34375 -37.203125 Z M 31.265625 -37.203125 "/></g></g></g><g fill="#51328d" fill-opacity="1"><g transform="translate(161.849086, 124.347182)"><g><path d="M 30.296875 0.671875 C 25.378906 0.671875 20.96875 -0.125 17.0625 -1.71875 C 13.164062 -3.320312 10.050781 -5.6875 7.71875 -8.8125 C 5.382812 -11.945312 4.15625 -15.722656 4.03125 -20.140625 L 21.484375 -20.140625 C 21.734375 -17.640625 22.59375 -15.734375 24.0625 -14.421875 C 25.539062 -13.117188 27.460938 -12.46875 29.828125 -12.46875 C 32.253906 -12.46875 34.171875 -13.023438 35.578125 -14.140625 C 36.984375 -15.265625 37.6875 -16.816406 37.6875 -18.796875 C 37.6875 -20.453125 37.125 -21.820312 36 -22.90625 C 34.882812 -24 33.507812 -24.894531 31.875 -25.59375 C 30.25 -26.300781 27.9375 -27.101562 24.9375 -28 C 20.582031 -29.34375 17.03125 -30.6875 14.28125 -32.03125 C 11.539062 -33.375 9.175781 -35.351562 7.1875 -37.96875 C 5.207031 -40.59375 4.21875 -44.015625 4.21875 -48.234375 C 4.21875 -54.492188 6.484375 -59.398438 11.015625 -62.953125 C 15.554688 -66.503906 21.472656 -68.28125 28.765625 -68.28125 C 36.179688 -68.28125 42.15625 -66.503906 46.6875 -62.953125 C 51.226562 -59.398438 53.660156 -54.460938 53.984375 -48.140625 L 36.25 -48.140625 C 36.125 -50.304688 35.320312 -52.015625 33.84375 -53.265625 C 32.375 -54.515625 30.488281 -55.140625 28.1875 -55.140625 C 26.207031 -55.140625 24.609375 -54.609375 23.390625 -53.546875 C 22.179688 -52.492188 21.578125 -50.976562 21.578125 -49 C 21.578125 -46.820312 22.597656 -45.125 24.640625 -43.90625 C 26.691406 -42.695312 29.890625 -41.390625 34.234375 -39.984375 C 38.578125 -38.515625 42.109375 -37.109375 44.828125 -35.765625 C 47.546875 -34.421875 49.894531 -32.46875 51.875 -29.90625 C 53.851562 -27.351562 54.84375 -24.066406 54.84375 -20.046875 C 54.84375 -16.203125 53.867188 -12.710938 51.921875 -9.578125 C 49.972656 -6.453125 47.144531 -3.960938 43.4375 -2.109375 C 39.726562 -0.253906 35.347656 0.671875 30.296875 0.671875 Z M 30.296875 0.671875 "/></g></g></g><g fill="#51328d" fill-opacity="1"><g transform="translate(224.844561, 124.347182)"><g><path d="M 57.25 -45.640625 C 57.25 -41.742188 56.351562 -38.179688 54.5625 -34.953125 C 52.769531 -31.722656 50.019531 -29.117188 46.3125 -27.140625 C 42.601562 -25.160156 38 -24.171875 32.5 -24.171875 L 22.34375 -24.171875 L 22.34375 0 L 5.9375 0 L 5.9375 -67.3125 L 32.5 -67.3125 C 37.875 -67.3125 42.414062 -66.382812 46.125 -64.53125 C 49.832031 -62.675781 52.613281 -60.117188 54.46875 -56.859375 C 56.320312 -53.597656 57.25 -49.859375 57.25 -45.640625 Z M 31.265625 -37.203125 C 34.390625 -37.203125 36.71875 -37.9375 38.25 -39.40625 C 39.789062 -40.875 40.5625 -42.953125 40.5625 -45.640625 C 40.5625 -48.328125 39.789062 -50.40625 38.25 -51.875 C 36.71875 -53.34375 34.390625 -54.078125 31.265625 -54.078125 L 22.34375 -54.078125 L 22.34375 -37.203125 Z M 31.265625 -37.203125 "/></g></g></g><g fill="#ffffff" fill-opacity="1"><g transform="translate(291.679106, 127.313743)"><g><path d="M 22.34375 -67.3125 L 22.34375 0 L 5.9375 0 L 5.9375 -67.3125 Z M 22.34375 -67.3125 "/></g></g></g><g fill="#b497ed" fill-opacity="1"><g transform="translate(288.712546, 124.347182)"><g><path d="M 22.34375 -67.3125 L 22.34375 0 L 5.9375 0 L 5.9375 -67.3125 Z M 22.34375 -67.3125 "/></g></g></g><g fill="#ffffff" fill-opacity="1"><g transform="translate(324.003093, 127.313743)"><g><path d="M 54.375 -67.3125 L 54.375 -54.171875 L 36.53125 -54.171875 L 36.53125 0 L 20.140625 0 L 20.140625 -54.171875 L 2.296875 -54.171875 L 2.296875 -67.3125 Z M 54.375 -67.3125 "/></g></g></g><g fill="#ffffff" fill-opacity="1"><g transform="translate(384.697377, 127.313743)"><g><path d="M 47.84375 -11.890625 L 22.71875 -11.890625 L 18.703125 0 L 1.53125 0 L 25.890625 -67.3125 L 44.875 -67.3125 L 69.234375 0 L 51.875 0 Z M 43.625 -24.546875 L 35.28125 -49.1875 L 27.046875 -24.546875 Z M 43.625 -24.546875 "/></g></g></g><g fill="#ffffff" fill-opacity="1"><g transform="translate(459.390557, 127.313743)"><g><path d="M 22.34375 -12.65625 L 43.828125 -12.65625 L 43.828125 0 L 5.9375 0 L 5.9375 -67.3125 L 22.34375 -67.3125 Z M 22.34375 -12.65625 "/></g></g></g><g fill="#51328d" fill-opacity="1"><g transform="translate(321.036533, 124.347182)"><g><path d="M 54.375 -67.3125 L 54.375 -54.171875 L 36.53125 -54.171875 L 36.53125 0 L 20.140625 0 L 20.140625 -54.171875 L 2.296875 -54.171875 L 2.296875 -67.3125 Z M 54.375 -67.3125 "/></g></g></g><g fill="#51328d" fill-opacity="1"><g transform="translate(381.730817, 124.347182)"><g><path d="M 47.84375 -11.890625 L 22.71875 -11.890625 L 18.703125 0 L 1.53125 0 L 25.890625 -67.3125 L 44.875 -67.3125 L 69.234375 0 L 51.875 0 Z M 43.625 -24.546875 L 35.28125 -49.1875 L 27.046875 -24.546875 Z M 43.625 -24.546875 "/></g></g></g><g fill="#51328d" fill-opacity="1"><g transform="translate(456.423997, 124.347182)"><g><path d="M 22.34375 -12.65625 L 43.828125 -12.65625 L 43.828125 0 L 5.9375 0 L 5.9375 -67.3125 L 22.34375 -67.3125 Z M 22.34375 -12.65625 "/></g></g></g><g fill="#ffffff" fill-opacity="1"><g transform="translate(194.759321, 178.178942)"><g><path d="M 18.453125 -39.859375 C 22.648438 -39.859375 26.320312 -39.023438 29.46875 -37.359375 C 32.613281 -35.691406 35.046875 -33.351562 36.765625 -30.34375 C 38.484375 -27.332031 39.34375 -23.863281 39.34375 -19.9375 C 39.34375 -16.03125 38.484375 -12.5625 36.765625 -9.53125 C 35.046875 -6.507812 32.601562 -4.164062 29.4375 -2.5 C 26.28125 -0.832031 22.617188 0 18.453125 0 L 3.515625 0 L 3.515625 -39.859375 Z M 17.828125 -8.40625 C 21.503906 -8.40625 24.363281 -9.40625 26.40625 -11.40625 C 28.445312 -13.414062 29.46875 -16.257812 29.46875 -19.9375 C 29.46875 -23.601562 28.445312 -26.457031 26.40625 -28.5 C 24.363281 -30.550781 21.503906 -31.578125 17.828125 -31.578125 L 13.234375 -31.578125 L 13.234375 -8.40625 Z M 17.828125 -8.40625 "/></g></g></g><g fill="#ffffff" fill-opacity="1"><g transform="translate(238.401696, 178.178942)"><g><path d="M 13.234375 -32.078125 L 13.234375 -24.015625 L 26.234375 -24.015625 L 26.234375 -16.515625 L 13.234375 -16.515625 L 13.234375 -7.78125 L 27.9375 -7.78125 L 27.9375 0 L 3.515625 0 L 3.515625 -39.859375 L 27.9375 -39.859375 L 27.9375 -32.078125 Z M 13.234375 -32.078125 "/></g></g></g><g fill="#ffffff" fill-opacity="1"><g transform="translate(271.488637, 178.178942)"><g><path d="M 39.171875 0 L 29.46875 0 L 13.234375 -24.59375 L 13.234375 0 L 3.515625 0 L 3.515625 -39.859375 L 13.234375 -39.859375 L 29.46875 -15.15625 L 29.46875 -39.859375 L 39.171875 -39.859375 Z M 39.171875 0 "/></g></g></g><g fill="#ffffff" fill-opacity="1"><g transform="translate(316.549751, 178.178942)"><g><path d="M 32.1875 -39.859375 L 32.1875 -32.078125 L 21.640625 -32.078125 L 21.640625 0 L 11.921875 0 L 11.921875 -32.078125 L 1.359375 -32.078125 L 1.359375 -39.859375 Z M 32.1875 -39.859375 "/></g></g></g><g fill="#ffffff" fill-opacity="1"><g transform="translate(352.474174, 178.178942)"><g/></g></g><g fill="#ffffff" fill-opacity="1"><g transform="translate(366.890529, 178.178942)"><g><path d="M 1.875 -19.984375 C 1.875 -23.921875 2.722656 -27.429688 4.421875 -30.515625 C 6.128906 -33.597656 8.503906 -36 11.546875 -37.71875 C 14.597656 -39.445312 18.054688 -40.3125 21.921875 -40.3125 C 26.648438 -40.3125 30.695312 -39.0625 34.0625 -36.5625 C 37.4375 -34.0625 39.691406 -30.65625 40.828125 -26.34375 L 30.15625 -26.34375 C 29.351562 -28.007812 28.222656 -29.273438 26.765625 -30.140625 C 25.316406 -31.015625 23.660156 -31.453125 21.796875 -31.453125 C 18.804688 -31.453125 16.382812 -30.410156 14.53125 -28.328125 C 12.675781 -26.242188 11.75 -23.460938 11.75 -19.984375 C 11.75 -16.503906 12.675781 -13.722656 14.53125 -11.640625 C 16.382812 -9.554688 18.804688 -8.515625 21.796875 -8.515625 C 23.660156 -8.515625 25.316406 -8.945312 26.765625 -9.8125 C 28.222656 -10.6875 29.351562 -11.957031 30.15625 -13.625 L 40.828125 -13.625 C 39.691406 -9.3125 37.4375 -5.914062 34.0625 -3.4375 C 30.695312 -0.957031 26.648438 0.28125 21.921875 0.28125 C 18.054688 0.28125 14.597656 -0.578125 11.546875 -2.296875 C 8.503906 -4.023438 6.128906 -6.421875 4.421875 -9.484375 C 2.722656 -12.546875 1.875 -16.046875 1.875 -19.984375 Z M 1.875 -19.984375 "/></g></g></g><g fill="#ffffff" fill-opacity="1"><g transform="translate(412.519146, 178.178942)"><g><path d="M 48.65625 -39.859375 L 48.65625 0 L 38.953125 0 L 38.953125 -23.90625 L 30.03125 0 L 22.203125 0 L 13.234375 -23.96875 L 13.234375 0 L 3.515625 0 L 3.515625 -39.859375 L 14.984375 -39.859375 L 26.171875 -12.265625 L 37.25 -39.859375 Z M 48.65625 -39.859375 "/></g></g></g><g fill="#ffffff" fill-opacity="1"><g transform="translate(467.000675, 178.178942)"><g><path d="M 13.0625 -39.859375 L 13.0625 -16.015625 C 13.0625 -13.628906 13.644531 -11.789062 14.8125 -10.5 C 15.988281 -9.21875 17.710938 -8.578125 19.984375 -8.578125 C 22.253906 -8.578125 23.992188 -9.21875 25.203125 -10.5 C 26.421875 -11.789062 27.03125 -13.628906 27.03125 -16.015625 L 27.03125 -39.859375 L 36.734375 -39.859375 L 36.734375 -16.0625 C 36.734375 -12.507812 35.972656 -9.5 34.453125 -7.03125 C 32.941406 -4.570312 30.910156 -2.71875 28.359375 -1.46875 C 25.804688 -0.226562 22.957031 0.390625 19.8125 0.390625 C 16.675781 0.390625 13.867188 -0.222656 11.390625 -1.453125 C 8.910156 -2.679688 6.945312 -4.535156 5.5 -7.015625 C 4.0625 -9.492188 3.34375 -12.507812 3.34375 -16.0625 L 3.34375 -39.859375 Z M 13.0625 -39.859375 "/></g></g></g><g fill="#51328d" fill-opacity="1"><g transform="translate(193.002286, 176.421907)"><g><path d="M 18.453125 -39.859375 C 22.648438 -39.859375 26.320312 -39.023438 29.46875 -37.359375 C 32.613281 -35.691406 35.046875 -33.351562 36.765625 -30.34375 C 38.484375 -27.332031 39.34375 -23.863281 39.34375 -19.9375 C 39.34375 -16.03125 38.484375 -12.5625 36.765625 -9.53125 C 35.046875 -6.507812 32.601562 -4.164062 29.4375 -2.5 C 26.28125 -0.832031 22.617188 0 18.453125 0 L 3.515625 0 L 3.515625 -39.859375 Z M 17.828125 -8.40625 C 21.503906 -8.40625 24.363281 -9.40625 26.40625 -11.40625 C 28.445312 -13.414062 29.46875 -16.257812 29.46875 -19.9375 C 29.46875 -23.601562 28.445312 -26.457031 26.40625 -28.5 C 24.363281 -30.550781 21.503906 -31.578125 17.828125 -31.578125 L 13.234375 -31.578125 L 13.234375 -8.40625 Z M 17.828125 -8.40625 "/></g></g></g><g fill="#51328d" fill-opacity="1"><g transform="translate(236.644661, 176.421907)"><g><path d="M 13.234375 -32.078125 L 13.234375 -24.015625 L 26.234375 -24.015625 L 26.234375 -16.515625 L 13.234375 -16.515625 L 13.234375 -7.78125 L 27.9375 -7.78125 L 27.9375 0 L 3.515625 0 L 3.515625 -39.859375 L 27.9375 -39.859375 L 27.9375 -32.078125 Z M 13.234375 -32.078125 "/></g></g></g><g fill="#51328d" fill-opacity="1"><g transform="translate(269.731602, 176.421907)"><g><path d="M 39.171875 0 L 29.46875 0 L 13.234375 -24.59375 L 13.234375 0 L 3.515625 0 L 3.515625 -39.859375 L 13.234375 -39.859375 L 29.46875 -15.15625 L 29.46875 -39.859375 L 39.171875 -39.859375 Z M 39.171875 0 "/></g></g></g><g fill="#51328d" fill-opacity="1"><g transform="translate(314.792716, 176.421907)"><g><path d="M 32.1875 -39.859375 L 32.1875 -32.078125 L 21.640625 -32.078125 L 21.640625 0 L 11.921875 0 L 11.921875 -32.078125 L 1.359375 -32.078125 L 1.359375 -39.859375 Z M 32.1875 -39.859375 "/></g></g></g><g fill="#51328d" fill-opacity="1"><g transform="translate(350.717139, 176.421907)"><g/></g></g><g fill="#51328d" fill-opacity="1"><g transform="translate(365.133494, 176.421907)"><g><path d="M 1.875 -19.984375 C 1.875 -23.921875 2.722656 -27.429688 4.421875 -30.515625 C 6.128906 -33.597656 8.503906 -36 11.546875 -37.71875 C 14.597656 -39.445312 18.054688 -40.3125 21.921875 -40.3125 C 26.648438 -40.3125 30.695312 -39.0625 34.0625 -36.5625 C 37.4375 -34.0625 39.691406 -30.65625 40.828125 -26.34375 L 30.15625 -26.34375 C 29.351562 -28.007812 28.222656 -29.273438 26.765625 -30.140625 C 25.316406 -31.015625 23.660156 -31.453125 21.796875 -31.453125 C 18.804688 -31.453125 16.382812 -30.410156 14.53125 -28.328125 C 12.675781 -26.242188 11.75 -23.460938 11.75 -19.984375 C 11.75 -16.503906 12.675781 -13.722656 14.53125 -11.640625 C 16.382812 -9.554688 18.804688 -8.515625 21.796875 -8.515625 C 23.660156 -8.515625 25.316406 -8.945312 26.765625 -9.8125 C 28.222656 -10.6875 29.351562 -11.957031 30.15625 -13.625 L 40.828125 -13.625 C 39.691406 -9.3125 37.4375 -5.914062 34.0625 -3.4375 C 30.695312 -0.957031 26.648438 0.28125 21.921875 0.28125 C 18.054688 0.28125 14.597656 -0.578125 11.546875 -2.296875 C 8.503906 -4.023438 6.128906 -6.421875 4.421875 -9.484375 C 2.722656 -12.546875 1.875 -16.046875 1.875 -19.984375 Z M 1.875 -19.984375 "/></g></g></g><g fill="#51328d" fill-opacity="1"><g transform="translate(410.762111, 176.421907)"><g><path d="M 48.65625 -39.859375 L 48.65625 0 L 38.953125 0 L 38.953125 -23.90625 L 30.03125 0 L 22.203125 0 L 13.234375 -23.96875 L 13.234375 0 L 3.515625 0 L 3.515625 -39.859375 L 14.984375 -39.859375 L 26.171875 -12.265625 L 37.25 -39.859375 Z M 48.65625 -39.859375 "/></g></g></g><g fill="#51328d" fill-opacity="1"><g transform="translate(465.24364, 176.421907)"><g><path d="M 13.0625 -39.859375 L 13.0625 -16.015625 C 13.0625 -13.628906 13.644531 -11.789062 14.8125 -10.5 C 15.988281 -9.21875 17.710938 -8.578125 19.984375 -8.578125 C 22.253906 -8.578125 23.992188 -9.21875 25.203125 -10.5 C 26.421875 -11.789062 27.03125 -13.628906 27.03125 -16.015625 L 27.03125 -39.859375 L 36.734375 -39.859375 L 36.734375 -16.0625 C 36.734375 -12.507812 35.972656 -9.5 34.453125 -7.03125 C 32.941406 -4.570312 30.910156 -2.71875 28.359375 -1.46875 C 25.804688 -0.226562 22.957031 0.390625 19.8125 0.390625 C 16.675781 0.390625 13.867188 -0.222656 11.390625 -1.453125 C 8.910156 -2.679688 6.945312 -4.535156 5.5 -7.015625 C 4.0625 -9.492188 3.34375 -12.507812 3.34375 -16.0625 L 3.34375 -39.859375 Z M 13.0625 -39.859375 "/></g></g></g></svg>