<svg xmlns="http://www.w3.org/2000/svg" xmlns:xlink="http://www.w3.org/1999/xlink" width="700" zoomAndPan="magnify" viewBox="0 0 525 225" height="300" preserveAspectRatio="xMidYMid meet" version="1.0"><defs><g/><clipPath id="dda0d9bd2a"><path d="M 345.332031 23.226562 L 520 23.226562 L 520 197.976562 L 345.332031 197.976562 Z M 345.332031 23.226562 " clip-rule="nonzero"/></clipPath><clipPath id="bdd8f6dd02"><path d="M 50.332031 81.457031 L 108.082031 81.457031 L 108.082031 139.207031 L 50.332031 139.207031 Z M 50.332031 81.457031 " clip-rule="nonzero"/></clipPath></defs><g fill="#000000" fill-opacity="1"><g transform="translate(0.000000000000042633, 134.451502)"><g><path d="M 46.90625 -49.140625 L 46.90625 0 L 34.9375 0 L 34.9375 -20.234375 L 16.3125 -20.234375 L 16.3125 0 L 4.34375 0 L 4.34375 -49.140625 L 16.3125 -49.140625 L 16.3125 -29.890625 L 34.9375 -29.890625 L 34.9375 -49.140625 Z M 46.90625 -49.140625 "/></g></g></g><g fill="#000000" fill-opacity="1"><g transform="translate(54.11393, 134.451502)"><g/></g></g><g fill="#000000" fill-opacity="1"><g transform="translate(71.889474, 134.451502)"><g/></g></g><g fill="#000000" fill-opacity="1"><g transform="translate(89.665018, 134.451502)"><g/></g></g><g fill="#000000" fill-opacity="1"><g transform="translate(107.451476, 134.451502)"><g><path d="M 22.125 0.484375 C 18.53125 0.484375 15.304688 -0.0976562 12.453125 -1.265625 C 9.609375 -2.429688 7.332031 -4.15625 5.625 -6.4375 C 3.925781 -8.726562 3.03125 -11.484375 2.9375 -14.703125 L 15.6875 -14.703125 C 15.863281 -12.878906 16.488281 -11.488281 17.5625 -10.53125 C 18.644531 -9.570312 20.046875 -9.09375 21.765625 -9.09375 C 23.546875 -9.09375 24.945312 -9.5 25.96875 -10.3125 C 27 -11.132812 27.515625 -12.269531 27.515625 -13.71875 C 27.515625 -14.9375 27.101562 -15.941406 26.28125 -16.734375 C 25.46875 -17.523438 24.460938 -18.175781 23.265625 -18.6875 C 22.078125 -19.195312 20.390625 -19.78125 18.203125 -20.4375 C 15.023438 -21.414062 12.429688 -22.394531 10.421875 -23.375 C 8.421875 -24.351562 6.695312 -25.800781 5.25 -27.71875 C 3.800781 -29.632812 3.078125 -32.128906 3.078125 -35.203125 C 3.078125 -39.773438 4.734375 -43.359375 8.046875 -45.953125 C 11.359375 -48.546875 15.675781 -49.84375 21 -49.84375 C 26.414062 -49.84375 30.78125 -48.546875 34.09375 -45.953125 C 37.40625 -43.359375 39.175781 -39.753906 39.40625 -35.140625 L 26.453125 -35.140625 C 26.359375 -36.722656 25.773438 -37.96875 24.703125 -38.875 C 23.628906 -39.789062 22.253906 -40.25 20.578125 -40.25 C 19.128906 -40.25 17.960938 -39.863281 17.078125 -39.09375 C 16.191406 -38.320312 15.75 -37.210938 15.75 -35.765625 C 15.75 -34.179688 16.492188 -32.945312 17.984375 -32.0625 C 19.484375 -31.175781 21.816406 -30.21875 24.984375 -29.1875 C 28.160156 -28.113281 30.738281 -27.085938 32.71875 -26.109375 C 34.707031 -25.128906 36.425781 -23.707031 37.875 -21.84375 C 39.320312 -19.976562 40.046875 -17.570312 40.046875 -14.625 C 40.046875 -11.832031 39.332031 -9.289062 37.90625 -7 C 36.476562 -4.707031 34.410156 -2.882812 31.703125 -1.53125 C 29.003906 -0.1875 25.8125 0.484375 22.125 0.484375 Z M 22.125 0.484375 "/></g></g></g><g fill="#000000" fill-opacity="1"><g transform="translate(153.428113, 134.451502)"><g><path d="M 41.796875 -33.3125 C 41.796875 -30.46875 41.140625 -27.867188 39.828125 -25.515625 C 38.523438 -23.160156 36.519531 -21.257812 33.8125 -19.8125 C 31.101562 -18.363281 27.742188 -17.640625 23.734375 -17.640625 L 16.3125 -17.640625 L 16.3125 0 L 4.34375 0 L 4.34375 -49.140625 L 23.734375 -49.140625 C 27.648438 -49.140625 30.960938 -48.460938 33.671875 -47.109375 C 36.378906 -45.753906 38.410156 -43.882812 39.765625 -41.5 C 41.117188 -39.125 41.796875 -36.394531 41.796875 -33.3125 Z M 22.8125 -27.15625 C 25.101562 -27.15625 26.804688 -27.691406 27.921875 -28.765625 C 29.046875 -29.835938 29.609375 -31.351562 29.609375 -33.3125 C 29.609375 -35.28125 29.046875 -36.800781 27.921875 -37.875 C 26.804688 -38.945312 25.101562 -39.484375 22.8125 -39.484375 L 16.3125 -39.484375 L 16.3125 -27.15625 Z M 22.8125 -27.15625 "/></g></g></g><g fill="#b497ed" fill-opacity="1"><g transform="translate(200.048147, 134.451502)"><g><path d="M 16.3125 -49.140625 L 16.3125 0 L 4.34375 0 L 4.34375 -49.140625 Z M 16.3125 -49.140625 "/></g></g></g><g fill="#000000" fill-opacity="1"><g transform="translate(223.650205, 134.451502)"><g><path d="M 39.6875 -49.140625 L 39.6875 -39.546875 L 26.671875 -39.546875 L 26.671875 0 L 14.703125 0 L 14.703125 -39.546875 L 1.6875 -39.546875 L 1.6875 -49.140625 Z M 39.6875 -49.140625 "/></g></g></g><g fill="#000000" fill-opacity="1"><g transform="translate(267.947356, 134.451502)"><g><path d="M 16.3125 -39.546875 L 16.3125 -29.609375 L 32.34375 -29.609375 L 32.34375 -20.375 L 16.3125 -20.375 L 16.3125 -9.59375 L 34.4375 -9.59375 L 34.4375 0 L 4.34375 0 L 4.34375 -49.140625 L 34.4375 -49.140625 L 34.4375 -39.546875 Z M 16.3125 -39.546875 "/></g></g></g><g fill="#000000" fill-opacity="1"><g transform="translate(308.745627, 134.451502)"><g><path d="M 16.3125 -9.234375 L 31.984375 -9.234375 L 31.984375 0 L 4.34375 0 L 4.34375 -49.140625 L 16.3125 -49.140625 Z M 16.3125 -9.234375 "/></g></g></g><g clip-path="url(#dda0d9bd2a)"><path fill="#b497ed" d="M 519.742188 110.433594 C 519.742188 111.859375 519.707031 113.285156 519.636719 114.710938 C 519.570312 116.136719 519.464844 117.558594 519.324219 118.980469 C 519.183594 120.398438 519.007812 121.816406 518.800781 123.226562 C 518.589844 124.640625 518.347656 126.046875 518.066406 127.445312 C 517.789062 128.84375 517.476562 130.238281 517.128906 131.621094 C 516.785156 133.003906 516.402344 134.378906 515.988281 135.746094 C 515.574219 137.113281 515.125 138.46875 514.644531 139.8125 C 514.164062 141.15625 513.652344 142.484375 513.105469 143.804688 C 512.558594 145.121094 511.980469 146.425781 511.371094 147.71875 C 510.761719 149.007812 510.121094 150.28125 509.445312 151.539062 C 508.773438 152.800781 508.070312 154.039062 507.335938 155.265625 C 506.601562 156.488281 505.839844 157.695312 505.046875 158.878906 C 504.253906 160.066406 503.433594 161.234375 502.582031 162.378906 C 501.730469 163.527344 500.855469 164.652344 499.949219 165.753906 C 499.042969 166.859375 498.113281 167.9375 497.152344 168.996094 C 496.195312 170.054688 495.210938 171.085938 494.203125 172.09375 C 493.191406 173.105469 492.160156 174.089844 491.101562 175.046875 C 490.042969 176.003906 488.964844 176.9375 487.859375 177.84375 C 486.757812 178.746094 485.632812 179.625 484.488281 180.476562 C 483.339844 181.324219 482.171875 182.148438 480.988281 182.941406 C 479.800781 183.734375 478.59375 184.496094 477.371094 185.230469 C 476.148438 185.964844 474.90625 186.667969 473.648438 187.339844 C 472.386719 188.011719 471.113281 188.65625 469.824219 189.265625 C 468.535156 189.875 467.230469 190.453125 465.910156 191 C 464.59375 191.546875 463.261719 192.058594 461.917969 192.539062 C 460.574219 193.019531 459.21875 193.46875 457.851562 193.882812 C 456.488281 194.296875 455.113281 194.675781 453.726562 195.023438 C 452.34375 195.371094 450.949219 195.683594 449.550781 195.960938 C 448.152344 196.238281 446.746094 196.484375 445.335938 196.691406 C 443.921875 196.902344 442.507812 197.078125 441.085938 197.21875 C 439.664062 197.355469 438.242188 197.460938 436.816406 197.53125 C 435.390625 197.601562 433.964844 197.636719 432.539062 197.636719 C 431.109375 197.636719 429.683594 197.601562 428.257812 197.53125 C 426.835938 197.460938 425.410156 197.355469 423.992188 197.21875 C 422.570312 197.078125 421.15625 196.902344 419.742188 196.691406 C 418.332031 196.484375 416.925781 196.238281 415.527344 195.960938 C 414.125 195.683594 412.734375 195.371094 411.347656 195.023438 C 409.964844 194.675781 408.589844 194.296875 407.222656 193.882812 C 405.859375 193.46875 404.503906 193.019531 403.160156 192.539062 C 401.816406 192.058594 400.484375 191.546875 399.167969 191 C 397.847656 190.453125 396.542969 189.875 395.253906 189.265625 C 393.964844 188.65625 392.6875 188.011719 391.429688 187.339844 C 390.171875 186.667969 388.929688 185.964844 387.707031 185.230469 C 386.480469 184.496094 385.277344 183.734375 384.089844 182.941406 C 382.902344 182.148438 381.738281 181.324219 380.589844 180.476562 C 379.445312 179.625 378.320312 178.746094 377.214844 177.84375 C 376.113281 176.9375 375.03125 176.003906 373.976562 175.046875 C 372.917969 174.089844 371.882812 173.105469 370.875 172.09375 C 369.867188 171.085938 368.882812 170.054688 367.921875 168.996094 C 366.964844 167.9375 366.035156 166.859375 365.128906 165.753906 C 364.222656 164.652344 363.34375 163.527344 362.496094 162.378906 C 361.644531 161.234375 360.824219 160.066406 360.03125 158.878906 C 359.238281 157.695312 358.472656 156.488281 357.738281 155.265625 C 357.007812 154.039062 356.304688 152.800781 355.628906 151.539062 C 354.957031 150.28125 354.316406 149.007812 353.707031 147.71875 C 353.097656 146.425781 352.519531 145.121094 351.972656 143.804688 C 351.425781 142.484375 350.910156 141.15625 350.429688 139.8125 C 349.949219 138.46875 349.503906 137.113281 349.089844 135.746094 C 348.675781 134.378906 348.292969 133.003906 347.945312 131.621094 C 347.601562 130.238281 347.289062 128.84375 347.007812 127.445312 C 346.730469 126.046875 346.488281 124.640625 346.277344 123.226562 C 346.066406 121.816406 345.894531 120.398438 345.753906 118.980469 C 345.613281 117.558594 345.507812 116.136719 345.4375 114.710938 C 345.367188 113.285156 345.332031 111.859375 345.332031 110.433594 C 345.332031 109.003906 345.367188 107.578125 345.4375 106.152344 C 345.507812 104.726562 345.613281 103.304688 345.753906 101.882812 C 345.894531 100.464844 346.066406 99.046875 346.277344 97.636719 C 346.488281 96.226562 346.730469 94.820312 347.007812 93.417969 C 347.289062 92.019531 347.601562 90.628906 347.945312 89.242188 C 348.292969 87.859375 348.675781 86.484375 349.089844 85.117188 C 349.503906 83.753906 349.949219 82.398438 350.429688 81.054688 C 350.910156 79.710938 351.425781 78.378906 351.972656 77.058594 C 352.519531 75.742188 353.097656 74.4375 353.707031 73.148438 C 354.316406 71.855469 354.957031 70.582031 355.628906 69.324219 C 356.304688 68.066406 357.007812 66.824219 357.738281 65.601562 C 358.472656 64.375 359.238281 63.171875 360.03125 61.984375 C 360.824219 60.796875 361.644531 59.628906 362.496094 58.484375 C 363.34375 57.335938 364.222656 56.214844 365.128906 55.109375 C 366.035156 54.007812 366.964844 52.925781 367.921875 51.867188 C 368.882812 50.8125 369.867188 49.777344 370.875 48.769531 C 371.882812 47.757812 372.917969 46.777344 373.976562 45.816406 C 375.03125 44.859375 376.113281 43.925781 377.214844 43.023438 C 378.320312 42.117188 379.445312 41.238281 380.589844 40.386719 C 381.738281 39.539062 382.902344 38.714844 384.089844 37.921875 C 385.277344 37.132812 386.480469 36.367188 387.707031 35.632812 C 388.929688 34.898438 390.171875 34.195312 391.429688 33.523438 C 392.6875 32.851562 393.964844 32.210938 395.253906 31.601562 C 396.542969 30.988281 397.847656 30.410156 399.167969 29.863281 C 400.484375 29.320312 401.816406 28.804688 403.160156 28.324219 C 404.503906 27.84375 405.859375 27.394531 407.222656 26.980469 C 408.589844 26.566406 409.964844 26.1875 411.347656 25.839844 C 412.734375 25.492188 414.125 25.179688 415.527344 24.902344 C 416.925781 24.625 418.332031 24.378906 419.742188 24.171875 C 421.15625 23.960938 422.570312 23.785156 423.992188 23.648438 C 425.410156 23.507812 426.835938 23.402344 428.257812 23.332031 C 429.683594 23.261719 431.109375 23.226562 432.539062 23.226562 C 433.964844 23.226562 435.390625 23.261719 436.816406 23.332031 C 438.242188 23.402344 439.664062 23.507812 441.085938 23.648438 C 442.507812 23.785156 443.921875 23.960938 445.335938 24.171875 C 446.746094 24.378906 448.152344 24.625 449.550781 24.902344 C 450.949219 25.179688 452.34375 25.492188 453.726562 25.839844 C 455.113281 26.1875 456.488281 26.566406 457.851562 26.980469 C 459.21875 27.394531 460.574219 27.84375 461.917969 28.324219 C 463.261719 28.804688 464.59375 29.320312 465.910156 29.863281 C 467.230469 30.410156 468.535156 30.988281 469.824219 31.601562 C 471.113281 32.210938 472.386719 32.851562 473.648438 33.523438 C 474.90625 34.195312 476.148438 34.898438 477.371094 35.632812 C 478.59375 36.367188 479.800781 37.132812 480.988281 37.921875 C 482.171875 38.714844 483.339844 39.539062 484.488281 40.386719 C 485.632812 41.238281 486.757812 42.117188 487.859375 43.023438 C 488.964844 43.925781 490.042969 44.859375 491.101562 45.816406 C 492.160156 46.777344 493.191406 47.757812 494.203125 48.769531 C 495.210938 49.777344 496.195312 50.8125 497.152344 51.867188 C 498.113281 52.925781 499.042969 54.007812 499.949219 55.109375 C 500.855469 56.214844 501.730469 57.335938 502.582031 58.484375 C 503.433594 59.628906 504.253906 60.796875 505.046875 61.984375 C 505.839844 63.171875 506.601562 64.375 507.335938 65.601562 C 508.070312 66.824219 508.773438 68.066406 509.445312 69.324219 C 510.121094 70.582031 510.761719 71.855469 511.371094 73.148438 C 511.980469 74.4375 512.558594 75.742188 513.105469 77.058594 C 513.652344 78.378906 514.164062 79.710938 514.644531 81.054688 C 515.125 82.398438 515.574219 83.753906 515.988281 85.117188 C 516.402344 86.484375 516.785156 87.859375 517.128906 89.242188 C 517.476562 90.628906 517.789062 92.019531 518.066406 93.417969 C 518.347656 94.820312 518.589844 96.226562 518.800781 97.636719 C 519.007812 99.046875 519.183594 100.464844 519.324219 101.882812 C 519.464844 103.304688 519.570312 104.726562 519.636719 106.152344 C 519.707031 107.578125 519.742188 109.003906 519.742188 110.433594 Z M 519.742188 110.433594 " fill-opacity="1" fill-rule="nonzero"/></g><path fill="#ffffff" d="M 469.371094 59.726562 C 454.914062 47.910156 443.207031 63.433594 432.539062 63.433594 C 421.867188 63.433594 410.160156 47.910156 395.707031 59.726562 C 383.898438 69.378906 386.675781 96.789062 392.929688 114.503906 C 399.183594 132.21875 402.195312 151.21875 405.207031 160.253906 C 408.222656 169.285156 418.175781 165.113281 418.890625 160.253906 C 420.808594 147.171875 426.054688 136.855469 432.539062 136.855469 C 439.023438 136.855469 444.265625 147.152344 446.1875 160.253906 C 446.902344 165.113281 456.859375 169.285156 459.867188 160.253906 C 462.878906 151.21875 465.894531 132.234375 472.148438 114.503906 C 478.398438 96.777344 481.175781 69.378906 469.371094 59.726562 Z M 469.371094 59.726562 " fill-opacity="1" fill-rule="nonzero"/><path fill="#ffc250" d="M 499.363281 90.675781 C 489.207031 93.59375 486.839844 95.960938 483.925781 106.117188 C 481.007812 95.960938 478.640625 93.59375 468.484375 90.675781 C 478.640625 87.757812 481.007812 85.390625 483.925781 75.234375 C 486.839844 85.390625 489.222656 87.757812 499.363281 90.675781 Z M 499.363281 90.675781 " fill-opacity="1" fill-rule="nonzero"/><path fill="#ffc250" d="M 398.84375 112.046875 C 391.429688 114.183594 389.6875 115.914062 387.546875 123.34375 C 385.410156 115.929688 383.675781 114.1875 376.246094 112.046875 C 383.660156 109.914062 385.402344 108.183594 387.546875 100.746094 C 389.679688 108.183594 391.414062 109.914062 398.84375 112.046875 Z M 398.84375 112.046875 " fill-opacity="1" fill-rule="nonzero"/><path fill="#ffc250" d="M 478.53125 142.988281 C 475.226562 143.941406 474.457031 144.707031 473.507812 148.011719 C 472.558594 144.707031 471.789062 143.941406 468.484375 142.988281 C 471.789062 142.039062 472.558594 141.273438 473.507812 137.96875 C 474.457031 141.273438 475.226562 142.039062 478.53125 142.988281 Z M 478.53125 142.988281 " fill-opacity="1" fill-rule="nonzero"/><g clip-path="url(#bdd8f6dd02)"><path fill="#b497ed" d="M 108.28125 110.433594 C 108.28125 126.5 95.375 139.40625 79.304688 139.40625 C 63.238281 139.40625 50.332031 126.5 50.332031 110.433594 C 50.332031 94.363281 63.238281 81.457031 79.304688 81.457031 C 95.375 81.457031 108.28125 94.363281 108.28125 110.433594 Z M 97.742188 103.714844 L 86.023438 103.714844 L 86.023438 91.992188 L 72.457031 91.992188 L 72.457031 103.714844 L 60.734375 103.714844 L 60.734375 117.28125 L 72.457031 117.28125 L 72.457031 128.871094 L 86.023438 128.871094 L 86.023438 117.148438 L 97.742188 117.148438 Z M 97.742188 103.714844 " fill-opacity="1" fill-rule="nonzero"/></g><g fill="#000000" fill-opacity="1"><g transform="translate(268.927771, 188.754325)"><g><path d="M 1.125 -11.234375 C 1.125 -13.429688 1.617188 -15.398438 2.609375 -17.140625 C 3.609375 -18.890625 4.96875 -20.25 6.6875 -21.21875 C 8.414062 -22.195312 10.347656 -22.6875 12.484375 -22.6875 C 14.984375 -22.6875 17.175781 -22.046875 19.0625 -20.765625 C 20.945312 -19.484375 22.265625 -17.707031 23.015625 -15.4375 L 17.84375 -15.4375 C 17.332031 -16.507812 16.609375 -17.3125 15.671875 -17.84375 C 14.742188 -18.375 13.671875 -18.640625 12.453125 -18.640625 C 11.148438 -18.640625 9.988281 -18.332031 8.96875 -17.71875 C 7.957031 -17.113281 7.164062 -16.253906 6.59375 -15.140625 C 6.03125 -14.035156 5.75 -12.734375 5.75 -11.234375 C 5.75 -9.753906 6.03125 -8.453125 6.59375 -7.328125 C 7.164062 -6.210938 7.957031 -5.347656 8.96875 -4.734375 C 9.988281 -4.117188 11.148438 -3.8125 12.453125 -3.8125 C 13.671875 -3.8125 14.742188 -4.082031 15.671875 -4.625 C 16.609375 -5.175781 17.332031 -5.988281 17.84375 -7.0625 L 23.015625 -7.0625 C 22.265625 -4.769531 20.953125 -2.988281 19.078125 -1.71875 C 17.203125 -0.445312 15.003906 0.1875 12.484375 0.1875 C 10.347656 0.1875 8.414062 -0.296875 6.6875 -1.265625 C 4.96875 -2.242188 3.609375 -3.597656 2.609375 -5.328125 C 1.617188 -7.054688 1.125 -9.023438 1.125 -11.234375 Z M 1.125 -11.234375 "/></g></g></g><g fill="#000000" fill-opacity="1"><g transform="translate(296.457529, 188.754325)"><g><path d="M 26.640625 -22.40625 L 26.640625 0 L 22.140625 0 L 22.140625 -14.578125 L 16.140625 0 L 12.734375 0 L 6.703125 -14.578125 L 6.703125 0 L 2.21875 0 L 2.21875 -22.40625 L 7.3125 -22.40625 L 14.4375 -5.75 L 21.5625 -22.40625 Z M 26.640625 -22.40625 "/></g></g></g><g fill="#000000" fill-opacity="1"><g transform="translate(328.190338, 188.754325)"><g><path d="M 6.640625 -22.40625 L 6.640625 -8.53125 C 6.640625 -7.019531 7.035156 -5.859375 7.828125 -5.046875 C 8.617188 -4.242188 9.734375 -3.84375 11.171875 -3.84375 C 12.617188 -3.84375 13.738281 -4.242188 14.53125 -5.046875 C 15.320312 -5.859375 15.71875 -7.019531 15.71875 -8.53125 L 15.71875 -22.40625 L 20.25 -22.40625 L 20.25 -8.5625 C 20.25 -6.664062 19.835938 -5.054688 19.015625 -3.734375 C 18.191406 -2.421875 17.085938 -1.429688 15.703125 -0.765625 C 14.328125 -0.109375 12.796875 0.21875 11.109375 0.21875 C 9.429688 0.21875 7.914062 -0.109375 6.5625 -0.765625 C 5.207031 -1.429688 4.132812 -2.421875 3.34375 -3.734375 C 2.550781 -5.054688 2.15625 -6.664062 2.15625 -8.5625 L 2.15625 -22.40625 Z M 6.640625 -22.40625 "/></g></g></g><g fill="#000000" fill-opacity="1"><g transform="translate(153.775281, 191.586613)"><g><path d="M 12.90625 -27.890625 C 15.851562 -27.890625 18.425781 -27.304688 20.625 -26.140625 C 22.820312 -24.972656 24.519531 -23.335938 25.71875 -21.234375 C 26.925781 -19.128906 27.53125 -16.703125 27.53125 -13.953125 C 27.53125 -11.222656 26.925781 -8.796875 25.71875 -6.671875 C 24.519531 -4.554688 22.8125 -2.914062 20.59375 -1.75 C 18.382812 -0.582031 15.820312 0 12.90625 0 L 2.46875 0 L 2.46875 -27.890625 Z M 12.484375 -5.875 C 15.046875 -5.875 17.039062 -6.578125 18.46875 -7.984375 C 19.90625 -9.390625 20.625 -11.378906 20.625 -13.953125 C 20.625 -16.515625 19.90625 -18.507812 18.46875 -19.9375 C 17.039062 -21.375 15.046875 -22.09375 12.484375 -22.09375 L 9.265625 -22.09375 L 9.265625 -5.875 Z M 12.484375 -5.875 "/></g></g></g><g fill="#000000" fill-opacity="1"><g transform="translate(184.320045, 191.586613)"><g><path d="M 9.265625 -22.453125 L 9.265625 -16.8125 L 18.359375 -16.8125 L 18.359375 -11.5625 L 9.265625 -11.5625 L 9.265625 -5.4375 L 19.546875 -5.4375 L 19.546875 0 L 2.46875 0 L 2.46875 -27.890625 L 19.546875 -27.890625 L 19.546875 -22.453125 Z M 9.265625 -22.453125 "/></g></g></g><g fill="#000000" fill-opacity="1"><g transform="translate(207.47719, 191.586613)"><g><path d="M 27.421875 0 L 20.625 0 L 9.265625 -17.203125 L 9.265625 0 L 2.46875 0 L 2.46875 -27.890625 L 9.265625 -27.890625 L 20.625 -10.609375 L 20.625 -27.890625 L 27.421875 -27.890625 Z M 27.421875 0 "/></g></g></g><g fill="#000000" fill-opacity="1"><g transform="translate(239.014912, 191.586613)"><g><path d="M 22.53125 -27.890625 L 22.53125 -22.453125 L 15.140625 -22.453125 L 15.140625 0 L 8.34375 0 L 8.34375 -22.453125 L 0.953125 -22.453125 L 0.953125 -27.890625 Z M 22.53125 -27.890625 "/></g></g></g></svg>