<svg xmlns="http://www.w3.org/2000/svg" xmlns:xlink="http://www.w3.org/1999/xlink" width="700" zoomAndPan="magnify" viewBox="0 0 525 225" height="300" preserveAspectRatio="xMidYMid meet" version="1.0"><defs><g/><clipPath id="3b3fcdbc54"><path d="M 93.378906 59.148438 L 167.054688 59.148438 L 167.054688 132.824219 L 93.378906 132.824219 Z M 93.378906 59.148438 " clip-rule="nonzero"/></clipPath></defs><g clip-path="url(#3b3fcdbc54)"><path fill="#b497ed" d="M 167.359375 96.140625 C 167.359375 97.351562 167.300781 98.5625 167.183594 99.765625 C 167.0625 100.972656 166.886719 102.167969 166.652344 103.359375 C 166.414062 104.546875 166.121094 105.71875 165.769531 106.878906 C 165.417969 108.039062 165.007812 109.179688 164.546875 110.296875 C 164.082031 111.417969 163.5625 112.511719 162.992188 113.578125 C 162.421875 114.648438 161.800781 115.683594 161.128906 116.691406 C 160.453125 117.699219 159.734375 118.671875 158.964844 119.609375 C 158.195312 120.546875 157.382812 121.441406 156.527344 122.296875 C 155.671875 123.15625 154.773438 123.96875 153.835938 124.734375 C 152.898438 125.503906 151.929688 126.226562 150.921875 126.898438 C 149.914062 127.570312 148.875 128.195312 147.808594 128.765625 C 146.738281 129.335938 145.644531 129.851562 144.527344 130.316406 C 143.40625 130.78125 142.265625 131.1875 141.109375 131.539062 C 139.949219 131.890625 138.773438 132.1875 137.585938 132.421875 C 136.398438 132.660156 135.199219 132.835938 133.996094 132.953125 C 132.789062 133.074219 131.582031 133.132812 130.371094 133.132812 C 129.15625 133.132812 127.949219 133.074219 126.742188 132.953125 C 125.539062 132.835938 124.339844 132.660156 123.152344 132.421875 C 121.964844 132.1875 120.789062 131.890625 119.632812 131.539062 C 118.472656 131.1875 117.332031 130.78125 116.214844 130.316406 C 115.09375 129.851562 114 129.335938 112.933594 128.765625 C 111.863281 128.195312 110.824219 127.570312 109.816406 126.898438 C 108.8125 126.226562 107.839844 125.503906 106.902344 124.734375 C 105.964844 123.96875 105.070312 123.15625 104.210938 122.296875 C 103.355469 121.441406 102.542969 120.546875 101.773438 119.609375 C 101.007812 118.671875 100.285156 117.699219 99.613281 116.691406 C 98.9375 115.683594 98.316406 114.648438 97.746094 113.578125 C 97.175781 112.511719 96.65625 111.417969 96.195312 110.296875 C 95.730469 109.179688 95.324219 108.039062 94.972656 106.878906 C 94.621094 105.71875 94.324219 104.546875 94.089844 103.359375 C 93.851562 102.167969 93.675781 100.972656 93.554688 99.765625 C 93.4375 98.5625 93.378906 97.351562 93.378906 96.140625 C 93.378906 94.929688 93.4375 93.722656 93.554688 92.515625 C 93.675781 91.308594 93.851562 90.113281 94.089844 88.925781 C 94.324219 87.734375 94.621094 86.5625 94.972656 85.402344 C 95.324219 84.242188 95.730469 83.105469 96.195312 81.984375 C 96.65625 80.867188 97.175781 79.773438 97.746094 78.703125 C 98.316406 77.636719 98.9375 76.597656 99.613281 75.589844 C 100.285156 74.582031 101.007812 73.609375 101.773438 72.675781 C 102.542969 71.738281 103.355469 70.839844 104.210938 69.984375 C 105.070312 69.128906 105.964844 68.316406 106.902344 67.546875 C 107.839844 66.777344 108.8125 66.058594 109.816406 65.382812 C 110.824219 64.710938 111.863281 64.089844 112.933594 63.515625 C 114 62.945312 115.09375 62.429688 116.214844 61.964844 C 117.332031 61.5 118.472656 61.09375 119.632812 60.742188 C 120.789062 60.390625 121.964844 60.097656 123.152344 59.859375 C 124.339844 59.625 125.539062 59.445312 126.742188 59.328125 C 127.949219 59.207031 129.15625 59.148438 130.371094 59.148438 C 131.582031 59.148438 132.789062 59.207031 133.996094 59.328125 C 135.199219 59.445312 136.398438 59.625 137.585938 59.859375 C 138.773438 60.097656 139.949219 60.390625 141.109375 60.742188 C 142.265625 61.09375 143.40625 61.5 144.527344 61.964844 C 145.644531 62.429688 146.738281 62.945312 147.808594 63.515625 C 148.875 64.089844 149.914062 64.710938 150.921875 65.382812 C 151.929688 66.058594 152.898438 66.777344 153.835938 67.546875 C 154.773438 68.316406 155.671875 69.128906 156.527344 69.984375 C 157.382812 70.839844 158.195312 71.738281 158.964844 72.675781 C 159.734375 73.609375 160.453125 74.582031 161.128906 75.589844 C 161.800781 76.597656 162.421875 77.636719 162.992188 78.703125 C 163.5625 79.773438 164.082031 80.867188 164.546875 81.984375 C 165.007812 83.105469 165.417969 84.242188 165.769531 85.402344 C 166.121094 86.5625 166.414062 87.734375 166.652344 88.925781 C 166.886719 90.113281 167.0625 91.308594 167.183594 92.515625 C 167.300781 93.722656 167.359375 94.929688 167.359375 96.140625 Z M 167.359375 96.140625 " fill-opacity="1" fill-rule="nonzero"/></g><path fill="#ffffff" d="M 145.992188 74.632812 C 139.863281 69.621094 134.894531 76.203125 130.371094 76.203125 C 125.84375 76.203125 120.878906 69.621094 114.746094 74.632812 C 109.738281 78.726562 110.914062 90.355469 113.566406 97.867188 C 116.21875 105.382812 117.5 113.441406 118.777344 117.273438 C 120.054688 121.105469 124.277344 119.335938 124.582031 117.273438 C 125.394531 111.726562 127.621094 107.351562 130.371094 107.351562 C 133.121094 107.351562 135.34375 111.71875 136.160156 117.273438 C 136.460938 119.335938 140.6875 121.105469 141.960938 117.273438 C 143.238281 113.441406 144.519531 105.390625 147.171875 97.867188 C 149.824219 90.347656 151 78.726562 145.992188 74.632812 Z M 145.992188 74.632812 " fill-opacity="1" fill-rule="nonzero"/><path fill="#ffc250" d="M 158.714844 87.761719 C 154.410156 89 153.40625 90.003906 152.167969 94.308594 C 150.929688 90.003906 149.925781 89 145.617188 87.761719 C 149.925781 86.523438 150.929688 85.519531 152.167969 81.210938 C 153.40625 85.519531 154.414062 86.523438 158.714844 87.761719 Z M 158.714844 87.761719 " fill-opacity="1" fill-rule="nonzero"/><path fill="#ffc250" d="M 116.074219 96.824219 C 112.933594 97.730469 112.191406 98.464844 111.285156 101.617188 C 110.378906 98.472656 109.644531 97.734375 106.492188 96.824219 C 109.636719 95.921875 110.375 95.1875 111.285156 92.035156 C 112.191406 95.1875 112.925781 95.921875 116.074219 96.824219 Z M 116.074219 96.824219 " fill-opacity="1" fill-rule="nonzero"/><path fill="#ffc250" d="M 149.878906 109.953125 C 148.476562 110.355469 148.152344 110.679688 147.75 112.082031 C 147.34375 110.679688 147.019531 110.355469 145.617188 109.953125 C 147.019531 109.550781 147.34375 109.222656 147.75 107.820312 C 148.152344 109.222656 148.476562 109.550781 149.878906 109.953125 Z M 149.878906 109.953125 " fill-opacity="1" fill-rule="nonzero"/><g fill="#ffffff" fill-opacity="1"><g transform="translate(25.496375, 132.348508)"><g><path d="M 64.890625 -68 L 64.890625 0 L 48.328125 0 L 48.328125 -28 L 22.5625 -28 L 22.5625 0 L 6 0 L 6 -68 L 22.5625 -68 L 22.5625 -41.359375 L 48.328125 -41.359375 L 48.328125 -68 Z M 64.890625 -68 "/></g></g></g><g fill="#51328d" fill-opacity="1"><g transform="translate(22.499999, 129.352131)"><g><path d="M 64.890625 -68 L 64.890625 0 L 48.328125 0 L 48.328125 -28 L 22.5625 -28 L 22.5625 0 L 6 0 L 6 -68 L 22.5625 -68 L 22.5625 -41.359375 L 48.328125 -41.359375 L 48.328125 -68 Z M 64.890625 -68 "/></g></g></g><g fill="#ffffff" fill-opacity="1"><g transform="translate(100.371418, 132.348508)"><g/></g></g><g fill="#ffffff" fill-opacity="1"><g transform="translate(124.970523, 132.348508)"><g/></g></g><g fill="#ffffff" fill-opacity="1"><g transform="translate(149.569628, 132.348508)"><g/></g></g><g fill="#51328d" fill-opacity="1"><g transform="translate(97.375042, 129.352131)"><g/></g></g><g fill="#51328d" fill-opacity="1"><g transform="translate(121.974147, 129.352131)"><g/></g></g><g fill="#51328d" fill-opacity="1"><g transform="translate(146.573252, 129.352131)"><g/></g></g><g fill="#ffffff" fill-opacity="1"><g transform="translate(174.176354, 132.348508)"><g><path d="M 30.609375 0.671875 C 25.640625 0.671875 21.179688 -0.132812 17.234375 -1.75 C 13.296875 -3.363281 10.148438 -5.75 7.796875 -8.90625 C 5.441406 -12.070312 4.195312 -15.882812 4.0625 -20.34375 L 21.703125 -20.34375 C 21.953125 -17.820312 22.820312 -15.898438 24.3125 -14.578125 C 25.800781 -13.253906 27.738281 -12.59375 30.125 -12.59375 C 32.570312 -12.59375 34.503906 -13.15625 35.921875 -14.28125 C 37.347656 -15.414062 38.0625 -16.984375 38.0625 -18.984375 C 38.0625 -20.660156 37.492188 -22.046875 36.359375 -23.140625 C 35.234375 -24.242188 33.847656 -25.148438 32.203125 -25.859375 C 30.554688 -26.566406 28.21875 -27.375 25.1875 -28.28125 C 20.789062 -29.632812 17.203125 -30.988281 14.421875 -32.34375 C 11.648438 -33.707031 9.265625 -35.710938 7.265625 -38.359375 C 5.265625 -41.003906 4.265625 -44.457031 4.265625 -48.71875 C 4.265625 -55.050781 6.554688 -60.007812 11.140625 -63.59375 C 15.722656 -67.175781 21.695312 -68.96875 29.0625 -68.96875 C 36.550781 -68.96875 42.585938 -67.175781 47.171875 -63.59375 C 51.753906 -60.007812 54.207031 -55.019531 54.53125 -48.625 L 36.609375 -48.625 C 36.484375 -50.820312 35.675781 -52.546875 34.1875 -53.796875 C 32.707031 -55.054688 30.804688 -55.6875 28.484375 -55.6875 C 26.472656 -55.6875 24.851562 -55.15625 23.625 -54.09375 C 22.40625 -53.03125 21.796875 -51.5 21.796875 -49.5 C 21.796875 -47.300781 22.828125 -45.585938 24.890625 -44.359375 C 26.960938 -43.128906 30.191406 -41.804688 34.578125 -40.390625 C 38.972656 -38.898438 42.539062 -37.476562 45.28125 -36.125 C 48.019531 -34.769531 50.390625 -32.800781 52.390625 -30.21875 C 54.398438 -27.632812 55.40625 -24.3125 55.40625 -20.25 C 55.40625 -16.375 54.421875 -12.851562 52.453125 -9.6875 C 50.484375 -6.519531 47.625 -4 43.875 -2.125 C 40.132812 -0.257812 35.710938 0.671875 30.609375 0.671875 Z M 30.609375 0.671875 "/></g></g></g><g fill="#ffffff" fill-opacity="1"><g transform="translate(237.803904, 132.348508)"><g><path d="M 57.828125 -46.109375 C 57.828125 -42.171875 56.921875 -38.566406 55.109375 -35.296875 C 53.304688 -32.035156 50.53125 -29.40625 46.78125 -27.40625 C 43.039062 -25.40625 38.390625 -24.40625 32.828125 -24.40625 L 22.5625 -24.40625 L 22.5625 0 L 6 0 L 6 -68 L 32.828125 -68 C 38.253906 -68 42.835938 -67.0625 46.578125 -65.1875 C 50.328125 -63.3125 53.140625 -60.726562 55.015625 -57.4375 C 56.890625 -54.144531 57.828125 -50.367188 57.828125 -46.109375 Z M 31.578125 -37.578125 C 34.742188 -37.578125 37.097656 -38.316406 38.640625 -39.796875 C 40.191406 -41.285156 40.96875 -43.390625 40.96875 -46.109375 C 40.96875 -48.816406 40.191406 -50.910156 38.640625 -52.390625 C 37.097656 -53.878906 34.742188 -54.625 31.578125 -54.625 L 22.5625 -54.625 L 22.5625 -37.578125 Z M 31.578125 -37.578125 "/></g></g></g><g fill="#51328d" fill-opacity="1"><g transform="translate(171.179978, 129.352131)"><g><path d="M 30.609375 0.671875 C 25.640625 0.671875 21.179688 -0.132812 17.234375 -1.75 C 13.296875 -3.363281 10.148438 -5.75 7.796875 -8.90625 C 5.441406 -12.070312 4.195312 -15.882812 4.0625 -20.34375 L 21.703125 -20.34375 C 21.953125 -17.820312 22.820312 -15.898438 24.3125 -14.578125 C 25.800781 -13.253906 27.738281 -12.59375 30.125 -12.59375 C 32.570312 -12.59375 34.503906 -13.15625 35.921875 -14.28125 C 37.347656 -15.414062 38.0625 -16.984375 38.0625 -18.984375 C 38.0625 -20.660156 37.492188 -22.046875 36.359375 -23.140625 C 35.234375 -24.242188 33.847656 -25.148438 32.203125 -25.859375 C 30.554688 -26.566406 28.21875 -27.375 25.1875 -28.28125 C 20.789062 -29.632812 17.203125 -30.988281 14.421875 -32.34375 C 11.648438 -33.707031 9.265625 -35.710938 7.265625 -38.359375 C 5.265625 -41.003906 4.265625 -44.457031 4.265625 -48.71875 C 4.265625 -55.050781 6.554688 -60.007812 11.140625 -63.59375 C 15.722656 -67.175781 21.695312 -68.96875 29.0625 -68.96875 C 36.550781 -68.96875 42.585938 -67.175781 47.171875 -63.59375 C 51.753906 -60.007812 54.207031 -55.019531 54.53125 -48.625 L 36.609375 -48.625 C 36.484375 -50.820312 35.675781 -52.546875 34.1875 -53.796875 C 32.707031 -55.054688 30.804688 -55.6875 28.484375 -55.6875 C 26.472656 -55.6875 24.851562 -55.15625 23.625 -54.09375 C 22.40625 -53.03125 21.796875 -51.5 21.796875 -49.5 C 21.796875 -47.300781 22.828125 -45.585938 24.890625 -44.359375 C 26.960938 -43.128906 30.191406 -41.804688 34.578125 -40.390625 C 38.972656 -38.898438 42.539062 -37.476562 45.28125 -36.125 C 48.019531 -34.769531 50.390625 -32.800781 52.390625 -30.21875 C 54.398438 -27.632812 55.40625 -24.3125 55.40625 -20.25 C 55.40625 -16.375 54.421875 -12.851562 52.453125 -9.6875 C 50.484375 -6.519531 47.625 -4 43.875 -2.125 C 40.132812 -0.257812 35.710938 0.671875 30.609375 0.671875 Z M 30.609375 0.671875 "/></g></g></g><g fill="#51328d" fill-opacity="1"><g transform="translate(234.807528, 129.352131)"><g><path d="M 57.828125 -46.109375 C 57.828125 -42.171875 56.921875 -38.566406 55.109375 -35.296875 C 53.304688 -32.035156 50.53125 -29.40625 46.78125 -27.40625 C 43.039062 -25.40625 38.390625 -24.40625 32.828125 -24.40625 L 22.5625 -24.40625 L 22.5625 0 L 6 0 L 6 -68 L 32.828125 -68 C 38.253906 -68 42.835938 -67.0625 46.578125 -65.1875 C 50.328125 -63.3125 53.140625 -60.726562 55.015625 -57.4375 C 56.890625 -54.144531 57.828125 -50.367188 57.828125 -46.109375 Z M 31.578125 -37.578125 C 34.742188 -37.578125 37.097656 -38.316406 38.640625 -39.796875 C 40.191406 -41.285156 40.96875 -43.390625 40.96875 -46.109375 C 40.96875 -48.816406 40.191406 -50.910156 38.640625 -52.390625 C 37.097656 -53.878906 34.742188 -54.625 31.578125 -54.625 L 22.5625 -54.625 L 22.5625 -37.578125 Z M 31.578125 -37.578125 "/></g></g></g><g fill="#ffffff" fill-opacity="1"><g transform="translate(302.313533, 132.348508)"><g><path d="M 22.5625 -68 L 22.5625 0 L 6 0 L 6 -68 Z M 22.5625 -68 "/></g></g></g><g fill="#b497ed" fill-opacity="1"><g transform="translate(299.317157, 129.352131)"><g><path d="M 22.5625 -68 L 22.5625 0 L 6 0 L 6 -68 Z M 22.5625 -68 "/></g></g></g><g fill="#ffffff" fill-opacity="1"><g transform="translate(334.951782, 132.348508)"><g><path d="M 54.921875 -68 L 54.921875 -54.71875 L 36.90625 -54.71875 L 36.90625 0 L 20.34375 0 L 20.34375 -54.71875 L 2.328125 -54.71875 L 2.328125 -68 Z M 54.921875 -68 "/></g></g></g><g fill="#ffffff" fill-opacity="1"><g transform="translate(396.255052, 132.348508)"><g><path d="M 22.5625 -54.71875 L 22.5625 -40.96875 L 44.75 -40.96875 L 44.75 -28.1875 L 22.5625 -28.1875 L 22.5625 -13.265625 L 47.65625 -13.265625 L 47.65625 0 L 6 0 L 6 -68 L 47.65625 -68 L 47.65625 -54.71875 Z M 22.5625 -54.71875 "/></g></g></g><g fill="#ffffff" fill-opacity="1"><g transform="translate(452.716082, 132.348508)"><g><path d="M 22.5625 -12.78125 L 44.265625 -12.78125 L 44.265625 0 L 6 0 L 6 -68 L 22.5625 -68 Z M 22.5625 -12.78125 "/></g></g></g><g fill="#51328d" fill-opacity="1"><g transform="translate(331.955406, 129.352131)"><g><path d="M 54.921875 -68 L 54.921875 -54.71875 L 36.90625 -54.71875 L 36.90625 0 L 20.34375 0 L 20.34375 -54.71875 L 2.328125 -54.71875 L 2.328125 -68 Z M 54.921875 -68 "/></g></g></g><g fill="#51328d" fill-opacity="1"><g transform="translate(393.258676, 129.352131)"><g><path d="M 22.5625 -54.71875 L 22.5625 -40.96875 L 44.75 -40.96875 L 44.75 -28.1875 L 22.5625 -28.1875 L 22.5625 -13.265625 L 47.65625 -13.265625 L 47.65625 0 L 6 0 L 6 -68 L 47.65625 -68 L 47.65625 -54.71875 Z M 22.5625 -54.71875 "/></g></g></g><g fill="#51328d" fill-opacity="1"><g transform="translate(449.719706, 129.352131)"><g><path d="M 22.5625 -12.78125 L 44.265625 -12.78125 L 44.265625 0 L 6 0 L 6 -68 L 22.5625 -68 Z M 22.5625 -12.78125 "/></g></g></g><g fill="#ffffff" fill-opacity="1"><g transform="translate(196.903614, 177.974887)"><g><path d="M 17.875 -38.59375 C 21.9375 -38.59375 25.488281 -37.785156 28.53125 -36.171875 C 31.570312 -34.566406 33.925781 -32.304688 35.59375 -29.390625 C 37.269531 -26.472656 38.109375 -23.109375 38.109375 -19.296875 C 38.109375 -15.523438 37.269531 -12.171875 35.59375 -9.234375 C 33.925781 -6.304688 31.5625 -4.035156 28.5 -2.421875 C 25.445312 -0.804688 21.90625 0 17.875 0 L 3.40625 0 L 3.40625 -38.59375 Z M 17.265625 -8.140625 C 20.816406 -8.140625 23.582031 -9.109375 25.5625 -11.046875 C 27.539062 -12.992188 28.53125 -15.742188 28.53125 -19.296875 C 28.53125 -22.859375 27.539062 -25.628906 25.5625 -27.609375 C 23.582031 -29.585938 20.816406 -30.578125 17.265625 -30.578125 L 12.8125 -30.578125 L 12.8125 -8.140625 Z M 17.265625 -8.140625 "/></g></g></g><g fill="#ffffff" fill-opacity="1"><g transform="translate(239.164504, 177.974887)"><g><path d="M 12.8125 -31.0625 L 12.8125 -23.265625 L 25.40625 -23.265625 L 25.40625 -16 L 12.8125 -16 L 12.8125 -7.53125 L 27.046875 -7.53125 L 27.046875 0 L 3.40625 0 L 3.40625 -38.59375 L 27.046875 -38.59375 L 27.046875 -31.0625 Z M 12.8125 -31.0625 "/></g></g></g><g fill="#ffffff" fill-opacity="1"><g transform="translate(271.204088, 177.974887)"><g><path d="M 37.9375 0 L 28.53125 0 L 12.8125 -23.8125 L 12.8125 0 L 3.40625 0 L 3.40625 -38.59375 L 12.8125 -38.59375 L 28.53125 -14.6875 L 28.53125 -38.59375 L 37.9375 -38.59375 Z M 37.9375 0 "/></g></g></g><g fill="#ffffff" fill-opacity="1"><g transform="translate(314.838807, 177.974887)"><g><path d="M 31.171875 -38.59375 L 31.171875 -31.0625 L 20.953125 -31.0625 L 20.953125 0 L 11.546875 0 L 11.546875 -31.0625 L 1.3125 -31.0625 L 1.3125 -38.59375 Z M 31.171875 -38.59375 "/></g></g></g><g fill="#ffffff" fill-opacity="1"><g transform="translate(349.626053, 177.974887)"><g/></g></g><g fill="#ffffff" fill-opacity="1"><g transform="translate(363.586063, 177.974887)"><g><path d="M 1.8125 -19.359375 C 1.8125 -23.171875 2.632812 -26.566406 4.28125 -29.546875 C 5.9375 -32.535156 8.238281 -34.863281 11.1875 -36.53125 C 14.132812 -38.195312 17.476562 -39.03125 21.21875 -39.03125 C 25.800781 -39.03125 29.722656 -37.820312 32.984375 -35.40625 C 36.253906 -32.988281 38.4375 -29.691406 39.53125 -25.515625 L 29.203125 -25.515625 C 28.429688 -27.128906 27.335938 -28.359375 25.921875 -29.203125 C 24.515625 -30.046875 22.910156 -30.46875 21.109375 -30.46875 C 18.210938 -30.46875 15.863281 -29.457031 14.0625 -27.4375 C 12.269531 -25.414062 11.375 -22.722656 11.375 -19.359375 C 11.375 -15.984375 12.269531 -13.285156 14.0625 -11.265625 C 15.863281 -9.253906 18.210938 -8.25 21.109375 -8.25 C 22.910156 -8.25 24.515625 -8.671875 25.921875 -9.515625 C 27.335938 -10.359375 28.429688 -11.585938 29.203125 -13.203125 L 39.53125 -13.203125 C 38.4375 -9.015625 36.253906 -5.71875 32.984375 -3.3125 C 29.722656 -0.914062 25.800781 0.28125 21.21875 0.28125 C 17.476562 0.28125 14.132812 -0.550781 11.1875 -2.21875 C 8.238281 -3.894531 5.9375 -6.21875 4.28125 -9.1875 C 2.632812 -12.15625 1.8125 -15.546875 1.8125 -19.359375 Z M 1.8125 -19.359375 "/></g></g></g><g fill="#ffffff" fill-opacity="1"><g transform="translate(407.77032, 177.974887)"><g><path d="M 47.125 -38.59375 L 47.125 0 L 37.71875 0 L 37.71875 -23.140625 L 29.09375 0 L 21.5 0 L 12.8125 -23.203125 L 12.8125 0 L 3.40625 0 L 3.40625 -38.59375 L 14.515625 -38.59375 L 25.34375 -11.875 L 36.0625 -38.59375 Z M 47.125 -38.59375 "/></g></g></g><g fill="#ffffff" fill-opacity="1"><g transform="translate(460.527254, 177.974887)"><g><path d="M 12.640625 -38.59375 L 12.640625 -15.5 C 12.640625 -13.195312 13.207031 -11.421875 14.34375 -10.171875 C 15.488281 -8.921875 17.160156 -8.296875 19.359375 -8.296875 C 21.554688 -8.296875 23.238281 -8.921875 24.40625 -10.171875 C 25.582031 -11.421875 26.171875 -13.195312 26.171875 -15.5 L 26.171875 -38.59375 L 35.578125 -38.59375 L 35.578125 -15.5625 C 35.578125 -12.113281 34.84375 -9.195312 33.375 -6.8125 C 31.90625 -4.4375 29.929688 -2.640625 27.453125 -1.421875 C 24.984375 -0.210938 22.226562 0.390625 19.1875 0.390625 C 16.144531 0.390625 13.421875 -0.203125 11.015625 -1.390625 C 8.617188 -2.585938 6.722656 -4.382812 5.328125 -6.78125 C 3.941406 -9.1875 3.25 -12.113281 3.25 -15.5625 L 3.25 -38.59375 Z M 12.640625 -38.59375 "/></g></g></g><g fill="#51328d" fill-opacity="1"><g transform="translate(195.202196, 176.273472)"><g><path d="M 17.875 -38.59375 C 21.9375 -38.59375 25.488281 -37.785156 28.53125 -36.171875 C 31.570312 -34.566406 33.925781 -32.304688 35.59375 -29.390625 C 37.269531 -26.472656 38.109375 -23.109375 38.109375 -19.296875 C 38.109375 -15.523438 37.269531 -12.171875 35.59375 -9.234375 C 33.925781 -6.304688 31.5625 -4.035156 28.5 -2.421875 C 25.445312 -0.804688 21.90625 0 17.875 0 L 3.40625 0 L 3.40625 -38.59375 Z M 17.265625 -8.140625 C 20.816406 -8.140625 23.582031 -9.109375 25.5625 -11.046875 C 27.539062 -12.992188 28.53125 -15.742188 28.53125 -19.296875 C 28.53125 -22.859375 27.539062 -25.628906 25.5625 -27.609375 C 23.582031 -29.585938 20.816406 -30.578125 17.265625 -30.578125 L 12.8125 -30.578125 L 12.8125 -8.140625 Z M 17.265625 -8.140625 "/></g></g></g><g fill="#51328d" fill-opacity="1"><g transform="translate(237.463086, 176.273472)"><g><path d="M 12.8125 -31.0625 L 12.8125 -23.265625 L 25.40625 -23.265625 L 25.40625 -16 L 12.8125 -16 L 12.8125 -7.53125 L 27.046875 -7.53125 L 27.046875 0 L 3.40625 0 L 3.40625 -38.59375 L 27.046875 -38.59375 L 27.046875 -31.0625 Z M 12.8125 -31.0625 "/></g></g></g><g fill="#51328d" fill-opacity="1"><g transform="translate(269.50267, 176.273472)"><g><path d="M 37.9375 0 L 28.53125 0 L 12.8125 -23.8125 L 12.8125 0 L 3.40625 0 L 3.40625 -38.59375 L 12.8125 -38.59375 L 28.53125 -14.6875 L 28.53125 -38.59375 L 37.9375 -38.59375 Z M 37.9375 0 "/></g></g></g><g fill="#51328d" fill-opacity="1"><g transform="translate(313.137389, 176.273472)"><g><path d="M 31.171875 -38.59375 L 31.171875 -31.0625 L 20.953125 -31.0625 L 20.953125 0 L 11.546875 0 L 11.546875 -31.0625 L 1.3125 -31.0625 L 1.3125 -38.59375 Z M 31.171875 -38.59375 "/></g></g></g><g fill="#51328d" fill-opacity="1"><g transform="translate(347.924635, 176.273472)"><g/></g></g><g fill="#51328d" fill-opacity="1"><g transform="translate(361.884645, 176.273472)"><g><path d="M 1.8125 -19.359375 C 1.8125 -23.171875 2.632812 -26.566406 4.28125 -29.546875 C 5.9375 -32.535156 8.238281 -34.863281 11.1875 -36.53125 C 14.132812 -38.195312 17.476562 -39.03125 21.21875 -39.03125 C 25.800781 -39.03125 29.722656 -37.820312 32.984375 -35.40625 C 36.253906 -32.988281 38.4375 -29.691406 39.53125 -25.515625 L 29.203125 -25.515625 C 28.429688 -27.128906 27.335938 -28.359375 25.921875 -29.203125 C 24.515625 -30.046875 22.910156 -30.46875 21.109375 -30.46875 C 18.210938 -30.46875 15.863281 -29.457031 14.0625 -27.4375 C 12.269531 -25.414062 11.375 -22.722656 11.375 -19.359375 C 11.375 -15.984375 12.269531 -13.285156 14.0625 -11.265625 C 15.863281 -9.253906 18.210938 -8.25 21.109375 -8.25 C 22.910156 -8.25 24.515625 -8.671875 25.921875 -9.515625 C 27.335938 -10.359375 28.429688 -11.585938 29.203125 -13.203125 L 39.53125 -13.203125 C 38.4375 -9.015625 36.253906 -5.71875 32.984375 -3.3125 C 29.722656 -0.914062 25.800781 0.28125 21.21875 0.28125 C 17.476562 0.28125 14.132812 -0.550781 11.1875 -2.21875 C 8.238281 -3.894531 5.9375 -6.21875 4.28125 -9.1875 C 2.632812 -12.15625 1.8125 -15.546875 1.8125 -19.359375 Z M 1.8125 -19.359375 "/></g></g></g><g fill="#51328d" fill-opacity="1"><g transform="translate(406.068903, 176.273472)"><g><path d="M 47.125 -38.59375 L 47.125 0 L 37.71875 0 L 37.71875 -23.140625 L 29.09375 0 L 21.5 0 L 12.8125 -23.203125 L 12.8125 0 L 3.40625 0 L 3.40625 -38.59375 L 14.515625 -38.59375 L 25.34375 -11.875 L 36.0625 -38.59375 Z M 47.125 -38.59375 "/></g></g></g><g fill="#51328d" fill-opacity="1"><g transform="translate(458.825836, 176.273472)"><g><path d="M 12.640625 -38.59375 L 12.640625 -15.5 C 12.640625 -13.195312 13.207031 -11.421875 14.34375 -10.171875 C 15.488281 -8.921875 17.160156 -8.296875 19.359375 -8.296875 C 21.554688 -8.296875 23.238281 -8.921875 24.40625 -10.171875 C 25.582031 -11.421875 26.171875 -13.195312 26.171875 -15.5 L 26.171875 -38.59375 L 35.578125 -38.59375 L 35.578125 -15.5625 C 35.578125 -12.113281 34.84375 -9.195312 33.375 -6.8125 C 31.90625 -4.4375 29.929688 -2.640625 27.453125 -1.421875 C 24.984375 -0.210938 22.226562 0.390625 19.1875 0.390625 C 16.144531 0.390625 13.421875 -0.203125 11.015625 -1.390625 C 8.617188 -2.585938 6.722656 -4.382812 5.328125 -6.78125 C 3.941406 -9.1875 3.25 -12.113281 3.25 -15.5625 L 3.25 -38.59375 Z M 12.640625 -38.59375 "/></g></g></g></svg>