<svg xmlns="http://www.w3.org/2000/svg" xmlns:xlink="http://www.w3.org/1999/xlink" width="200" zoomAndPan="magnify" viewBox="0 0 150 149.999998" height="200" preserveAspectRatio="xMidYMid meet" version="1.0"><defs><clipPath id="17e6675407"><path d="M 0 39.191406 L 150 39.191406 L 150 110.441406 L 0 110.441406 Z M 0 39.191406 " clip-rule="nonzero"/></clipPath></defs><g clip-path="url(#17e6675407)"><path fill="#ebebeb" d="M 106.617188 39.203125 C 104.539062 39.191406 101.742188 39.199219 97.207031 39.21875 C 76.660156 39.316406 59.0625 39.4375 51.21875 39.539062 C 42.714844 39.648438 30.34375 39.597656 26.875 39.4375 C 25.757812 39.386719 23.355469 39.335938 21.539062 39.328125 C 18.4375 39.316406 18.117188 39.332031 16.289062 39.546875 C 15.21875 39.671875 13.558594 39.855469 12.605469 39.953125 C 10.421875 40.175781 9.308594 40.410156 7.816406 40.96875 C 6.449219 41.480469 5.839844 41.773438 5.054688 42.292969 C 3.222656 43.503906 2.320312 45.59375 1.6875 50.113281 C 1.476562 51.644531 0.96875 56.746094 0.792969 59.175781 C 0.609375 61.675781 0.425781 64.078125 0.3125 65.441406 C 0.253906 66.125 0.207031 69.335938 0.195312 73.402344 C 0.179688 77.152344 0.140625 82.355469 0.105469 84.964844 C 0.0078125 91.726562 0.015625 93.414062 0.136719 95.042969 C 0.273438 96.824219 0.613281 99.378906 0.839844 100.335938 C 0.933594 100.730469 1.125 101.601562 1.265625 102.269531 C 1.566406 103.714844 1.742188 104.203125 2.488281 105.667969 C 3.300781 107.273438 3.8125 107.796875 5.457031 108.703125 C 5.871094 108.933594 6.421875 109.238281 6.675781 109.386719 C 7.324219 109.753906 8.296875 110.050781 9.503906 110.242188 C 11.457031 110.554688 12.558594 110.609375 15.992188 110.550781 C 17.785156 110.519531 21.140625 110.539062 23.445312 110.589844 C 25.75 110.640625 28.875 110.710938 30.390625 110.742188 C 33.308594 110.804688 33.808594 110.800781 42.035156 110.65625 C 44.921875 110.609375 51.945312 110.554688 57.640625 110.535156 C 63.335938 110.519531 68.03125 110.484375 68.074219 110.457031 C 68.121094 110.429688 73.386719 110.367188 79.78125 110.320312 C 86.175781 110.273438 95.753906 110.195312 101.0625 110.148438 C 106.371094 110.105469 114.8125 110.03125 119.820312 109.988281 C 124.828125 109.949219 129.496094 109.875 130.195312 109.832031 C 130.894531 109.785156 132.09375 109.746094 132.863281 109.738281 C 133.691406 109.734375 134.535156 109.679688 134.9375 109.605469 C 135.308594 109.535156 135.996094 109.417969 136.460938 109.34375 C 136.929688 109.269531 137.898438 109.078125 138.617188 108.921875 C 139.800781 108.660156 140.035156 108.578125 141.113281 108.03125 C 143.320312 106.910156 143.886719 106.542969 145.179688 105.378906 C 146.089844 104.558594 146.523438 103.984375 147.03125 102.941406 C 148.785156 99.34375 149.40625 96.425781 149.203125 92.753906 C 149.15625 91.917969 149.105469 91.160156 149.082031 91.070312 C 149.046875 90.910156 149.089844 90.335938 149.347656 87.335938 C 149.441406 86.230469 149.492188 84.558594 149.511719 82 C 149.539062 77.304688 149.691406 70.777344 149.84375 67.683594 C 149.988281 64.773438 149.863281 62.417969 149.332031 57.976562 C 149.003906 55.207031 148.238281 51.820312 147.300781 48.976562 C 146.742188 47.28125 146.453125 46.640625 145.65625 45.289062 C 143.691406 41.96875 141.269531 40.449219 137.097656 39.917969 C 134.949219 39.644531 133.816406 39.609375 124.773438 39.53125 C 119.265625 39.484375 113.988281 39.398438 111.691406 39.3125 C 110.046875 39.25 108.691406 39.21875 106.617188 39.203125 Z M 106.617188 39.203125 " fill-opacity="1" fill-rule="nonzero"/></g></svg>