<svg xmlns="http://www.w3.org/2000/svg" xmlns:xlink="http://www.w3.org/1999/xlink" width="200" zoomAndPan="magnify" viewBox="0 0 150 149.999998" height="200" preserveAspectRatio="xMidYMid meet" version="1.0"><defs><clipPath id="74314a57ec"><path d="M 12.714844 18.164062 L 137.214844 18.164062 L 137.214844 132.164062 L 12.714844 132.164062 Z M 12.714844 18.164062 " clip-rule="nonzero"/></clipPath></defs><g clip-path="url(#74314a57ec)"><path fill="#d9d9d9" d="M 106.101562 19.71875 C 106.464844 19.671875 107.007812 19.171875 107.554688 19.445312 C 107.644531 19.445312 107.828125 19.921875 107.941406 19.96875 C 108.441406 20.175781 108.214844 19.558594 108.464844 19.832031 C 108.578125 19.902344 108.667969 19.992188 108.734375 20.105469 C 108.917969 20.539062 109.054688 20.972656 109.121094 21.425781 L 109.78125 21.425781 C 109.78125 20.902344 109.78125 20.699219 110.167969 20.515625 C 110.484375 20.8125 110.824219 21.015625 111.234375 21.175781 C 110.960938 21.976562 111.234375 22.773438 112.300781 22.773438 C 112.710938 22.132812 113.390625 21.746094 114.140625 21.699219 C 114.4375 22.089844 114.890625 22.113281 115.59375 22.089844 C 115.730469 22.292969 115.820312 22.523438 115.867188 22.75 C 116.410156 22.75 116.957031 22.660156 117.480469 22.5 C 117.546875 22.316406 117.636719 22.132812 117.75 21.976562 C 118.296875 22.269531 119.273438 21.472656 119.863281 21.3125 C 120.703125 21.085938 121.179688 21.519531 121.839844 21.585938 C 121.953125 21.90625 122.089844 22.203125 122.226562 22.5 C 122.542969 22.5 122.863281 22.589844 123.132812 22.773438 C 123.589844 21.90625 125.429688 19.261719 126.5625 19.71875 C 126.902344 19.902344 126.65625 19.671875 126.835938 19.992188 C 127.175781 20.46875 127.019531 20.949219 126.972656 21.585938 L 128.152344 21.722656 C 128.222656 22.203125 128.335938 22.15625 128.425781 22.636719 C 128.609375 22.613281 128.789062 22.566406 128.949219 22.5 C 129.039062 22.726562 128.949219 22.636719 129.085938 22.773438 C 129.015625 23.207031 129.015625 23.660156 129.085938 24.09375 C 128.855469 24.253906 128.585938 24.34375 128.289062 24.367188 C 128.335938 25.074219 128.152344 25.757812 127.765625 26.351562 C 128.789062 26.371094 129.8125 26.507812 130.808594 26.738281 C 130.945312 26.941406 131.039062 27.171875 131.082031 27.398438 C 130.808594 27.625 130.628906 27.96875 130.5625 28.308594 C 131.058594 28.582031 131.46875 28.835938 131.628906 29.496094 C 131.332031 29.746094 131.175781 30.109375 130.832031 30.292969 C 130.695312 30.203125 130.695312 30.203125 130.445312 30.15625 C 130.445312 30.703125 130.355469 31.066406 130.832031 31.339844 C 130.46875 32.230469 130.425781 33.210938 130.695312 34.097656 L 130.378906 35.695312 L 129.992188 35.695312 C 129.71875 36.378906 129.128906 36.878906 128.402344 37.015625 C 128.449219 38.042969 128.5625 38.609375 128.539062 39.523438 L 129.199219 39.523438 C 129.539062 39.910156 129.765625 39.75 129.855469 40.433594 C 129.71875 40.546875 129.855469 40.433594 129.71875 40.570312 L 129.335938 40.570312 C 129.46875 41.1875 129.515625 41.800781 129.46875 42.417969 L 129.855469 42.417969 C 129.96875 42.828125 130.402344 43.28125 130.242188 43.488281 C 130.082031 43.691406 129.652344 43.761719 129.335938 43.875 C 129.265625 44.421875 129.128906 44.945312 128.949219 45.46875 C 129.175781 45.675781 129.3125 45.949219 129.335938 46.269531 C 129.5625 46.269531 129.789062 46.3125 129.992188 46.40625 C 129.46875 47.382812 128.789062 47.132812 128.8125 48.773438 C 129.0625 49.027344 129.199219 49.34375 129.199219 49.6875 L 129.855469 49.6875 C 129.605469 51.464844 127.925781 50.667969 126.699219 50.871094 L 126.699219 51.007812 C 126.8125 51.144531 126.746094 51.007812 126.835938 51.28125 C 127.019531 51.304688 127.199219 51.351562 127.359375 51.417969 C 127.175781 51.78125 127.085938 52.191406 127.085938 52.601562 C 127.269531 52.945312 127.085938 52.738281 127.472656 52.875 C 127.675781 52.601562 127.949219 52.421875 128.265625 52.351562 L 128.265625 52.625 C 128.492188 52.875 128.492188 52.96875 128.539062 53.425781 C 128.992188 53.445312 129.425781 53.539062 129.855469 53.699219 C 129.902344 54.222656 129.902344 54.746094 129.855469 55.292969 L 130.378906 55.292969 C 130.378906 55.839844 130.152344 56 130.242188 56.203125 C 130.355469 56.613281 130.492188 56.363281 130.628906 56.589844 C 131.039062 57.207031 130.492188 57.367188 131.539062 57.390625 C 131.789062 56.933594 132.21875 56.589844 132.71875 56.476562 C 132.695312 56.089844 132.695312 55.679688 132.71875 55.292969 C 133.195312 55.453125 133.671875 55.542969 134.171875 55.566406 C 134.21875 55.839844 134.171875 55.816406 134.308594 55.953125 C 134.625 56.5 135.082031 56.957031 135.625 57.273438 C 135.511719 57.503906 135.511719 57.433594 135.625 57.664062 C 136.078125 58.003906 136.554688 58.324219 137.078125 58.574219 C 136.785156 59.484375 137.214844 60.421875 137.214844 61.21875 L 136.691406 61.21875 C 136.511719 61.71875 136.171875 61.855469 136.035156 62.402344 C 136.488281 62.699219 136.035156 64.25 135.238281 64.386719 C 134.921875 63.953125 134.445312 63.679688 133.921875 63.589844 C 133.855469 63.882812 133.71875 64.15625 133.535156 64.386719 C 133.398438 64.292969 133.398438 64.292969 133.148438 64.25 C 132.921875 64.773438 132.628906 64.636719 132.492188 65.320312 C 133.011719 65.796875 132.492188 66.050781 132.355469 66.777344 L 133.148438 66.914062 C 133.308594 69.375 135.421875 69.375 135.261719 72.339844 C 134.761719 72.566406 134.535156 72.679688 134.46875 73.410156 C 134.625 73.886719 134.761719 74.367188 134.851562 74.867188 C 134.71875 75.164062 134.761719 75.234375 134.46875 75.394531 C 134.332031 75.300781 134.351562 75.300781 134.082031 75.257812 L 134.082031 75.644531 C 133.742188 75.824219 133.605469 76.097656 133.285156 76.304688 C 133.445312 76.554688 133.535156 76.53125 133.671875 76.828125 C 133.355469 77.214844 133.332031 78.148438 132.878906 78.421875 C 132.628906 78.539062 132.355469 78.582031 132.082031 78.558594 L 132.082031 78.949219 L 131.558594 78.949219 C 131.492188 79.152344 131.445312 79.382812 131.421875 79.609375 C 131.515625 79.746094 131.515625 79.722656 131.558594 79.996094 L 131.945312 79.996094 C 132.105469 80.476562 132.265625 80.429688 132.332031 81.066406 C 131.945312 81.296875 131.539062 81.433594 131.421875 81.980469 C 131.855469 82.320312 131.789062 82.683594 131.808594 83.164062 C 132.921875 83.597656 133.695312 83.503906 133.648438 85.148438 C 133.355469 85.351562 133.128906 85.625 132.992188 85.945312 C 133.308594 86.308594 133.492188 86.789062 133.511719 87.265625 C 133.285156 87.402344 133.148438 87.652344 133.128906 87.925781 C 133.355469 88.109375 133.511719 88.335938 133.648438 88.585938 C 134.445312 88.585938 134.558594 88.65625 134.964844 88.976562 C 134.714844 89.386719 134.535156 89.839844 134.445312 90.296875 C 134.921875 90.59375 135.101562 90.796875 135.101562 91.617188 C 135.375 92.027344 135.101562 92.53125 134.964844 92.941406 C 134.332031 93.121094 134.058594 92.984375 134.058594 93.851562 C 134.785156 93.988281 135.238281 94.238281 135.238281 95.175781 C 135.398438 95.378906 135.328125 95.242188 135.238281 95.449219 C 135.082031 95.878906 135.125 95.789062 134.582031 95.835938 C 134.808594 96.632812 134.761719 97.476562 134.488281 98.25 C 133.855469 98.25 133.988281 98.546875 133.171875 98.636719 C 133.171875 99.527344 132.492188 100.277344 131.582031 100.371094 C 131.71875 102.214844 130.71875 102.695312 130.265625 104.472656 L 130.402344 105.269531 C 130.332031 105.453125 129.8125 105.75 129.742188 105.929688 L 130.015625 107.914062 C 129.878906 108.664062 129.699219 109.417969 129.492188 110.167969 C 128.972656 110.167969 129.015625 110.261719 128.425781 110.441406 C 128.425781 110.832031 128.5625 110.714844 128.425781 110.96875 C 128.289062 111.058594 128.3125 111.058594 128.039062 111.105469 C 128.109375 110.558594 128.199219 110.671875 128.3125 110.191406 C 128.109375 110.125 127.882812 110.078125 127.652344 110.054688 L 127.652344 110.328125 C 127.359375 110.808594 127.789062 111.125 127.515625 111.652344 L 126.996094 111.925781 L 126.859375 113.246094 C 126.175781 113.15625 126.175781 112.859375 125.542969 112.722656 C 125.542969 113.3125 125.472656 113.882812 125.269531 114.453125 L 125.132812 114.453125 L 125.132812 114.316406 C 125.066406 114.019531 125.019531 113.703125 124.996094 113.40625 L 124.609375 113.40625 C 124.40625 113.496094 123.089844 113.15625 122.25 113.132812 C 122.113281 113.65625 122.089844 113.746094 121.453125 113.792969 C 121.363281 113.519531 121.179688 113.292969 120.929688 113.132812 L 120.929688 113.269531 L 120.796875 113.269531 C 120.886719 113.722656 121.089844 113.929688 120.660156 114.179688 C 120.5 114.292969 120.433594 114.269531 120.136719 114.316406 L 120.136719 114.042969 C 119.953125 113.703125 120.136719 113.472656 120.273438 112.972656 C 119.5 113.0625 119.457031 113.335938 118.546875 113.359375 C 118.273438 112.925781 117.84375 112.609375 117.367188 112.449219 C 117.367188 112.996094 117.367188 112.925781 116.980469 113.109375 C 116.820312 113.222656 116.503906 113.109375 116.457031 113.109375 L 115.796875 114.019531 C 115.253906 114.019531 115.390625 114.066406 114.890625 114.292969 L 114.890625 114.15625 C 114.574219 113.722656 114.414062 112.722656 113.980469 112.425781 L 113.980469 112.5625 C 113.867188 112.765625 113.824219 112.996094 113.84375 113.222656 C 114.074219 113.472656 114.074219 113.566406 114.117188 114.019531 L 113.980469 114.019531 L 113.980469 114.15625 C 112.824219 113.585938 111.914062 114.796875 110.824219 114.816406 L 110.824219 114.773438 C 110.914062 114.636719 110.914062 114.636719 110.960938 114.386719 C 110.507812 114.316406 110.074219 114.179688 109.644531 113.996094 C 109.507812 114.25 109.328125 114.453125 109.121094 114.660156 C 108.917969 114.40625 109.007812 114.476562 108.597656 114.386719 C 108.578125 115 108.578125 115.617188 108.597656 116.230469 C 108.007812 116.230469 106.917969 115.933594 106.761719 115.957031 C 106.601562 115.980469 106.488281 116.4375 106.101562 116.34375 C 105.714844 116.277344 105.261719 115.683594 104.648438 115.546875 L 104.648438 115.933594 C 104.238281 116.253906 103.714844 116.390625 103.195312 116.324219 C 103.261719 116.6875 103.351562 117.027344 103.46875 117.394531 L 103.082031 117.53125 C 102.808594 117.53125 102.648438 117.597656 102.558594 117.007812 C 102.671875 116.753906 102.558594 116.753906 102.558594 116.34375 L 101.921875 116.34375 C 101.808594 117.300781 101.648438 117.144531 101.921875 118.078125 C 101.015625 118.078125 100.878906 118.648438 100.46875 119.148438 L 100.332031 119.148438 L 100.332031 119.011719 C 99.71875 118.785156 99.71875 118.238281 99.152344 117.941406 C 98.378906 118.328125 97.925781 117.394531 97.039062 117.804688 C 96.789062 117.28125 96.5625 117.417969 96.515625 116.617188 C 95.949219 116.734375 95.335938 116.6875 94.792969 116.480469 L 94.792969 116.09375 C 95.335938 116.070312 95.859375 115.980469 96.382812 115.820312 C 96.472656 115.660156 96.472656 115.59375 96.515625 115.296875 L 96.132812 115.296875 C 96.109375 115 96.109375 114.679688 96.132812 114.386719 C 95.925781 114.316406 95.699219 114.269531 95.472656 114.25 C 95.382812 114.179688 95.472656 114.066406 95.199219 114.113281 L 95.199219 114.25 C 94.90625 114.703125 95.0625 115.070312 94.542969 115.320312 C 94.335938 115 94.246094 115.023438 94.15625 114.523438 C 94.496094 114.203125 94.335938 114.066406 94.292969 113.449219 C 93.859375 113.269531 93.429688 113.175781 92.972656 113.175781 L 92.972656 113.449219 C 93.222656 113.722656 93.246094 113.953125 93.246094 114.523438 C 92.839844 114.976562 92.382812 115.363281 91.863281 115.683594 C 91.953125 115.957031 91.769531 116.09375 91.863281 116.34375 L 92.246094 116.480469 C 92.453125 116.890625 92.542969 117.347656 92.519531 117.804688 C 92.089844 118.101562 92.089844 118.28125 91.339844 118.328125 C 91.226562 118.191406 90.523438 117.757812 90.542969 117.53125 L 90.542969 117.804688 C 90.113281 118.144531 89.773438 118.625 89.363281 118.988281 C 88.589844 118.851562 88.296875 118.648438 88.296875 117.667969 L 89.363281 116.871094 C 90.136719 116.871094 90.160156 117.074219 90.679688 117.257812 C 91.113281 116.597656 91.703125 116.617188 91.75 115.523438 C 91.316406 115.296875 91.363281 114.933594 91.226562 114.453125 C 91.019531 114.589844 90.839844 114.933594 90.703125 114.726562 C 90.386719 114.429688 89.796875 112.609375 89.386719 112.355469 C 89.066406 112.835938 88.703125 112.996094 88.589844 113.679688 C 88.863281 114.113281 88.976562 114.636719 88.863281 115.136719 C 88.546875 116.390625 87.386719 116.777344 86.367188 116.984375 C 85.753906 116.4375 85.09375 115.957031 84.390625 115.523438 C 84.457031 115.089844 84.457031 114.636719 84.390625 114.203125 C 83.777344 114.089844 83.753906 113.882812 83.074219 113.816406 L 83.074219 114.089844 C 83.414062 114.386719 83.480469 114.75 83.457031 115.410156 C 83.730469 115.457031 83.707031 115.410156 83.84375 115.546875 C 83.980469 115.683594 83.9375 115.777344 83.980469 116.070312 C 83.820312 116.140625 83.640625 116.1875 83.457031 116.207031 C 83.277344 116.003906 83.367188 116.070312 83.074219 115.933594 C 82.960938 116.574219 82.574219 116.847656 81.890625 116.847656 C 81.414062 117.144531 80.4375 116.550781 80.164062 116.1875 C 80.03125 115.957031 80.03125 115.34375 79.894531 115.113281 C 79.757812 115.207031 79.757812 115.207031 79.507812 115.25 C 79.644531 114.453125 80.1875 114.113281 80.414062 113.40625 C 80.144531 113.246094 80.164062 113.3125 80.03125 113.019531 C 80.257812 112.765625 80.28125 112.925781 80.164062 112.628906 C 80.050781 112.335938 80.210938 112.539062 79.894531 112.355469 C 79.054688 112.242188 78.210938 112.242188 77.394531 112.355469 C 77.28125 112.746094 77.351562 112.722656 77.007812 112.882812 L 77.007812 112.746094 C 76.53125 112.425781 76.714844 111.992188 76.101562 111.832031 C 76.101562 112.175781 76.28125 112.128906 75.828125 112.355469 L 75.828125 112.21875 C 75.738281 112.105469 75.644531 111.808594 75.554688 111.695312 C 75.011719 112.015625 74.761719 111.398438 74.488281 111.035156 C 73.988281 111.195312 73.601562 111.605469 73.421875 112.105469 C 73.195312 112.015625 73.285156 112.105469 73.148438 111.96875 C 72.808594 111.789062 72.945312 111.925781 72.875 111.445312 C 73.148438 111.285156 73.125 111.355469 73.261719 111.058594 L 72.875 110.921875 C 72.46875 110.671875 72.011719 110.558594 71.558594 110.535156 C 71.285156 111.058594 70.898438 111.535156 70.648438 111.992188 L 70.515625 112.652344 C 70.378906 112.789062 69.878906 112.8125 69.71875 112.925781 C 69.808594 113.0625 69.808594 113.0625 69.855469 113.3125 C 69.445312 113.3125 69.671875 113.085938 69.46875 113.449219 C 70.242188 113.566406 70.492188 114.089844 70.535156 114.910156 C 70.285156 115.046875 70.082031 115.226562 69.878906 115.433594 C 69.308594 115.433594 68.96875 115.070312 68.5625 115.160156 C 68.175781 115.25 67.96875 115.796875 67.242188 115.433594 C 66.992188 115.296875 67.0625 114.796875 66.855469 114.636719 L 66.199219 114.636719 C 66.015625 114.542969 65.585938 113.792969 65.132812 113.976562 L 64.859375 114.363281 C 64.609375 114.5 64.15625 114.363281 64.0625 114.363281 C 63.429688 114.703125 63.996094 115.089844 62.746094 115.160156 L 62.746094 115.546875 C 63.085938 115.546875 62.90625 115.5 63.269531 115.683594 L 63.132812 116.070312 L 62.746094 116.070312 C 62.542969 115.546875 62.316406 115.160156 62.089844 114.613281 L 61.703125 114.613281 C 61.703125 115.207031 61.703125 115.34375 61.316406 115.523438 C 61.042969 115.546875 60.792969 115.546875 60.519531 115.523438 C 60.476562 115.25 60.519531 115.273438 60.382812 115.136719 C 60.25 115 60.25 115.046875 60 115 C 59.839844 115.640625 59.613281 115.796875 58.816406 115.796875 C 58.679688 115.617188 58.5 115.480469 58.296875 115.410156 L 58.296875 115.683594 C 58.386719 115.84375 58.386719 115.914062 58.429688 116.207031 C 58.136719 116.480469 57.773438 116.617188 57.363281 116.597656 C 57.226562 116.503906 57.363281 116.597656 57.089844 116.460938 L 57.089844 116.1875 C 56.976562 115.933594 56.933594 115.660156 56.957031 115.386719 C 56.320312 115.363281 55.683594 115.183594 55.117188 114.863281 C 55.046875 114.703125 55.003906 114.523438 54.980469 114.339844 C 55.253906 114.203125 55.433594 113.976562 55.5 113.679688 C 55.117188 113.429688 55.117188 113.292969 55.117188 112.609375 L 55.5 112.472656 C 55.707031 112.355469 55.933594 112.3125 56.160156 112.335938 C 56.386719 112.746094 56.773438 113.085938 57.226562 113.246094 C 57.453125 112.472656 58.023438 112.515625 58.136719 111.652344 C 57.523438 111.789062 57.136719 112.199219 56.683594 111.925781 C 56.570312 111.765625 56.59375 111.695312 56.546875 111.398438 L 56.160156 111.398438 L 56.160156 111.011719 L 55.5 111.011719 L 55.5 111.535156 C 55.183594 111.742188 54.820312 111.832031 54.433594 111.808594 C 54.296875 111.445312 54.070312 111.125 53.777344 110.898438 C 53.617188 111.011719 53.546875 110.988281 53.253906 111.035156 L 53.253906 110.375 C 52.550781 110.191406 51.890625 109.644531 51.277344 109.988281 C 50.890625 110.238281 50.617188 110.601562 50.484375 111.058594 C 50.710938 111.195312 50.484375 111.558594 50.347656 112.128906 L 49.824219 112.128906 C 49.824219 112.902344 49.621094 112.972656 49.550781 113.722656 L 50.347656 113.722656 C 50.527344 113.246094 50.800781 113.222656 51.003906 112.8125 C 50.890625 112.652344 50.914062 112.585938 50.867188 112.289062 C 50.984375 112.21875 51.074219 112.128906 51.140625 112.015625 C 51.367188 112.105469 51.277344 112.015625 51.414062 112.152344 C 52.074219 112.515625 51.414062 112.492188 51.6875 113.0625 C 51.753906 113.199219 52.117188 113.40625 52.207031 113.585938 C 53.027344 113.085938 53.027344 112.289062 54.320312 112.265625 C 54.457031 112.5625 54.640625 112.8125 54.84375 113.0625 C 54.753906 113.292969 54.84375 113.199219 54.707031 113.335938 C 54.523438 113.90625 54.296875 114.019531 53.527344 113.996094 C 53.050781 113.679688 53.277344 113.882812 52.867188 114.132812 C 52.617188 114.132812 52.527344 113.929688 52.207031 113.859375 C 52.140625 114.453125 52.027344 114.613281 51.550781 114.773438 C 50.914062 115.183594 50.800781 114.523438 50.484375 114.25 L 48.507812 114.386719 C 48.03125 114.269531 48.007812 113.976562 47.441406 114.113281 C 47.441406 113.335938 47.167969 113.3125 47.054688 112.652344 C 46.214844 112.652344 46.328125 112.21875 45.328125 112.128906 C 45.257812 112.242188 45.167969 112.335938 45.054688 112.402344 C 45.257812 112.835938 45.488281 112.925781 45.578125 113.472656 C 45.371094 113.609375 45.464844 113.609375 45.191406 113.746094 C 44.894531 113.859375 44.667969 113.519531 44.28125 113.359375 C 44.28125 114.386719 43.851562 114.132812 43.761719 115.089844 C 44.054688 115.570312 44.214844 116.117188 44.28125 116.6875 C 44.03125 116.777344 43.761719 116.824219 43.488281 116.824219 C 43.285156 116.710938 43.054688 116.617188 42.828125 116.550781 L 42.828125 116.164062 L 43.351562 116.164062 L 43.214844 115.503906 L 42.535156 115.503906 C 42.714844 115.957031 42.738281 116.09375 42.261719 116.300781 C 41.964844 116.300781 41.785156 116.300781 41.738281 115.640625 C 41.945312 115.457031 41.875 115.546875 42.011719 115.25 C 41.238281 114.976562 41.421875 113.40625 40.035156 113.269531 C 39.035156 114.910156 37.71875 115.25 36.21875 116.324219 C 35.8125 115.867188 34.539062 115.84375 34.109375 115.796875 C 34.109375 115.023438 33.835938 114.976562 33.585938 114.476562 C 32.722656 114.476562 31.882812 114.292969 31.089844 113.953125 C 30.476562 113.609375 31.15625 113.382812 29.90625 113.292969 L 29.90625 112.902344 C 29.453125 112.902344 29.179688 112.585938 28.839844 112.628906 C 28.636719 112.765625 28.40625 112.859375 28.179688 112.902344 C 28.089844 112.675781 28.179688 112.765625 28.042969 112.628906 C 28.203125 112.199219 28.316406 112.335938 28.429688 111.832031 C 28.066406 111.605469 28.089844 111.492188 27.523438 111.445312 C 27.316406 111.742188 27.339844 111.765625 26.863281 111.832031 C 26.726562 111.628906 26.636719 111.398438 26.589844 111.171875 C 26.839844 110.96875 26.773438 111.058594 26.863281 110.648438 C 26.070312 110.167969 26.546875 109.578125 25.136719 109.578125 L 25.136719 110.488281 C 24.75 110.875 24.207031 111.011719 23.683594 110.875 C 23.523438 110.488281 23.433594 110.101562 23.410156 109.691406 C 23.660156 109.484375 23.59375 109.578125 23.683594 109.167969 L 23.160156 109.167969 C 23.070312 108.914062 23.027344 108.640625 23.027344 108.367188 C 23.367188 108.1875 23.320312 108.300781 23.410156 107.84375 L 23.027344 107.84375 C 23.117188 107.433594 23.230469 107.527344 22.753906 107.320312 C 22.503906 107.207031 22.230469 107.160156 21.957031 107.183594 C 21.84375 107.570312 21.914062 107.546875 21.570312 107.707031 L 21.570312 107.480469 C 21.277344 107.296875 21.074219 107 21.050781 106.660156 C 21.207031 106.363281 21.09375 106.296875 21.050781 105.863281 C 20.367188 105.929688 19.710938 105.839844 19.074219 105.589844 C 19.027344 104.789062 18.777344 104.949219 18.6875 104.265625 C 19.484375 103.925781 19.050781 102.738281 18.960938 102.148438 C 19.550781 101.851562 19.574219 101.371094 20.414062 101.234375 L 20.414062 100.847656 C 19.527344 100.621094 18.734375 100.121094 18.164062 99.390625 L 18.164062 99.117188 C 18.507812 98.957031 19.550781 98.636719 19.753906 98.320312 C 19.484375 98.160156 19.371094 97.816406 19.484375 97.519531 C 19.550781 97.316406 20.074219 96.699219 20.140625 96.449219 C 20.253906 96.039062 19.914062 96.0625 19.867188 95.925781 C 19.824219 95.789062 19.867188 94.195312 19.867188 94.195312 C 20.050781 94.011719 20.277344 93.875 20.527344 93.804688 L 20.527344 93.417969 C 20.253906 93.375 20.277344 93.417969 20.140625 93.28125 C 20.097656 92.847656 20.097656 92.394531 20.140625 91.960938 C 18.640625 91.253906 18.757812 89.636719 18.6875 87.996094 C 18.371094 87.996094 18.074219 88.039062 17.78125 88.132812 C 17.644531 87.082031 17.054688 87.21875 16.597656 86.535156 C 17.167969 86.285156 17.371094 86.195312 17.394531 85.351562 C 16.824219 84.851562 16.78125 83.734375 16.324219 83.230469 C 16.078125 82.9375 15.757812 83.09375 15.53125 82.707031 C 15.441406 82.570312 15.441406 82.570312 15.394531 82.320312 L 14.441406 82.320312 L 14.441406 81.773438 C 15.234375 81.136719 15.847656 80.316406 16.28125 79.402344 C 15.984375 79.335938 15.757812 79.152344 15.621094 78.878906 C 16.097656 78.628906 16.417969 78.128906 16.394531 77.582031 C 15.53125 76.441406 16.394531 74.664062 15.214844 73.75 C 15.078125 73.660156 15.078125 73.660156 14.828125 73.613281 C 14.828125 73.046875 14.78125 72.589844 14.691406 71.882812 L 14.304688 71.882812 C 14.144531 71.199219 13.828125 71.085938 13.644531 70.425781 C 14.167969 70.152344 14.214844 69.945312 14.167969 69.101562 C 13.738281 68.714844 13.28125 68.304688 12.851562 67.941406 L 12.714844 66.574219 C 13.011719 66.4375 13.078125 66.480469 13.238281 66.1875 C 13.578125 65.34375 13.757812 64.453125 13.757812 63.542969 L 14.28125 63.542969 C 14.621094 62.996094 15.214844 62.628906 15.871094 62.628906 L 15.871094 62.21875 C 16.394531 62.015625 16.78125 61.582031 16.9375 61.035156 L 17.710938 61.035156 L 17.710938 60.511719 C 17.324219 60.398438 17.210938 60.328125 17.050781 59.988281 C 17.734375 59.371094 18.640625 59.03125 19.550781 59.074219 L 19.550781 58.6875 L 20.210938 58.550781 C 20.277344 58.390625 20.324219 58.210938 20.347656 58.027344 L 20.050781 57.867188 C 19.960938 57.570312 20.460938 57.480469 20.324219 56.957031 C 20.230469 56.589844 19.824219 56.339844 19.9375 56.042969 C 20.230469 55.75 20.390625 55.65625 21.003906 55.65625 C 20.890625 54.882812 20.800781 54.972656 21.003906 54.335938 C 20.84375 54.246094 20.6875 54.199219 20.503906 54.152344 C 20.253906 54.382812 20.414062 54.402344 20.117188 54.289062 C 19.640625 53.605469 20.460938 53.492188 20.117188 52.695312 C 20.074219 52.558594 19.550781 52.511719 19.734375 51.898438 C 19.980469 51.417969 20.1875 50.941406 20.390625 50.460938 C 20.097656 50.300781 19.980469 49.960938 19.734375 49.800781 C 18.9375 49.277344 18.640625 49.753906 18.664062 48.34375 C 18.640625 48.070312 18.640625 47.816406 18.664062 47.542969 C 17.9375 47.339844 17.417969 46.722656 17.324219 45.996094 C 16.917969 45.996094 16.960938 46.085938 16.804688 45.996094 C 16.667969 45.789062 16.574219 45.5625 16.53125 45.332031 C 16.917969 45.152344 17.234375 44.035156 17.324219 43.601562 L 16.804688 43.601562 C 16.667969 43.304688 16.507812 43.03125 16.28125 42.804688 C 16.234375 41.984375 16.597656 39.546875 17.300781 39.386719 C 17.484375 39.726562 17.300781 39.523438 17.6875 39.660156 C 17.894531 39.273438 18.300781 39 18.757812 39 L 18.621094 38.335938 C 19.027344 38.222656 19.300781 37.835938 19.277344 37.425781 C 19.121094 37.039062 19.074219 36.605469 19.140625 36.195312 C 18.847656 36.195312 18.777344 36.195312 18.621094 36.058594 C 18.234375 35.851562 17.871094 35.578125 17.550781 35.261719 C 17.894531 35.078125 17.6875 35.261719 17.824219 34.875 C 17.621094 34.691406 17.6875 34.78125 17.550781 34.484375 C 17.984375 34.28125 18.027344 34.304688 18.074219 33.6875 L 17.574219 33.6875 C 17.621094 32.84375 17.6875 32 17.847656 31.179688 C 17.644531 31.113281 17.417969 31.066406 17.1875 31.042969 L 17.1875 30.246094 C 17.644531 29.972656 17.960938 29.5625 18.097656 29.0625 C 18.640625 29.128906 18.527344 29.222656 19.003906 29.335938 C 19.253906 28.835938 19.4375 28.308594 19.527344 27.742188 L 20.027344 27.742188 C 20.097656 27.535156 20.140625 27.308594 20.164062 27.078125 C 19.9375 26.78125 20.027344 26.441406 20.027344 25.871094 C 20.347656 25.734375 20.277344 25.734375 20.414062 25.484375 C 21.1875 25.484375 21.324219 25.164062 21.730469 25.097656 C 22.140625 25.003906 21.980469 25.507812 22.527344 25.371094 C 23.34375 25.140625 23.980469 24.550781 24.273438 23.753906 C 24.183594 23.617188 24.230469 23.753906 24.136719 23.480469 L 24.796875 23.480469 C 25.023438 23.753906 25.363281 23.890625 25.707031 23.867188 C 26.046875 23.480469 26.523438 23.183594 27.023438 23.070312 C 27.476562 23.707031 28.136719 24.710938 29 24.914062 C 29.382812 25.003906 29.679688 24.730469 30.179688 24.914062 C 30.269531 24.914062 30.609375 25.300781 30.703125 25.300781 C 30.996094 25.300781 31.269531 25.074219 31.769531 25.027344 C 31.816406 24.753906 31.769531 24.777344 31.90625 24.640625 C 32.042969 24.503906 31.90625 24.59375 32.179688 24.503906 C 33.085938 24.046875 34.3125 25.027344 35.222656 24.367188 C 35.402344 24.164062 35.539062 23.957031 35.652344 23.707031 L 37.015625 24.070312 C 37.355469 23.5 37.945312 23.113281 38.605469 23 C 39.148438 23.617188 39.96875 22.933594 40.851562 23.136719 C 40.851562 23.136719 42.351562 23.617188 42.441406 23.660156 L 42.714844 24.183594 C 43.417969 24.457031 45.257812 22.339844 45.214844 21.269531 L 45.078125 21.269531 L 45.078125 21.175781 L 44.167969 21.039062 C 44.167969 20.539062 44.351562 20.058594 44.691406 19.71875 C 45.304688 20.015625 45.917969 19.035156 46.417969 18.808594 C 46.621094 18.875 46.847656 18.921875 47.078125 18.945312 L 47.078125 19.332031 L 47.347656 19.332031 C 47.667969 19.535156 48.03125 19.671875 48.417969 19.71875 C 48.460938 19.445312 48.417969 19.46875 48.550781 19.332031 C 49.050781 19.628906 50.140625 19.082031 50.664062 19.332031 C 51.1875 19.582031 51.003906 20.242188 51.460938 20.515625 C 51.710938 20.628906 51.980469 20.675781 52.253906 20.652344 L 52.253906 21.039062 L 52.640625 21.039062 C 52.777344 20.515625 52.914062 20.3125 53.546875 20.242188 C 53.914062 20.722656 54.277344 20.722656 54.457031 21.425781 L 54.84375 21.425781 L 54.84375 21.039062 L 55.117188 21.039062 C 55.796875 20.425781 56.839844 20.492188 57.453125 21.175781 C 57.703125 21.472656 57.863281 21.835938 57.886719 22.25 C 58.296875 22.203125 58.679688 22.25 59.066406 22.386719 C 59.5 21.359375 60.382812 20.628906 61.453125 20.402344 C 61.65625 20.722656 61.746094 20.699219 61.839844 21.199219 C 62.835938 21.109375 63.859375 21.0625 64.882812 21.0625 C 65.132812 21.65625 65.675781 22.066406 66.335938 22.132812 L 66.335938 22.523438 C 66.8125 22.339844 67.289062 22.203125 67.789062 22.132812 C 67.902344 22.453125 67.925781 22.339844 68.0625 22.660156 C 67.902344 22.773438 67.949219 22.773438 67.902344 23.046875 L 69.082031 22.910156 C 69.378906 23 69.765625 23.386719 70.148438 23.296875 C 70.742188 23.183594 71.71875 22.066406 72.648438 22.5 C 72.988281 22.679688 72.738281 22.453125 72.921875 22.773438 C 73.101562 23.089844 72.875 23.683594 72.785156 24.230469 L 72.921875 24.230469 L 72.921875 24.367188 C 73.671875 24.480469 74.417969 24.527344 75.167969 24.503906 C 75.28125 24.457031 75.167969 24.164062 75.441406 24.117188 C 75.988281 24.4375 76.554688 24.6875 77.167969 24.914062 C 77.394531 24.277344 77.941406 23.796875 78.621094 23.707031 C 78.804688 24.046875 78.78125 23.957031 79.28125 23.980469 C 79.394531 24.617188 79.4375 24.753906 80.1875 24.777344 L 80.1875 24.277344 L 81.371094 24.414062 C 81.503906 24.984375 81.734375 25.164062 82.4375 25.210938 C 82.4375 23.890625 83.003906 22.15625 84.277344 22.042969 C 84.367188 21.976562 84.277344 21.859375 84.550781 21.90625 L 84.550781 22.042969 C 84.914062 22.316406 85.117188 22.773438 85.070312 23.226562 C 86.59375 23.113281 86.957031 23.84375 88.636719 23.890625 C 88.839844 23.59375 88.820312 23.570312 89.296875 23.5 C 89.839844 24.027344 91.382812 23.867188 92.339844 23.890625 C 92.15625 23.113281 92.476562 22.316406 93.132812 21.882812 C 93.519531 21.746094 93.929688 21.699219 94.3125 21.746094 C 94.519531 22.179688 94.496094 22.226562 95.109375 22.269531 C 95.359375 22.15625 95.359375 22.269531 95.769531 22.269531 C 96.152344 21.449219 96.878906 20.8125 97.742188 20.539062 C 98.015625 21.039062 98.3125 21.542969 98.652344 21.996094 C 99.265625 21.882812 99.902344 21.929688 100.492188 22.132812 C 100.695312 21.496094 101.671875 20.242188 102.46875 20.152344 C 102.855469 20.539062 102.855469 20.449219 103.535156 20.425781 C 103.738281 19.375 104.511719 18.511719 105.535156 18.191406 C 105.804688 18.691406 106.078125 18.738281 106.101562 19.71875 M 133.128906 105.726562 L 133.648438 105.726562 C 133.71875 105.863281 133.808594 106 133.921875 106.113281 C 133.832031 106.339844 133.921875 106.25 133.785156 106.386719 C 133.625 106.820312 133.671875 106.726562 133.128906 106.773438 C 132.878906 106.273438 132.878906 106.203125 133.128906 105.726562 M 131.808594 107.707031 C 132.242188 107.914062 132.285156 107.890625 132.332031 108.503906 L 132.058594 108.503906 C 131.921875 108.597656 131.921875 108.597656 131.671875 108.640625 C 131.582031 108.390625 131.539062 108.117188 131.539062 107.84375 C 131.785156 107.753906 131.671875 107.820312 131.808594 107.707031 M 51.230469 110.464844 C 51.550781 110.488281 51.867188 110.578125 52.140625 110.738281 C 52.230469 110.875 52.230469 110.875 52.277344 111.125 C 51.9375 111.058594 51.574219 111.011719 51.210938 110.988281 Z M 129.832031 110.601562 L 130.3125 110.601562 L 130.3125 111.125 L 129.789062 111.125 Z M 72.332031 112.175781 L 72.601562 112.175781 L 72.601562 112.449219 L 72.332031 112.449219 Z M 72.332031 112.449219 C 72.332031 112.925781 72.375 113.0625 72.714844 113.246094 C 73.078125 112.902344 73.578125 112.8125 74.035156 112.972656 L 74.035156 113.632812 C 73.828125 113.769531 73.601562 113.859375 73.375 113.90625 C 73.238281 113.816406 73.375 113.90625 73.101562 113.769531 L 73.101562 114.15625 C 73.375 114.613281 72.921875 115.160156 72.714844 115.617188 L 72.582031 115.617188 L 72.582031 115.480469 C 72.082031 115 71.511719 114.660156 70.855469 114.40625 L 70.992188 114.019531 C 71.195312 113.882812 71.421875 113.792969 71.648438 113.746094 C 72.011719 114.042969 71.832031 113.839844 72.445312 113.746094 L 72.445312 113.359375 C 71.875 113.449219 71.308594 113.3125 70.855469 112.972656 C 70.761719 112.8125 70.761719 112.746094 70.71875 112.449219 C 70.921875 112.378906 71.148438 112.335938 71.375 112.3125 C 71.695312 112.449219 72.011719 112.492188 72.332031 112.449219 M 130.105469 113.519531 L 129.585938 113.519531 L 129.449219 113.132812 C 129.605469 113.019531 129.789062 112.925781 129.96875 112.859375 L 129.96875 112.996094 C 130.082031 113.132812 130.082031 113.199219 130.105469 113.519531 M 89.339844 114.042969 L 88.953125 114.042969 L 88.953125 113.246094 L 89.226562 113.246094 L 89.226562 113.382812 C 89.339844 113.566406 89.386719 113.816406 89.339844 114.042969 M 25.136719 113.382812 L 25.410156 113.382812 L 25.410156 113.65625 L 25.136719 113.65625 Z M 77.234375 113.382812 L 77.507812 113.382812 L 77.507812 113.65625 L 77.214844 113.65625 Z M 126.949219 113.496094 L 127.222656 113.496094 L 127.222656 113.632812 L 127.085938 113.632812 L 127.085938 113.769531 L 126.949219 113.769531 Z M 45.984375 113.90625 C 46.417969 114.019531 46.484375 114.019531 46.644531 114.429688 C 46.804688 114.839844 46.710938 114.863281 46.644531 115.226562 L 46.347656 115.226562 C 46.144531 115.34375 45.917969 115.386719 45.691406 115.363281 C 45.578125 115.183594 45.441406 115 45.304688 114.839844 C 45.441406 114.269531 45.621094 114.226562 45.964844 113.929688 M 17.597656 114.042969 L 17.984375 114.042969 C 18.144531 114.269531 18.257812 114.542969 18.257812 114.839844 L 17.984375 114.839844 C 17.847656 114.933594 17.871094 114.933594 17.597656 114.976562 C 17.484375 114.839844 17.394531 114.679688 17.300781 114.5 L 17.4375 114.5 Z M 76.554688 115.089844 L 76.554688 114.292969 C 76.828125 114.113281 77.144531 114.019531 77.464844 114.019531 C 77.53125 114.226562 77.578125 114.453125 77.597656 114.679688 L 77.328125 114.816406 C 77.101562 115 76.828125 115.089844 76.554688 115.089844 M 115.1875 114.179688 C 115.390625 114.292969 115.550781 114.476562 115.570312 114.703125 L 115.433594 114.703125 C 115.300781 114.796875 115.300781 114.796875 115.050781 114.839844 C 114.980469 114.429688 115.003906 114.566406 115.1875 114.179688 M 39.355469 114.613281 L 40.011719 114.613281 L 40.011719 114.886719 C 40.125 115.046875 40.105469 115.113281 40.148438 115.410156 L 39.761719 115.546875 C 39.605469 115.640625 39.628906 115.546875 39.242188 115.546875 L 39.242188 115.273438 C 39.035156 114.933594 39.21875 114.933594 39.355469 114.613281 Z M 50.050781 114.886719 C 49.9375 115.320312 50.121094 115.089844 49.777344 115.273438 C 49.621094 114.976562 49.550781 115.023438 49.257812 114.886719 L 49.257812 114.75 L 49.394531 114.75 L 49.394531 114.613281 C 49.574219 114.773438 49.800781 114.863281 50.050781 114.886719 Z M 116.253906 114.613281 C 116.773438 114.75 116.867188 114.773438 116.910156 115.410156 C 116.683594 115.570312 116.410156 115.683594 116.117188 115.683594 C 115.980469 115.480469 115.890625 115.25 115.84375 115.023438 C 115.933594 114.886719 115.890625 115.023438 115.980469 114.75 C 116.207031 114.660156 116.117188 114.75 116.253906 114.613281 Z M 74.441406 114.75 L 74.714844 114.75 L 74.714844 114.886719 L 74.578125 114.886719 L 74.578125 115.023438 C 74.464844 114.863281 74.578125 115 74.441406 114.75 Z M 126.539062 114.863281 C 126.882812 115.046875 126.675781 114.863281 126.8125 115.25 L 126.539062 115.25 Z M 50.960938 115.136719 C 51.164062 115.320312 51.097656 115.226562 51.230469 115.523438 L 50.847656 115.523438 Z M 119.160156 115.136719 L 119.433594 115.136719 L 119.433594 115.410156 L 119.160156 115.410156 Z M 127.609375 115.273438 L 127.996094 115.410156 L 127.996094 115.546875 L 127.859375 115.546875 C 127.722656 115.640625 127.859375 115.59375 127.585938 115.683594 L 127.585938 115.273438 Z M 31.179688 115.410156 C 31.453125 115.457031 31.429688 115.410156 31.566406 115.546875 C 31.699219 115.683594 31.65625 115.777344 31.699219 116.070312 L 31.566406 116.070312 L 31.566406 116.207031 C 31.335938 116.117188 31.429688 116.207031 31.292969 116.070312 C 30.929688 115.820312 31.066406 115.777344 31.179688 115.410156 M 70.21875 115.386719 C 70.582031 115.59375 70.558594 115.503906 70.605469 116.050781 C 70.445312 116.117188 70.265625 116.164062 70.082031 116.1875 C 70.015625 116.070312 69.921875 115.980469 69.808594 115.914062 L 69.945312 115.523438 C 70.195312 115.433594 70.082031 115.523438 70.21875 115.386719 M 113.480469 115.386719 C 113.730469 115.457031 113.960938 115.59375 114.140625 115.777344 C 114.050781 116.003906 114.140625 115.914062 114.003906 116.050781 C 113.890625 116.34375 113.890625 116.230469 113.730469 116.4375 C 113.503906 116.34375 113.597656 116.4375 113.460938 116.300781 C 113.074219 115.980469 113.277344 115.796875 113.480469 115.386719 M 37.902344 115.660156 C 38.242188 115.84375 38.039062 115.660156 38.171875 116.050781 C 37.742188 115.867188 37.902344 116.070312 37.902344 115.660156 M 90.273438 116.070312 C 89.839844 115.957031 90.066406 116.140625 89.886719 115.796875 L 90.023438 115.796875 L 90.023438 115.660156 L 90.292969 115.660156 L 90.292969 116.070312 Z M 39.492188 115.796875 L 39.761719 115.796875 C 39.761719 116.574219 40.242188 116.617188 40.285156 117.78125 C 39.855469 118.078125 39.855469 118.257812 39.105469 118.304688 C 38.71875 117.894531 38.46875 117.941406 38.445312 117.121094 C 38.96875 116.847656 39.355469 116.367188 39.492188 115.796875 M 50.027344 115.796875 L 50.824219 115.933594 L 50.824219 116.207031 L 50.6875 116.207031 C 50.550781 116.300781 50.550781 116.300781 50.300781 116.34375 C 50.027344 115.957031 50.027344 116.1875 50.027344 115.796875 M 63.632812 115.796875 L 64.175781 115.796875 C 64.335938 116.027344 64.449219 116.300781 64.449219 116.597656 C 63.949219 116.9375 64.15625 117.144531 63.792969 117.394531 L 63.792969 117.257812 C 63.449219 116.824219 63.40625 116.253906 63.632812 115.796875 M 114.957031 115.796875 C 114.84375 116.230469 115.027344 116.003906 114.6875 116.1875 L 114.6875 116.050781 C 114.574219 115.914062 114.640625 116.050781 114.550781 115.777344 L 114.957031 115.777344 Z M 120.226562 115.796875 C 120.75 115.933594 120.839844 115.957031 120.886719 116.597656 C 120.660156 116.753906 120.386719 116.871094 120.089844 116.871094 C 119.839844 116.480469 119.886719 116.824219 119.570312 116.597656 C 119.476562 116.460938 119.476562 116.480469 119.433594 116.207031 C 119.726562 116.117188 120 115.980469 120.226562 115.796875 M 116.277344 115.914062 L 116.546875 115.914062 L 116.546875 116.1875 L 116.277344 116.1875 Z M 126.699219 115.914062 L 127.496094 115.914062 L 127.496094 116.050781 L 127.585938 116.050781 L 127.585938 116.324219 L 127.3125 116.324219 C 127.132812 116.367188 126.925781 116.324219 126.789062 116.1875 C 126.675781 116.050781 126.746094 116.1875 126.65625 115.914062 M 74.011719 116.050781 C 74.351562 116.230469 74.148438 116.050781 74.285156 116.4375 C 73.851562 116.230469 74.035156 116.4375 74.011719 116.050781 M 66.675781 116.324219 L 66.925781 116.324219 L 66.925781 116.597656 L 66.652344 116.597656 Z M 115.867188 116.324219 C 116.410156 116.324219 116.546875 116.414062 116.773438 116.710938 C 117.003906 117.050781 117.09375 117.484375 117.046875 117.894531 C 116.773438 118.03125 116.503906 118.214844 116.253906 118.417969 C 115.84375 118.238281 115.433594 118.007812 115.070312 117.757812 C 114.480469 118.394531 113.460938 118.804688 113.480469 117.234375 C 113.800781 117.050781 114.09375 116.824219 114.390625 116.960938 C 114.707031 117.097656 114.777344 117.210938 115.1875 117.347656 L 115.1875 117.210938 C 115.480469 116.960938 115.683594 116.664062 115.867188 116.324219 M 75.101562 116.4375 C 75.53125 116.550781 75.304688 116.367188 75.488281 116.710938 L 75.101562 116.847656 Z M 19.847656 116.574219 C 20.027344 116.597656 20.210938 116.640625 20.367188 116.710938 L 20.367188 116.984375 C 20.253906 117.050781 20.164062 117.144531 20.097656 117.257812 L 19.710938 117.121094 C 19.710938 116.914062 19.753906 116.734375 19.847656 116.574219 M 54.253906 116.574219 C 54.820312 116.574219 55.410156 116.617188 55.980469 116.710938 C 56.386719 117.4375 56.570312 118.257812 56.5 119.078125 C 56.023438 119.445312 55.980469 119.785156 55.183594 119.878906 C 54.277344 120.445312 52.867188 118.738281 52.4375 119.878906 C 52.550781 120.128906 52.480469 120.035156 52.4375 120.402344 C 52.253906 120.515625 52.074219 120.652344 51.914062 120.789062 C 51.6875 120.699219 51.777344 120.789062 51.640625 120.652344 C 51.117188 120.46875 51.097656 120.308594 51.117188 119.582031 C 51.324219 119.445312 51.550781 119.351562 51.777344 119.308594 C 51.960938 119.308594 52.140625 119.351562 52.300781 119.445312 C 52.59375 118.761719 53.140625 118.988281 53.207031 117.984375 C 52.777344 117.847656 52.777344 117.847656 52.6875 117.324219 C 52.800781 117.1875 52.730469 117.324219 52.820312 117.050781 C 53.730469 117.050781 53.730469 117.050781 54.277344 116.527344 M 71.945312 116.550781 C 72.125 116.574219 72.308594 116.617188 72.464844 116.6875 L 72.464844 116.960938 C 72.351562 117.027344 72.261719 117.121094 72.195312 117.234375 L 71.808594 117.097656 C 71.808594 116.890625 71.855469 116.710938 71.945312 116.550781 M 25.910156 116.664062 L 26.433594 116.664062 C 26.5 116.824219 26.546875 117.007812 26.570312 117.1875 C 26.363281 117.324219 26.136719 117.417969 25.910156 117.460938 C 25.660156 116.984375 25.660156 117.144531 25.910156 116.664062 M 41.195312 116.664062 L 41.714844 116.664062 C 42.011719 117.121094 42.238281 117.597656 42.375 118.121094 C 42.148438 118.28125 41.875 118.375 41.582031 118.394531 C 41.332031 117.847656 40.945312 117.417969 41.195312 116.664062 M 77.847656 116.664062 L 78.507812 116.664062 C 78.597656 116.890625 78.507812 116.800781 78.644531 116.9375 C 78.554688 117.164062 78.644531 117.074219 78.507812 117.210938 C 78.371094 117.347656 78.394531 117.394531 77.984375 117.484375 C 77.871094 117.324219 77.78125 117.144531 77.714844 116.960938 C 77.847656 116.800781 77.78125 116.960938 77.847656 116.664062 M 93.292969 116.6875 L 93.816406 116.6875 C 93.949219 116.890625 94.042969 117.121094 94.085938 117.347656 C 93.859375 117.507812 93.585938 117.597656 93.292969 117.621094 C 93.179688 117.460938 93.089844 117.28125 93.019531 117.097656 L 93.15625 117.097656 Z M 37.105469 116.800781 L 37.902344 116.800781 C 38.21875 117.28125 38.558594 117.828125 37.765625 118.121094 C 37.605469 118.238281 37.539062 118.214844 37.242188 118.257812 C 37.128906 118.144531 36.992188 118.054688 36.855469 117.984375 C 36.765625 117.257812 36.789062 117.324219 37.105469 116.800781 M 46.597656 117.984375 L 46.597656 117.1875 C 46.757812 117.097656 46.894531 116.960938 46.984375 116.800781 C 47.347656 116.960938 47.667969 117.164062 47.507812 117.460938 C 47.371094 117.757812 47.324219 117.734375 46.984375 117.847656 C 46.847656 117.964844 46.871094 117.941406 46.597656 117.984375 M 79.324219 116.800781 L 79.984375 116.800781 L 79.984375 117.074219 C 80.074219 117.210938 80.074219 117.1875 80.121094 117.460938 C 79.914062 117.597656 79.6875 117.691406 79.460938 117.734375 C 79.234375 117.484375 79.1875 117.121094 79.324219 116.800781 M 117.957031 116.800781 L 118.480469 116.800781 C 118.546875 116.914062 118.636719 117.007812 118.75 117.074219 C 118.660156 117.300781 118.75 117.210938 118.613281 117.347656 C 118.457031 117.78125 118.5 117.691406 117.957031 117.734375 C 117.886719 117.597656 117.796875 117.460938 117.683594 117.347656 Z M 62.453125 116.9375 C 62.335938 117.371094 62.519531 117.144531 62.179688 117.324219 L 62.179688 117.1875 C 62.066406 117.050781 62.132812 117.1875 62.042969 116.914062 L 62.453125 116.914062 Z M 66.925781 117.734375 L 66.925781 117.210938 C 67.675781 117.097656 68.355469 116.710938 68.765625 117.484375 C 68.855469 117.621094 68.855469 117.621094 68.902344 117.871094 C 68.675781 118.03125 68.402344 118.144531 68.105469 118.144531 C 67.765625 117.847656 67.355469 117.710938 66.925781 117.734375 M 74.261719 116.960938 L 75.054688 117.234375 L 75.054688 117.371094 L 74.917969 117.371094 C 74.714844 117.484375 74.488281 117.53125 74.261719 117.507812 C 74.214844 117.144531 74.191406 117.28125 74.261719 116.960938 M 123.339844 118.007812 L 123.339844 117.210938 C 123.566406 117.050781 123.839844 116.960938 124.132812 116.9375 L 124.132812 117.210938 C 124.246094 117.371094 124.222656 117.4375 124.269531 117.734375 L 124.132812 117.734375 L 124.132812 117.871094 Z M 95.109375 117.210938 L 95.109375 117.734375 C 94.835938 117.691406 94.859375 117.734375 94.722656 117.597656 C 94.585938 117.460938 94.679688 117.597656 94.585938 117.324219 L 94.722656 117.324219 L 94.722656 117.1875 L 95.109375 117.1875 Z M 64.359375 118.28125 L 64.746094 118.28125 C 64.882812 118.488281 64.972656 118.714844 65.019531 118.941406 C 64.652344 119.148438 63.699219 119.625 63.429688 119.46875 C 63.109375 119.375 62.835938 119.195312 62.632812 118.941406 C 62.15625 119.125 62.292969 119.332031 61.722656 119.46875 C 61.542969 119.511719 61.339844 119.46875 61.203125 119.332031 C 60.976562 119.078125 60.953125 118.921875 60.929688 118.417969 C 61.226562 118.167969 61.609375 118.03125 61.996094 118.03125 C 62.222656 118.375 62.246094 118.375 62.792969 118.417969 C 62.972656 117.917969 63.269531 117.828125 63.585938 117.507812 C 63.8125 117.597656 63.722656 117.507812 63.859375 117.644531 C 64.289062 117.78125 64.289062 117.78125 64.359375 118.28125 M 49.347656 117.621094 L 49.734375 117.621094 L 49.734375 118.007812 L 49.347656 118.007812 Z M 43.941406 118.417969 L 43.941406 117.894531 L 44.214844 117.894531 L 44.214844 117.757812 C 44.351562 117.621094 44.351562 117.894531 44.351562 117.894531 L 44.625 118.03125 L 44.488281 118.417969 Z M 126.496094 117.757812 L 126.496094 118.144531 C 126.222656 118.101562 126.246094 118.144531 126.109375 118.007812 L 125.972656 118.007812 L 125.972656 117.871094 L 126.109375 117.871094 L 126.109375 117.734375 Z M 50.121094 117.894531 L 50.503906 117.894531 C 50.574219 118.007812 50.664062 118.101562 50.777344 118.167969 C 50.6875 118.394531 50.777344 118.304688 50.640625 118.441406 C 50.460938 118.761719 50.6875 118.53125 50.371094 118.714844 C 49.914062 118.738281 49.847656 118.488281 50.140625 117.941406 Z M 65.5625 117.894531 C 66.0625 118.054688 66.085938 118.167969 66.085938 118.804688 C 65.859375 118.898438 65.949219 118.804688 65.8125 118.941406 C 65.585938 118.851562 65.675781 118.941406 65.539062 118.804688 C 65.246094 118.691406 65.359375 118.691406 65.152344 118.53125 C 65.246094 118.304688 65.382812 118.078125 65.5625 117.894531 Z M 102.492188 117.894531 C 102.582031 118.03125 102.582031 118.03125 102.625 118.28125 L 102.355469 118.28125 Z M 27.316406 118.007812 L 27.976562 118.144531 C 28.316406 118.875 28.25 119.421875 27.179688 119.46875 C 26.910156 119.171875 26.773438 118.804688 26.796875 118.394531 C 26.976562 118.304688 27.160156 118.167969 27.316406 118.007812 M 79.417969 118.007812 L 80.074219 118.144531 C 80.324219 118.667969 80.484375 119.058594 79.800781 119.332031 C 79.507812 119.488281 79.121094 119.445312 78.894531 119.195312 C 78.78125 119.058594 78.847656 119.195312 78.757812 118.921875 C 78.894531 118.667969 78.984375 118.394531 79.03125 118.121094 C 79.300781 118.101562 79.28125 118.144531 79.417969 118.007812 M 127.039062 118.007812 C 127.382812 118.191406 127.175781 118.007812 127.3125 118.394531 L 127.175781 118.394531 L 127.175781 118.257812 C 127.0625 118.144531 127.132812 118.28125 127.039062 118.007812 M 70.855469 119.214844 L 70.855469 118.417969 C 71.082031 118.257812 71.355469 118.144531 71.648438 118.144531 L 71.648438 118.417969 C 71.761719 118.578125 71.738281 118.648438 71.785156 118.941406 L 71.648438 118.941406 L 71.648438 119.078125 Z M 103.832031 118.144531 L 104.625 118.144531 C 104.828125 118.417969 104.964844 118.738281 105.011719 119.058594 C 104.761719 119.195312 104.558594 119.375 104.351562 119.582031 C 104.125 119.488281 104.214844 119.582031 104.078125 119.445312 C 103.351562 119.238281 103.535156 118.648438 103.832031 118.144531 M 40.125 118.257812 C 40.398438 118.304688 40.375 118.257812 40.511719 118.394531 C 40.648438 118.53125 40.605469 118.625 40.648438 118.921875 C 40.488281 118.988281 40.308594 119.035156 40.125 119.058594 C 39.898438 118.554688 39.875 118.738281 40.125 118.257812 M 92.226562 118.257812 C 92.816406 118.375 92.703125 118.648438 92.746094 118.648438 C 93.203125 118.441406 93.703125 118.351562 94.199219 118.375 L 94.199219 118.648438 C 94.3125 118.851562 94.359375 119.078125 94.335938 119.308594 C 94.132812 119.445312 93.90625 119.535156 93.679688 119.582031 L 93.679688 119.71875 C 93.542969 119.855469 93.542969 119.582031 93.542969 119.582031 C 92.972656 119.445312 93.222656 119.101562 92.882812 118.921875 L 92.226562 119.058594 C 91.792969 118.804688 92.066406 118.554688 92.226562 118.257812 M 117.410156 119.058594 L 116.730469 119.058594 C 116.660156 118.898438 116.617188 118.714844 116.59375 118.53125 C 116.796875 118.464844 117.023438 118.417969 117.253906 118.394531 C 117.34375 118.601562 117.386719 118.828125 117.410156 119.058594 M 66.789062 118.625 C 67.105469 118.625 67.402344 118.667969 67.699219 118.761719 L 67.699219 119.035156 C 67.8125 119.238281 67.855469 119.46875 67.832031 119.695312 C 67.652344 119.808594 67.46875 119.945312 67.3125 120.082031 C 66.402344 119.898438 66.402344 119.308594 66.789062 118.625 M 73.648438 119.035156 C 74.078125 119.148438 73.851562 118.964844 74.035156 119.308594 L 73.898438 119.308594 L 73.898438 119.445312 C 73.488281 119.214844 73.648438 119.421875 73.648438 119.035156 M 74.578125 119.285156 L 74.851562 119.285156 L 74.851562 119.535156 L 74.578125 119.535156 Z M 64.269531 119.695312 L 64.789062 119.695312 C 64.859375 119.855469 64.902344 120.035156 64.925781 120.21875 C 64.722656 120.289062 64.496094 120.332031 64.269531 120.355469 C 64.175781 120.128906 64.175781 119.898438 64.269531 119.695312 M 78.257812 119.808594 L 79.054688 119.945312 L 79.1875 120.332031 C 79.347656 120.605469 79.257812 120.628906 79.1875 120.996094 C 78.9375 121.109375 78.667969 121.199219 78.394531 121.269531 C 77.804688 120.675781 77.804688 120.515625 78.257812 119.808594 M 63.882812 120.332031 C 64.0625 120.355469 64.246094 120.402344 64.40625 120.46875 C 64.3125 120.699219 64.40625 120.605469 64.269531 120.742188 C 64.132812 120.878906 64.132812 120.835938 63.882812 120.878906 C 63.835938 120.539062 63.792969 120.652344 63.882812 120.332031 M 34.335938 121.246094 L 34.859375 121.246094 C 34.925781 121.359375 35.015625 121.449219 35.128906 121.519531 C 35.039062 121.746094 35.128906 121.65625 34.992188 121.792969 C 34.878906 122.089844 34.878906 121.972656 34.722656 122.179688 C 34.496094 122.089844 34.585938 122.179688 34.449219 122.042969 C 34.132812 121.792969 34.199219 121.65625 34.335938 121.246094 M 86.433594 121.269531 L 86.957031 121.269531 C 87.070312 121.425781 87.160156 121.609375 87.230469 121.792969 L 87.136719 121.792969 L 86.867188 122.179688 C 86.636719 122.089844 86.730469 122.179688 86.59375 122.042969 C 86.09375 121.769531 86.296875 121.609375 86.457031 121.246094 M 111.28125 121.269531 C 111.527344 121.359375 111.757812 121.496094 111.9375 121.65625 L 111.9375 121.929688 C 111.710938 122.089844 111.4375 122.179688 111.144531 122.203125 C 110.9375 121.585938 110.960938 121.792969 111.28125 121.269531 M 23.296875 121.542969 C 23.84375 121.679688 23.820312 121.769531 23.820312 122.453125 L 23.546875 122.453125 C 23.410156 122.542969 23.433594 122.542969 23.160156 122.589844 C 23.003906 122.363281 22.890625 122.089844 22.890625 121.792969 C 23.046875 121.722656 23.183594 121.632812 23.296875 121.542969 M 75.394531 121.542969 C 75.941406 121.679688 75.917969 121.769531 75.917969 122.453125 L 75.644531 122.453125 C 75.511719 122.542969 75.511719 122.542969 75.261719 122.589844 C 75.101562 122.363281 74.988281 122.089844 74.988281 121.792969 C 75.125 121.722656 75.261719 121.609375 75.375 121.496094 Z M 49.664062 121.65625 L 50.1875 121.65625 C 50.164062 121.835938 50.121094 122.019531 50.050781 122.179688 C 49.824219 122.089844 49.914062 122.179688 49.777344 122.042969 C 49.664062 121.929688 49.710938 121.929688 49.664062 121.65625 Z M 100.195312 122.589844 C 99.925781 122.542969 99.945312 122.589844 99.808594 122.453125 C 99.695312 122.246094 99.652344 122.019531 99.675781 121.792969 L 99.945312 121.792969 C 100.105469 121.679688 100.171875 121.699219 100.46875 121.65625 C 100.558594 121.90625 100.605469 122.179688 100.605469 122.453125 C 100.492188 122.589844 100.558594 122.453125 100.46875 122.726562 C 101.242188 122.726562 101.148438 122.910156 101.535156 123.25 C 101.445312 123.476562 101.535156 123.386719 101.398438 123.523438 C 101.21875 124.046875 101.058594 124.070312 100.332031 124.046875 L 100.195312 123.660156 C 99.992188 123.320312 100.152344 123.023438 100.195312 122.589844 M 101.785156 121.65625 L 102.308594 121.65625 C 102.285156 121.835938 102.242188 122.019531 102.171875 122.179688 C 101.945312 122.089844 102.035156 122.179688 101.898438 122.042969 C 101.785156 121.929688 101.832031 121.929688 101.785156 121.65625 M 126.996094 122.179688 L 126.472656 122.179688 C 126.496094 121.996094 126.539062 121.816406 126.609375 121.65625 L 126.996094 121.792969 Z M 58.660156 122.429688 L 59.042969 122.429688 C 59.203125 122.65625 59.316406 122.929688 59.316406 123.226562 C 59.113281 123.296875 58.886719 123.339844 58.660156 123.363281 C 58.546875 123.203125 58.453125 123.023438 58.386719 122.839844 L 58.523438 122.839844 L 58.660156 122.429688 M 48.234375 122.703125 C 48.597656 122.703125 48.9375 122.75 49.300781 122.839844 L 49.4375 123.636719 C 49.144531 123.910156 48.78125 124.046875 48.371094 124.023438 C 48.007812 123.796875 47.597656 123.660156 47.191406 123.636719 L 47.191406 122.976562 L 47.324219 122.976562 L 47.324219 122.839844 C 47.917969 122.816406 47.960938 122.976562 48.234375 122.703125 M 125.109375 122.703125 L 125.90625 122.839844 L 125.90625 122.976562 L 126.042969 122.976562 C 126.042969 123.410156 126.175781 123.410156 126.042969 123.636719 C 125.882812 124.140625 125.769531 124.160156 125.132812 124.160156 C 124.679688 123.5 124.703125 123.320312 125.109375 122.703125 M 74.464844 123.339844 L 73.941406 123.339844 C 73.964844 123.160156 74.011719 122.976562 74.078125 122.816406 C 74.304688 122.910156 74.214844 122.816406 74.351562 122.953125 C 74.464844 123.089844 74.417969 123.089844 74.464844 123.339844 M 34.109375 123.089844 C 34.3125 123.183594 34.472656 123.386719 34.496094 123.613281 L 34.359375 123.613281 C 34.222656 123.707031 34.222656 123.707031 33.972656 123.75 C 33.902344 123.320312 33.925781 123.457031 34.109375 123.089844 Z M 85.933594 123.203125 L 86.457031 123.203125 C 86.433594 123.386719 86.386719 123.570312 86.320312 123.730469 C 86.09375 123.636719 86.183594 123.730469 86.046875 123.59375 C 85.933594 123.476562 85.980469 123.476562 85.933594 123.203125 M 110.734375 123.203125 C 110.914062 123.273438 111.097656 123.363281 111.257812 123.476562 L 111.257812 123.613281 L 111.121094 123.613281 C 110.9375 123.820312 111.03125 123.75 110.734375 123.886719 L 110.734375 123.75 C 110.597656 123.476562 110.667969 123.5 110.734375 123.203125 M 72.625 123.886719 L 73.421875 124.023438 C 73.898438 125.097656 74.851562 124.867188 74.875 126.394531 C 74.761719 126.53125 74.828125 126.394531 74.738281 126.667969 C 74.488281 126.761719 74.285156 126.898438 74.078125 127.054688 L 73.285156 126.917969 C 73.148438 126.714844 72.832031 126.488281 72.761719 126.257812 C 72.625 125.871094 73.011719 125.550781 72.898438 125.347656 L 72.511719 125.210938 C 72.035156 124.664062 72.332031 124.34375 72.625 123.886719 M 58.25 124.414062 C 58.660156 124.570312 58.546875 124.457031 58.636719 124.9375 L 58.5 124.9375 L 58.5 125.074219 C 58.273438 124.980469 58.363281 125.074219 58.226562 124.9375 C 58.089844 124.6875 58.160156 124.707031 58.25 124.414062 M 43.304688 125.871094 C 43.714844 125.871094 44.101562 125.917969 44.488281 126.007812 C 44.78125 126.441406 44.917969 126.941406 44.875 127.464844 C 44.375 127.808594 44.304688 128.082031 43.417969 128.128906 C 42.898438 127.625 42.625 127.648438 42.625 126.53125 C 42.714844 126.394531 42.671875 126.53125 42.761719 126.257812 C 42.964844 126.144531 43.148438 126.03125 43.304688 125.871094 M 114.253906 125.984375 L 114.777344 125.984375 C 114.9375 126.214844 115.050781 126.488281 115.050781 126.78125 C 114.820312 126.941406 114.550781 127.054688 114.253906 127.054688 C 114.003906 126.554688 114.003906 126.488281 114.253906 125.984375 Z M 110.574219 128.765625 C 111.484375 128.765625 112.300781 128.949219 112.550781 129.5625 C 112.777344 129.925781 112.867188 130.335938 112.824219 130.746094 C 112.800781 131.296875 112.4375 131.773438 111.914062 131.933594 C 111.4375 132.09375 110.960938 132.136719 110.460938 132.070312 C 110.210938 131.726562 109.984375 131.726562 109.804688 131.273438 C 109.554688 130.839844 109.460938 130.316406 109.53125 129.8125 C 109.710938 129.585938 109.804688 129.175781 110.054688 129.015625 C 110.304688 128.855469 110.371094 129.015625 110.574219 128.765625 Z M 72.21875 130.085938 L 72.738281 130.085938 C 72.945312 130.40625 73.035156 130.382812 73.125 130.882812 C 72.785156 131.226562 72.875 131.339844 72.21875 131.410156 C 71.785156 130.769531 71.808594 130.726562 72.21875 130.085938 " fill-opacity="1" fill-rule="nonzero"/></g></svg>