<svg xmlns="http://www.w3.org/2000/svg" xmlns:xlink="http://www.w3.org/1999/xlink" width="200" zoomAndPan="magnify" viewBox="0 0 150 30.000001" height="40" preserveAspectRatio="xMidYMid meet" version="1.0"><defs><clipPath id="1901a2d200"><path d="M 2.417969 9.179688 L 147.578125 9.179688 L 147.578125 19.851562 L 2.417969 19.851562 Z M 2.417969 9.179688 " clip-rule="nonzero"/></clipPath><clipPath id="3a219e0ead"><path d="M 147.582031 14.339844 C 147.621094 15.117188 147.503906 15.894531 147.191406 16.628906 C 146.609375 18.066406 145.332031 19.191406 143.855469 19.617188 C 143.703125 19.65625 143.507812 19.695312 143.3125 19.734375 C 143.121094 19.773438 142.886719 19.8125 142.730469 19.8125 L 142.148438 19.8125 C 141.996094 19.773438 141.800781 19.773438 141.605469 19.734375 C 140.871094 19.617188 140.171875 19.304688 139.589844 18.839844 C 139.007812 18.375 138.582031 17.792969 138.269531 17.171875 C 138.117188 16.863281 138 16.550781 137.921875 16.203125 C 137.882812 16.046875 137.84375 15.855469 137.84375 15.699219 C 137.804688 15.542969 137.804688 15.386719 137.804688 15.234375 C 137.804688 14.535156 138 13.914062 138.308594 13.371094 C 138.621094 12.867188 139.085938 12.402344 139.628906 12.167969 C 139.746094 12.128906 139.898438 12.050781 140.015625 12.015625 C 140.132812 11.9375 140.289062 11.9375 140.40625 11.898438 C 140.675781 11.859375 140.949219 11.820312 141.179688 11.820312 C 141.683594 11.820312 142.226562 11.976562 142.578125 12.324219 C 142.925781 12.671875 143.121094 13.101562 143.160156 13.488281 C 143.199219 13.875 143.121094 14.226562 142.964844 14.535156 C 142.847656 14.84375 142.617188 15.039062 142.421875 15.195312 C 142.304688 15.234375 142.1875 15.3125 142.109375 15.351562 C 142.074219 15.351562 141.996094 15.386719 141.957031 15.386719 C 141.800781 15.425781 141.644531 15.464844 141.492188 15.464844 L 141.375 15.464844 C 140.636719 15.425781 140.015625 14.769531 140.015625 13.992188 C 140.015625 13.136719 140.714844 12.480469 141.527344 12.480469 C 142.226562 12.480469 142.808594 12.945312 142.964844 13.605469 L 142.964844 13.527344 C 142.886719 13.175781 142.730469 12.828125 142.421875 12.59375 C 142.109375 12.363281 141.683594 12.246094 141.257812 12.285156 C 140.984375 12.324219 140.792969 12.324219 140.558594 12.402344 L 140.210938 12.519531 C 140.09375 12.558594 139.976562 12.59375 139.859375 12.671875 C 139.433594 12.90625 139.046875 13.253906 138.8125 13.71875 C 138.699219 13.953125 138.621094 14.1875 138.542969 14.457031 C 138.503906 14.730469 138.464844 15.039062 138.464844 15.273438 C 138.464844 15.386719 138.464844 15.582031 138.503906 15.699219 C 138.503906 15.816406 138.542969 15.929688 138.582031 16.085938 C 138.660156 16.359375 138.773438 16.628906 138.890625 16.902344 C 139.164062 17.40625 139.550781 17.871094 140.015625 18.257812 C 140.480469 18.648438 141.0625 18.878906 141.683594 18.957031 C 141.839844 18.996094 141.996094 18.996094 142.148438 18.996094 L 142.652344 18.996094 C 142.847656 18.957031 142.964844 18.957031 143.121094 18.917969 L 143.585938 18.800781 C 144.828125 18.453125 145.875 17.523438 146.378906 16.320312 C 146.648438 15.699219 146.765625 15.039062 146.726562 14.417969 L 146.726562 14.148438 C 146.726562 14.070312 146.6875 13.992188 146.6875 13.914062 L 146.648438 13.683594 L 146.570312 13.449219 C 146.496094 13.136719 146.378906 12.828125 146.222656 12.558594 C 145.640625 11.394531 144.59375 10.578125 143.390625 10.269531 C 143.121094 10.191406 142.808594 10.152344 142.5 10.152344 C 142.1875 10.113281 141.839844 10.113281 141.527344 10.113281 C 141.140625 10.074219 140.753906 10.074219 140.40625 10.074219 L 9.59375 10.074219 C 9.246094 10.074219 8.859375 10.074219 8.472656 10.113281 C 8.160156 10.113281 7.8125 10.113281 7.5 10.152344 C 7.191406 10.152344 6.878906 10.191406 6.609375 10.269531 C 5.40625 10.578125 4.359375 11.355469 3.777344 12.519531 C 3.621094 12.789062 3.503906 13.101562 3.429688 13.410156 L 3.351562 13.644531 L 3.3125 13.875 C 3.3125 13.953125 3.273438 14.03125 3.273438 14.109375 L 3.273438 14.378906 C 3.234375 15 3.351562 15.660156 3.621094 16.28125 C 4.125 17.484375 5.171875 18.414062 6.414062 18.761719 L 6.878906 18.878906 C 7.035156 18.917969 7.152344 18.917969 7.347656 18.957031 L 7.851562 18.957031 C 8.003906 18.957031 8.160156 18.957031 8.316406 18.917969 C 8.9375 18.839844 9.519531 18.609375 9.984375 18.21875 C 10.449219 17.832031 10.835938 17.367188 11.109375 16.863281 C 11.226562 16.589844 11.339844 16.320312 11.417969 16.046875 C 11.457031 15.894531 11.496094 15.777344 11.496094 15.660156 C 11.535156 15.542969 11.535156 15.351562 11.535156 15.234375 C 11.535156 15 11.496094 14.691406 11.457031 14.417969 C 11.378906 14.148438 11.300781 13.914062 11.1875 13.683594 C 10.953125 13.214844 10.566406 12.867188 10.140625 12.632812 C 10.023438 12.558594 9.90625 12.519531 9.789062 12.480469 L 9.441406 12.363281 C 9.207031 12.285156 9.015625 12.285156 8.742188 12.246094 C 8.316406 12.207031 7.890625 12.324219 7.578125 12.558594 C 7.269531 12.789062 7.113281 13.136719 7.035156 13.488281 L 7.035156 13.566406 C 7.191406 12.90625 7.773438 12.441406 8.472656 12.441406 C 9.285156 12.441406 9.984375 13.101562 9.984375 13.953125 C 9.984375 14.730469 9.363281 15.386719 8.625 15.425781 L 8.507812 15.425781 C 8.355469 15.425781 8.199219 15.386719 8.042969 15.351562 C 8.003906 15.351562 7.925781 15.3125 7.890625 15.3125 C 7.8125 15.273438 7.695312 15.195312 7.578125 15.15625 C 7.382812 15 7.152344 14.808594 7.035156 14.496094 C 6.878906 14.1875 6.800781 13.835938 6.839844 13.449219 C 6.878906 13.0625 7.074219 12.632812 7.421875 12.285156 C 7.773438 11.9375 8.316406 11.78125 8.820312 11.78125 C 9.050781 11.78125 9.324219 11.820312 9.59375 11.859375 C 9.710938 11.898438 9.867188 11.898438 9.984375 11.976562 C 10.101562 12.015625 10.253906 12.089844 10.371094 12.128906 C 10.914062 12.363281 11.378906 12.828125 11.691406 13.332031 C 12 13.875 12.195312 14.496094 12.195312 15.195312 C 12.195312 15.351562 12.195312 15.503906 12.15625 15.660156 C 12.15625 15.816406 12.117188 16.007812 12.078125 16.164062 C 12 16.511719 11.882812 16.824219 11.730469 17.132812 C 11.417969 17.753906 10.992188 18.335938 10.410156 18.800781 C 9.828125 19.269531 9.128906 19.578125 8.394531 19.695312 C 8.199219 19.734375 8.003906 19.734375 7.851562 19.773438 L 7.269531 19.773438 C 7.113281 19.773438 6.878906 19.734375 6.6875 19.695312 C 6.492188 19.65625 6.296875 19.617188 6.144531 19.578125 C 4.667969 19.152344 3.390625 18.027344 2.808594 16.589844 C 2.496094 15.855469 2.378906 15.078125 2.417969 14.300781 L 2.457031 14.070312 C 2.457031 13.992188 2.496094 13.875 2.496094 13.757812 L 2.535156 13.449219 L 2.613281 13.175781 C 2.691406 12.789062 2.847656 12.441406 3.039062 12.089844 C 3.738281 10.734375 5.058594 9.765625 6.453125 9.453125 C 6.800781 9.375 7.152344 9.335938 7.5 9.296875 L 8.082031 9.296875 L 8.082031 9.222656 L 141.878906 9.222656 L 141.878906 9.296875 L 142.460938 9.296875 C 142.808594 9.335938 143.160156 9.375 143.507812 9.453125 C 144.902344 9.765625 146.222656 10.734375 146.921875 12.089844 C 147.113281 12.441406 147.269531 12.789062 147.347656 13.175781 L 147.425781 13.449219 L 147.464844 13.757812 C 147.464844 13.875 147.503906 13.992188 147.503906 14.070312 Z M 147.582031 14.339844 " clip-rule="nonzero"/></clipPath></defs><g clip-path="url(#1901a2d200)"><g clip-path="url(#3a219e0ead)"><path fill="#ffbd59" d="M 2.417969 8.675781 L 147.59375 8.675781 L 147.59375 20.355469 L 2.417969 20.355469 Z M 2.417969 8.675781 " fill-opacity="1" fill-rule="nonzero"/></g></g></svg>