<svg xmlns="http://www.w3.org/2000/svg" xmlns:xlink="http://www.w3.org/1999/xlink" width="200" zoomAndPan="magnify" viewBox="0 0 150 30.000001" height="40" preserveAspectRatio="xMidYMid meet" version="1.0"><defs><clipPath id="c3335edb2f"><path d="M 2.417969 9.171875 L 147.578125 9.171875 L 147.578125 19.84375 L 2.417969 19.84375 Z M 2.417969 9.171875 " clip-rule="nonzero"/></clipPath><clipPath id="e849c47996"><path d="M 2.417969 14.683594 C 2.378906 13.90625 2.496094 13.132812 2.808594 12.394531 C 3.390625 10.960938 4.667969 9.835938 6.144531 9.410156 C 6.296875 9.371094 6.492188 9.332031 6.6875 9.292969 C 6.878906 9.253906 7.113281 9.214844 7.269531 9.214844 L 7.851562 9.214844 C 8.003906 9.253906 8.199219 9.253906 8.394531 9.292969 C 9.128906 9.410156 9.828125 9.71875 10.410156 10.183594 C 10.992188 10.648438 11.417969 11.230469 11.730469 11.851562 C 11.882812 12.164062 12 12.472656 12.078125 12.820312 C 12.117188 12.976562 12.15625 13.171875 12.15625 13.324219 C 12.195312 13.480469 12.195312 13.636719 12.195312 13.792969 C 12.195312 14.488281 12 15.109375 11.691406 15.652344 C 11.378906 16.15625 10.914062 16.625 10.371094 16.855469 C 10.253906 16.894531 10.101562 16.972656 9.984375 17.011719 C 9.867188 17.089844 9.710938 17.089844 9.59375 17.128906 C 9.324219 17.167969 9.050781 17.207031 8.820312 17.207031 C 8.316406 17.207031 7.773438 17.050781 7.421875 16.699219 C 7.074219 16.351562 6.878906 15.925781 6.839844 15.539062 C 6.800781 15.148438 6.878906 14.800781 7.035156 14.488281 C 7.152344 14.179688 7.382812 13.984375 7.578125 13.832031 C 7.695312 13.792969 7.8125 13.714844 7.890625 13.675781 C 7.925781 13.675781 8.003906 13.636719 8.042969 13.636719 C 8.199219 13.597656 8.355469 13.558594 8.507812 13.558594 L 8.625 13.558594 C 9.363281 13.597656 9.984375 14.257812 9.984375 15.03125 C 9.984375 15.886719 9.285156 16.546875 8.472656 16.546875 C 7.773438 16.546875 7.191406 16.082031 7.035156 15.421875 L 7.035156 15.5 C 7.113281 15.847656 7.269531 16.195312 7.578125 16.429688 C 7.890625 16.664062 8.316406 16.777344 8.742188 16.738281 C 9.015625 16.699219 9.207031 16.699219 9.441406 16.625 L 9.789062 16.507812 C 9.90625 16.46875 10.023438 16.429688 10.140625 16.351562 C 10.566406 16.117188 10.953125 15.769531 11.1875 15.304688 C 11.300781 15.070312 11.378906 14.839844 11.457031 14.566406 C 11.496094 14.296875 11.535156 13.984375 11.535156 13.753906 C 11.535156 13.636719 11.535156 13.441406 11.496094 13.324219 C 11.496094 13.210938 11.457031 13.09375 11.417969 12.9375 C 11.339844 12.667969 11.226562 12.394531 11.109375 12.125 C 10.835938 11.621094 10.449219 11.152344 9.984375 10.765625 C 9.519531 10.378906 8.9375 10.144531 8.316406 10.066406 C 8.160156 10.027344 8.003906 10.027344 7.851562 10.027344 L 7.347656 10.027344 C 7.152344 10.066406 7.035156 10.066406 6.878906 10.105469 L 6.414062 10.222656 C 5.171875 10.570312 4.125 11.503906 3.621094 12.707031 C 3.351562 13.324219 3.234375 13.984375 3.273438 14.605469 L 3.273438 14.878906 C 3.273438 14.957031 3.3125 15.03125 3.3125 15.109375 L 3.351562 15.34375 L 3.429688 15.574219 C 3.503906 15.886719 3.621094 16.195312 3.777344 16.46875 C 4.359375 17.632812 5.40625 18.445312 6.609375 18.757812 C 6.878906 18.835938 7.191406 18.875 7.5 18.875 C 7.8125 18.910156 8.160156 18.910156 8.472656 18.910156 C 8.859375 18.949219 9.246094 18.949219 9.59375 18.949219 L 140.40625 18.949219 C 140.753906 18.949219 141.140625 18.949219 141.527344 18.910156 C 141.839844 18.910156 142.1875 18.910156 142.5 18.875 C 142.808594 18.875 143.121094 18.835938 143.390625 18.757812 C 144.59375 18.445312 145.640625 17.671875 146.222656 16.507812 C 146.378906 16.234375 146.496094 15.925781 146.570312 15.613281 L 146.648438 15.382812 L 146.6875 15.148438 C 146.6875 15.070312 146.726562 14.996094 146.726562 14.917969 L 146.726562 14.644531 C 146.765625 14.023438 146.648438 13.363281 146.378906 12.746094 C 145.875 11.542969 144.828125 10.609375 143.585938 10.261719 L 143.121094 10.144531 C 142.964844 10.105469 142.847656 10.105469 142.652344 10.066406 L 142.148438 10.066406 C 141.996094 10.066406 141.839844 10.066406 141.683594 10.105469 C 141.0625 10.183594 140.480469 10.417969 140.015625 10.804688 C 139.550781 11.191406 139.164062 11.65625 138.890625 12.164062 C 138.773438 12.433594 138.660156 12.707031 138.582031 12.976562 C 138.542969 13.132812 138.503906 13.25 138.503906 13.363281 C 138.464844 13.480469 138.464844 13.675781 138.464844 13.792969 C 138.464844 14.023438 138.503906 14.335938 138.542969 14.605469 C 138.621094 14.878906 138.699219 15.109375 138.8125 15.34375 C 139.046875 15.808594 139.433594 16.15625 139.859375 16.390625 C 139.976562 16.46875 140.09375 16.507812 140.210938 16.546875 L 140.558594 16.664062 C 140.792969 16.738281 140.984375 16.738281 141.257812 16.777344 C 141.683594 16.816406 142.109375 16.699219 142.421875 16.46875 C 142.730469 16.234375 142.886719 15.886719 142.964844 15.539062 L 142.964844 15.460938 C 142.808594 16.117188 142.226562 16.585938 141.527344 16.585938 C 140.714844 16.585938 140.015625 15.925781 140.015625 15.070312 C 140.015625 14.296875 140.636719 13.636719 141.375 13.597656 L 141.492188 13.597656 C 141.644531 13.597656 141.800781 13.636719 141.957031 13.675781 C 141.996094 13.675781 142.074219 13.714844 142.109375 13.714844 C 142.1875 13.753906 142.304688 13.832031 142.421875 13.871094 C 142.617188 14.023438 142.847656 14.21875 142.964844 14.527344 C 143.121094 14.839844 143.199219 15.1875 143.160156 15.574219 C 143.121094 15.964844 142.925781 16.390625 142.578125 16.738281 C 142.226562 17.089844 141.683594 17.242188 141.179688 17.242188 C 140.949219 17.242188 140.675781 17.207031 140.40625 17.167969 C 140.289062 17.128906 140.132812 17.128906 140.015625 17.050781 C 139.898438 17.011719 139.746094 16.933594 139.628906 16.894531 C 139.085938 16.664062 138.621094 16.195312 138.308594 15.691406 C 138 15.148438 137.804688 14.527344 137.804688 13.832031 C 137.804688 13.675781 137.804688 13.519531 137.84375 13.363281 C 137.84375 13.210938 137.882812 13.015625 137.921875 12.859375 C 138 12.511719 138.117188 12.203125 138.269531 11.890625 C 138.582031 11.269531 139.007812 10.6875 139.589844 10.222656 C 140.171875 9.757812 140.871094 9.445312 141.605469 9.332031 C 141.800781 9.292969 141.996094 9.292969 142.148438 9.253906 L 142.730469 9.253906 C 142.886719 9.253906 143.121094 9.292969 143.3125 9.332031 C 143.507812 9.371094 143.703125 9.410156 143.855469 9.445312 C 145.332031 9.875 146.609375 11 147.191406 12.433594 C 147.503906 13.171875 147.621094 13.945312 147.582031 14.722656 L 147.542969 14.957031 C 147.542969 15.03125 147.503906 15.148438 147.503906 15.265625 L 147.464844 15.574219 L 147.386719 15.847656 C 147.308594 16.234375 147.152344 16.585938 146.960938 16.933594 C 146.261719 18.292969 144.941406 19.261719 143.546875 19.570312 C 143.199219 19.648438 142.847656 19.6875 142.5 19.726562 L 141.917969 19.726562 L 141.917969 19.804688 L 8.121094 19.804688 L 8.121094 19.726562 L 7.539062 19.726562 C 7.191406 19.6875 6.839844 19.648438 6.492188 19.570312 C 5.097656 19.261719 3.777344 18.292969 3.078125 16.933594 C 2.886719 16.585938 2.730469 16.234375 2.652344 15.847656 L 2.574219 15.574219 L 2.535156 15.265625 C 2.535156 15.148438 2.496094 15.03125 2.496094 14.957031 Z M 2.417969 14.683594 " clip-rule="nonzero"/></clipPath></defs><g clip-path="url(#c3335edb2f)"><g clip-path="url(#e849c47996)"><path fill="#ffbd59" d="M 147.582031 20.347656 L 2.40625 20.347656 L 2.40625 8.671875 L 147.582031 8.671875 Z M 147.582031 20.347656 " fill-opacity="1" fill-rule="nonzero"/></g></g></svg>